G04*
G04 #@! TF.GenerationSoftware,Altium Limited,Altium Designer,22.0.2 (36)*
G04*
G04 Layer_Color=255*
%FSTAX25Y25*%
%MOIN*%
G70*
G04*
G04 #@! TF.SameCoordinates,0D831988-8BE3-4B2D-80CC-02C8544F8A67*
G04*
G04*
G04 #@! TF.FilePolarity,Positive*
G04*
G01*
G75*
%ADD19R,0.03200X0.03200*%
%ADD20R,0.12992X0.15354*%
%ADD21R,0.03543X0.02362*%
%ADD22R,0.04921X0.02756*%
%ADD23R,0.03543X0.03150*%
%ADD24O,0.03937X0.01378*%
%ADD25R,0.03937X0.01378*%
%ADD26R,0.03150X0.03543*%
%ADD27R,0.07087X0.05315*%
%ADD28R,0.02953X0.03937*%
%ADD29R,0.03200X0.03200*%
%ADD30R,0.04920X0.02760*%
%ADD31R,0.11811X0.05906*%
%ADD61R,0.03402X0.03175*%
%ADD62R,0.03175X0.03402*%
%ADD63R,0.04459X0.05421*%
%ADD70R,0.06000X0.06000*%
%ADD71C,0.06000*%
%ADD72R,0.08590X0.04770*%
%ADD73R,0.06000X0.06000*%
%ADD74R,0.07087X0.06299*%
%ADD75O,0.07087X0.06299*%
%ADD76R,0.05400X0.05400*%
%ADD77C,0.05400*%
%ADD78C,0.09843*%
%ADD79O,0.03937X0.06299*%
%ADD80C,0.07874*%
%ADD81C,0.06299*%
%ADD82P,0.08485X4X255.0*%
D19*
X01034Y-0069224D02*
D03*
X009966Y-0059776D02*
D03*
X010714D02*
D03*
X022576Y0125776D02*
D03*
X023324D02*
D03*
X02295Y0135224D02*
D03*
X011474Y-0042276D02*
D03*
X010726D02*
D03*
X0111Y-0051724D02*
D03*
X019324Y-0041276D02*
D03*
X018576D02*
D03*
X01895Y-0050724D02*
D03*
D20*
X0149553Y0170364D02*
D03*
D21*
X0160369Y0162864D02*
D03*
Y0167865D02*
D03*
Y0172864D02*
D03*
Y0177865D02*
D03*
X0138737D02*
D03*
Y0172864D02*
D03*
Y0167865D02*
D03*
Y0162864D02*
D03*
D22*
X0101579Y018374D02*
D03*
Y017626D02*
D03*
X0111421Y018D02*
D03*
X0101079Y014874D02*
D03*
Y014126D02*
D03*
X0110921Y0145D02*
D03*
D23*
X01205Y0196012D02*
D03*
Y01905D02*
D03*
X0141719Y-0041277D02*
D03*
Y-0046789D02*
D03*
X0133719Y-0041277D02*
D03*
Y-0046789D02*
D03*
X01585Y-00585D02*
D03*
Y-0064012D02*
D03*
D24*
X0145924Y0189914D02*
D03*
Y0187355D02*
D03*
Y0184796D02*
D03*
X0153404Y0189914D02*
D03*
Y0187355D02*
D03*
D25*
Y0184796D02*
D03*
D26*
X0125211Y0181781D02*
D03*
X0130723D02*
D03*
X0130789Y0157719D02*
D03*
X0125277D02*
D03*
X0151789Y0154719D02*
D03*
X0146277D02*
D03*
X0174789Y0163719D02*
D03*
X0169277D02*
D03*
X0169338Y0155281D02*
D03*
X017485D02*
D03*
X0169488Y01475D02*
D03*
X0175D02*
D03*
X0169211Y0139781D02*
D03*
X0174723D02*
D03*
X0094188Y-00396D02*
D03*
X00997D02*
D03*
X0150723Y-0062719D02*
D03*
X0145211D02*
D03*
X0206789Y-0033797D02*
D03*
X0212301D02*
D03*
D27*
X0166342Y013D02*
D03*
X0176657D02*
D03*
D28*
X0209259Y0125831D02*
D03*
Y0116599D02*
D03*
D29*
X0131724Y-006324D02*
D03*
Y-005576D02*
D03*
X0122276Y-00595D02*
D03*
D30*
X0159497Y-0047825D02*
D03*
X0149657Y-0051565D02*
D03*
Y-0044085D02*
D03*
D31*
X02267Y-00527D02*
D03*
X02026D02*
D03*
X01644Y-00223D02*
D03*
X01403D02*
D03*
D61*
X01134Y-0064D02*
D03*
Y-0058068D02*
D03*
X0094801Y0182913D02*
D03*
Y0176981D02*
D03*
X00875Y0177D02*
D03*
Y0182932D02*
D03*
X0093801Y0147913D02*
D03*
Y0141981D02*
D03*
X0218301Y0114481D02*
D03*
Y0120413D02*
D03*
X0138Y-00625D02*
D03*
Y-0056568D02*
D03*
X0092599Y-0066613D02*
D03*
Y-0060681D02*
D03*
X0123599Y-0046913D02*
D03*
Y-0040981D02*
D03*
X01145Y-00355D02*
D03*
Y-0029568D02*
D03*
X01075Y-00355D02*
D03*
Y-0029568D02*
D03*
X0199199Y-0027981D02*
D03*
Y-0033913D02*
D03*
D62*
X0100019Y-0047199D02*
D03*
X0094087D02*
D03*
X0097519Y0169301D02*
D03*
X0091587D02*
D03*
X0091087Y0154801D02*
D03*
X0097019D02*
D03*
X0097519Y0161801D02*
D03*
X0091587D02*
D03*
X0124981Y0173199D02*
D03*
X0130913D02*
D03*
X0124981Y0165699D02*
D03*
X0130913D02*
D03*
X0175019Y0172801D02*
D03*
X0169087D02*
D03*
X0175019Y0182301D02*
D03*
X0169087D02*
D03*
X02325Y01135D02*
D03*
X0226568D02*
D03*
X0226481Y0120199D02*
D03*
X0232413D02*
D03*
X0070481Y0184199D02*
D03*
X0076413D02*
D03*
X0127413Y-0033801D02*
D03*
X0121481D02*
D03*
X0105113Y-0054201D02*
D03*
X0099181D02*
D03*
X0186568Y-0034D02*
D03*
X01925D02*
D03*
X0186481Y-0027301D02*
D03*
X0192413D02*
D03*
D63*
X0176103Y-0053411D02*
D03*
X0168229D02*
D03*
D70*
X00822Y-0076D02*
D03*
X01035Y0195D02*
D03*
X01215Y-0076D02*
D03*
X01545D02*
D03*
X011D02*
D03*
X0179D02*
D03*
D71*
X00722D02*
D03*
X00622D02*
D03*
X00522D02*
D03*
X-0003Y0028D02*
D03*
Y0038D02*
D03*
Y0048D02*
D03*
X0139795Y0126075D02*
D03*
X0149637D02*
D03*
X0124047D02*
D03*
X0114204D02*
D03*
X005484Y0186D02*
D03*
X00935Y0195D02*
D03*
X00835D02*
D03*
X00735D02*
D03*
X01315Y-0076D02*
D03*
X01415D02*
D03*
X01645D02*
D03*
X01D02*
D03*
X0209D02*
D03*
X0199D02*
D03*
X0189D02*
D03*
D72*
X0033Y-003184D02*
D03*
Y-001216D02*
D03*
Y-0022D02*
D03*
D73*
X-0003Y0058D02*
D03*
D74*
X0263Y00565D02*
D03*
D75*
X0262975Y0046476D02*
D03*
X026295Y0036451D02*
D03*
X0262924Y0026427D02*
D03*
D76*
X02665Y-0001126D02*
D03*
D77*
Y-0009D02*
D03*
D78*
X0044719Y014985D02*
D03*
Y012544D02*
D03*
D79*
X0151637Y0002582D02*
D03*
X0143763D02*
D03*
X0135889D02*
D03*
X0128015D02*
D03*
X0120141D02*
D03*
X0112267D02*
D03*
X0096519D02*
D03*
X0076834Y01077D02*
D03*
X0084708D02*
D03*
X0092582D02*
D03*
X0100456D02*
D03*
X010833D02*
D03*
X0116204D02*
D03*
X0124078D02*
D03*
X0131952D02*
D03*
X0139826D02*
D03*
X01477D02*
D03*
X0155574D02*
D03*
X0163448D02*
D03*
X0171322D02*
D03*
X0179196D02*
D03*
X018707D02*
D03*
X0194944D02*
D03*
X006896D02*
D03*
X0104393Y0002582D02*
D03*
X0159511D02*
D03*
X0167385D02*
D03*
D80*
X0210665Y016144D02*
D03*
D81*
X02455Y-00153D02*
D03*
X02355D02*
D03*
D82*
X00635Y0191D02*
D03*
M02*
