G04*
G04 #@! TF.GenerationSoftware,Altium Limited,Altium Designer,22.0.2 (36)*
G04*
G04 Layer_Color=8421504*
%FSTAX25Y25*%
%MOIN*%
G70*
G04*
G04 #@! TF.SameCoordinates,0D831988-8BE3-4B2D-80CC-02C8544F8A67*
G04*
G04*
G04 #@! TF.FilePolarity,Positive*
G04*
G01*
G75*
%ADD19R,0.03200X0.03200*%
%ADD20R,0.12992X0.15354*%
%ADD21R,0.03543X0.02362*%
%ADD22R,0.04921X0.02756*%
%ADD23R,0.03543X0.03150*%
%ADD24O,0.03937X0.01378*%
%ADD25R,0.03937X0.01378*%
%ADD26R,0.03150X0.03543*%
%ADD27R,0.07087X0.05315*%
%ADD28R,0.02953X0.03937*%
%ADD29R,0.03200X0.03200*%
%ADD30R,0.04920X0.02760*%
%ADD31R,0.11811X0.05906*%
G36*
X0078348Y0185774D02*
Y0182624D01*
X0078152Y0182428D01*
X0075041D01*
X0074844Y0182624D01*
Y0183522D01*
X0076341D01*
Y0184821D01*
X0074844D01*
Y0185774D01*
X0075041Y0185971D01*
X0078152D01*
X0078348Y0185774D01*
D02*
G37*
G36*
X0072089D02*
Y0184821D01*
X0070632D01*
Y0183522D01*
X0072089D01*
Y0182624D01*
X0071892Y0182428D01*
X0068742D01*
X0068545Y0182624D01*
Y0185774D01*
X0068742Y0185971D01*
X0071892D01*
X0072089Y0185774D01*
D02*
G37*
G36*
X0096572Y0184652D02*
Y0181541D01*
X0096376Y0181344D01*
X0095478D01*
Y0182841D01*
X0094179D01*
Y0181344D01*
X0093226D01*
X0093029Y0181541D01*
Y0184652D01*
X0093226Y0184848D01*
X0096376D01*
X0096572Y0184652D01*
D02*
G37*
G36*
X0089272Y0184671D02*
Y0181521D01*
X0089075Y0181324D01*
X0088122D01*
Y0182781D01*
X0086823D01*
Y0181324D01*
X0085925D01*
X0085728Y0181521D01*
Y0184671D01*
X0085925Y0184868D01*
X0089075D01*
X0089272Y0184671D01*
D02*
G37*
G36*
X0176955Y0183876D02*
Y0180726D01*
X0176758Y0180529D01*
X0173608D01*
X0173411Y0180726D01*
Y0181679D01*
X0174868D01*
Y0182978D01*
X0173411D01*
Y0183876D01*
X0173608Y0184072D01*
X0176758D01*
X0176955Y0183876D01*
D02*
G37*
G36*
X0170656D02*
Y0182978D01*
X0169159D01*
Y0181679D01*
X0170656D01*
Y0180726D01*
X0170459Y0180529D01*
X0167349D01*
X0167152Y0180726D01*
Y0183876D01*
X0167349Y0184072D01*
X0170459D01*
X0170656Y0183876D01*
D02*
G37*
G36*
X0096572Y0178392D02*
Y0175242D01*
X0096376Y0175045D01*
X0093226D01*
X0093029Y0175242D01*
Y0178392D01*
X0093226Y0178589D01*
X0094179D01*
Y0177132D01*
X0095478D01*
Y0178589D01*
X0096376D01*
X0096572Y0178392D01*
D02*
G37*
G36*
X0089272Y0178372D02*
Y0175261D01*
X0089075Y0175065D01*
X0085925D01*
X0085728Y0175261D01*
Y0178372D01*
X0085925Y0178568D01*
X0086823D01*
Y0177072D01*
X0088122D01*
Y0178568D01*
X0089075D01*
X0089272Y0178372D01*
D02*
G37*
G36*
X0132848Y0174774D02*
Y0171625D01*
X0132651Y0171428D01*
X0129541D01*
X0129344Y0171625D01*
Y0172522D01*
X0130841D01*
Y0173821D01*
X0129344D01*
Y0174774D01*
X0129541Y0174971D01*
X0132651D01*
X0132848Y0174774D01*
D02*
G37*
G36*
X0126589D02*
Y0173821D01*
X0125132D01*
Y0172522D01*
X0126589D01*
Y0171625D01*
X0126392Y0171428D01*
X0123242D01*
X0123045Y0171625D01*
Y0174774D01*
X0123242Y0174971D01*
X0126392D01*
X0126589Y0174774D01*
D02*
G37*
G36*
X0176955Y0174375D02*
Y0171226D01*
X0176758Y0171029D01*
X0173608D01*
X0173411Y0171226D01*
Y0172179D01*
X0174868D01*
Y0173478D01*
X0173411D01*
Y0174375D01*
X0173608Y0174572D01*
X0176758D01*
X0176955Y0174375D01*
D02*
G37*
G36*
X0170656D02*
Y0173478D01*
X0169159D01*
Y0172179D01*
X0170656D01*
Y0171226D01*
X0170459Y0171029D01*
X0167349D01*
X0167152Y0171226D01*
Y0174375D01*
X0167349Y0174572D01*
X0170459D01*
X0170656Y0174375D01*
D02*
G37*
G36*
X0099455Y0170876D02*
Y0167726D01*
X0099258Y0167529D01*
X0096108D01*
X0095911Y0167726D01*
Y0168679D01*
X0097368D01*
Y0169978D01*
X0095911D01*
Y0170876D01*
X0096108Y0171072D01*
X0099258D01*
X0099455Y0170876D01*
D02*
G37*
G36*
X0093155D02*
Y0169978D01*
X0091659D01*
Y0168679D01*
X0093155D01*
Y0167726D01*
X0092959Y0167529D01*
X0089849D01*
X0089652Y0167726D01*
Y0170876D01*
X0089849Y0171072D01*
X0092959D01*
X0093155Y0170876D01*
D02*
G37*
G36*
X0132848Y0167274D02*
Y0164125D01*
X0132651Y0163928D01*
X0129541D01*
X0129344Y0164125D01*
Y0165022D01*
X0130841D01*
Y0166321D01*
X0129344D01*
Y0167274D01*
X0129541Y0167471D01*
X0132651D01*
X0132848Y0167274D01*
D02*
G37*
G36*
X0126589D02*
Y0166321D01*
X0125132D01*
Y0165022D01*
X0126589D01*
Y0164125D01*
X0126392Y0163928D01*
X0123242D01*
X0123045Y0164125D01*
Y0167274D01*
X0123242Y0167471D01*
X0126392D01*
X0126589Y0167274D01*
D02*
G37*
G36*
X0099455Y0163375D02*
Y0160226D01*
X0099258Y0160029D01*
X0096108D01*
X0095911Y0160226D01*
Y0161179D01*
X0097368D01*
Y0162478D01*
X0095911D01*
Y0163375D01*
X0096108Y0163572D01*
X0099258D01*
X0099455Y0163375D01*
D02*
G37*
G36*
X0093155D02*
Y0162478D01*
X0091659D01*
Y0161179D01*
X0093155D01*
Y0160226D01*
X0092959Y0160029D01*
X0089849D01*
X0089652Y0160226D01*
Y0163375D01*
X0089849Y0163572D01*
X0092959D01*
X0093155Y0163375D01*
D02*
G37*
G36*
X0098955Y0156376D02*
Y0153226D01*
X0098758Y0153029D01*
X0095608D01*
X0095411Y0153226D01*
Y0154179D01*
X0096868D01*
Y0155478D01*
X0095411D01*
Y0156376D01*
X0095608Y0156572D01*
X0098758D01*
X0098955Y0156376D01*
D02*
G37*
G36*
X0092655D02*
Y0155478D01*
X0091159D01*
Y0154179D01*
X0092655D01*
Y0153226D01*
X0092459Y0153029D01*
X0089349D01*
X0089152Y0153226D01*
Y0156376D01*
X0089349Y0156572D01*
X0092459D01*
X0092655Y0156376D01*
D02*
G37*
G36*
X0095572Y0149652D02*
Y0146541D01*
X0095376Y0146344D01*
X0094478D01*
Y014784D01*
X0093179D01*
Y0146344D01*
X0092226D01*
X0092029Y0146541D01*
Y0149652D01*
X0092226Y0149848D01*
X0095376D01*
X0095572Y0149652D01*
D02*
G37*
G36*
Y0143392D02*
Y0140242D01*
X0095376Y0140045D01*
X0092226D01*
X0092029Y0140242D01*
Y0143392D01*
X0092226Y0143589D01*
X0093179D01*
Y0142132D01*
X0094478D01*
Y0143589D01*
X0095376D01*
X0095572Y0143392D01*
D02*
G37*
G36*
X0220072Y0122152D02*
Y0119041D01*
X0219876Y0118844D01*
X0218978D01*
Y0120341D01*
X0217679D01*
Y0118844D01*
X0216726D01*
X0216529Y0119041D01*
Y0122152D01*
X0216726Y0122348D01*
X0219876D01*
X0220072Y0122152D01*
D02*
G37*
G36*
X0234348Y0121774D02*
Y0118624D01*
X0234152Y0118428D01*
X0231041D01*
X0230844Y0118624D01*
Y0119522D01*
X0232341D01*
Y0120821D01*
X0230844D01*
Y0121774D01*
X0231041Y0121971D01*
X0234152D01*
X0234348Y0121774D01*
D02*
G37*
G36*
X0228089D02*
Y0120821D01*
X0226632D01*
Y0119522D01*
X0228089D01*
Y0118624D01*
X0227892Y0118428D01*
X0224742D01*
X0224545Y0118624D01*
Y0121774D01*
X0224742Y0121971D01*
X0227892D01*
X0228089Y0121774D01*
D02*
G37*
G36*
X0220072Y0115892D02*
Y0112742D01*
X0219876Y0112545D01*
X0216726D01*
X0216529Y0112742D01*
Y0115892D01*
X0216726Y0116089D01*
X0217679D01*
Y0114632D01*
X0218978D01*
Y0116089D01*
X0219876D01*
X0220072Y0115892D01*
D02*
G37*
G36*
X0234436Y0115075D02*
Y0111925D01*
X0234239Y0111728D01*
X0231089D01*
X0230892Y0111925D01*
Y0112878D01*
X0232349D01*
Y0114177D01*
X0230892D01*
Y0115075D01*
X0231089Y0115272D01*
X0234239D01*
X0234436Y0115075D01*
D02*
G37*
G36*
X0228136D02*
Y0114177D01*
X022664D01*
Y0112878D01*
X0228136D01*
Y0111925D01*
X022794Y0111728D01*
X0224829D01*
X0224633Y0111925D01*
Y0115075D01*
X0224829Y0115272D01*
X022794D01*
X0228136Y0115075D01*
D02*
G37*
G36*
X0194348Y-0025726D02*
Y-0028875D01*
X0194151Y-0029072D01*
X0191041D01*
X0190845Y-0028875D01*
Y-0027978D01*
X0192341D01*
Y-0026679D01*
X0190845D01*
Y-0025726D01*
X0191041Y-0025529D01*
X0194151D01*
X0194348Y-0025726D01*
D02*
G37*
G36*
X0188089D02*
Y-0026679D01*
X0186632D01*
Y-0027978D01*
X0188089D01*
Y-0028875D01*
X0187892Y-0029072D01*
X0184742D01*
X0184545Y-0028875D01*
Y-0025726D01*
X0184742Y-0025529D01*
X0187892D01*
X0188089Y-0025726D01*
D02*
G37*
G36*
X0200971Y-0026242D02*
Y-0029392D01*
X0200774Y-0029589D01*
X0199821D01*
Y-0028132D01*
X0198522D01*
Y-0029589D01*
X0197625D01*
X0197428Y-0029392D01*
Y-0026242D01*
X0197625Y-0026045D01*
X0200774D01*
X0200971Y-0026242D01*
D02*
G37*
G36*
X0116272Y-0027829D02*
Y-0030979D01*
X0116075Y-0031176D01*
X0115122D01*
Y-0029719D01*
X0113823D01*
Y-0031176D01*
X0112925D01*
X0112728Y-0030979D01*
Y-0027829D01*
X0112925Y-0027632D01*
X0116075D01*
X0116272Y-0027829D01*
D02*
G37*
G36*
X0109272D02*
Y-0030979D01*
X0109075Y-0031176D01*
X0108122D01*
Y-0029719D01*
X0106823D01*
Y-0031176D01*
X0105925D01*
X0105728Y-0030979D01*
Y-0027829D01*
X0105925Y-0027632D01*
X0109075D01*
X0109272Y-0027829D01*
D02*
G37*
G36*
X0200971Y-0032541D02*
Y-0035651D01*
X0200774Y-0035848D01*
X0197625D01*
X0197428Y-0035651D01*
Y-0032541D01*
X0197625Y-0032344D01*
X0198522D01*
Y-0033841D01*
X0199821D01*
Y-0032344D01*
X0200774D01*
X0200971Y-0032541D01*
D02*
G37*
G36*
X0116272Y-0034128D02*
Y-0037239D01*
X0116075Y-0037435D01*
X0112925D01*
X0112728Y-0037239D01*
Y-0034128D01*
X0112925Y-0033932D01*
X0113823D01*
Y-0035428D01*
X0115122D01*
Y-0033932D01*
X0116075D01*
X0116272Y-0034128D01*
D02*
G37*
G36*
X0109272D02*
Y-0037239D01*
X0109075Y-0037435D01*
X0105925D01*
X0105728Y-0037239D01*
Y-0034128D01*
X0105925Y-0033932D01*
X0106823D01*
Y-0035428D01*
X0108122D01*
Y-0033932D01*
X0109075D01*
X0109272Y-0034128D01*
D02*
G37*
G36*
X0129348Y-0032226D02*
Y-0035375D01*
X0129151Y-0035572D01*
X0126041D01*
X0125845Y-0035375D01*
Y-0034478D01*
X012734D01*
Y-0033179D01*
X0125845D01*
Y-0032226D01*
X0126041Y-0032029D01*
X0129151D01*
X0129348Y-0032226D01*
D02*
G37*
G36*
X0123089D02*
Y-0033179D01*
X0121632D01*
Y-0034478D01*
X0123089D01*
Y-0035375D01*
X0122892Y-0035572D01*
X0119742D01*
X0119545Y-0035375D01*
Y-0032226D01*
X0119742Y-0032029D01*
X0122892D01*
X0123089Y-0032226D01*
D02*
G37*
G36*
X0194436Y-0032425D02*
Y-0035575D01*
X0194239Y-0035772D01*
X0191128D01*
X0190932Y-0035575D01*
Y-0034677D01*
X0192428D01*
Y-0033378D01*
X0190932D01*
Y-0032425D01*
X0191128Y-0032228D01*
X0194239D01*
X0194436Y-0032425D01*
D02*
G37*
G36*
X0188176D02*
Y-0033378D01*
X0186719D01*
Y-0034677D01*
X0188176D01*
Y-0035575D01*
X0187979Y-0035772D01*
X0184829D01*
X0184632Y-0035575D01*
Y-0032425D01*
X0184829Y-0032228D01*
X0187979D01*
X0188176Y-0032425D01*
D02*
G37*
G36*
X0125371Y-0039242D02*
Y-0042392D01*
X0125174Y-0042589D01*
X0124221D01*
Y-0041132D01*
X0122922D01*
Y-0042589D01*
X0122025D01*
X0121828Y-0042392D01*
Y-0039242D01*
X0122025Y-0039045D01*
X0125174D01*
X0125371Y-0039242D01*
D02*
G37*
G36*
Y-0045541D02*
Y-0048651D01*
X0125174Y-0048848D01*
X0122025D01*
X0121828Y-0048651D01*
Y-0045541D01*
X0122025Y-0045344D01*
X0122922D01*
Y-0046841D01*
X0124221D01*
Y-0045344D01*
X0125174D01*
X0125371Y-0045541D01*
D02*
G37*
G36*
X0101955Y-0045625D02*
Y-0048774D01*
X0101758Y-0048971D01*
X0098608D01*
X0098411Y-0048774D01*
Y-0047821D01*
X0099868D01*
Y-0046522D01*
X0098411D01*
Y-0045625D01*
X0098608Y-0045428D01*
X0101758D01*
X0101955Y-0045625D01*
D02*
G37*
G36*
X0095656D02*
Y-0046522D01*
X009416D01*
Y-0047821D01*
X0095656D01*
Y-0048774D01*
X0095459Y-0048971D01*
X0092348D01*
X0092152Y-0048774D01*
Y-0045625D01*
X0092348Y-0045428D01*
X0095459D01*
X0095656Y-0045625D01*
D02*
G37*
G36*
X0107048Y-0052626D02*
Y-0055775D01*
X0106851Y-0055972D01*
X0103741D01*
X0103544Y-0055775D01*
Y-0054878D01*
X0105041D01*
Y-0053579D01*
X0103544D01*
Y-0052626D01*
X0103741Y-0052429D01*
X0106851D01*
X0107048Y-0052626D01*
D02*
G37*
G36*
X0100789D02*
Y-0053579D01*
X0099332D01*
Y-0054878D01*
X0100789D01*
Y-0055775D01*
X0100592Y-0055972D01*
X0097442D01*
X0097245Y-0055775D01*
Y-0052626D01*
X0097442Y-0052429D01*
X0100592D01*
X0100789Y-0052626D01*
D02*
G37*
G36*
X0178859Y-0050891D02*
Y-005593D01*
X0178663Y-0056127D01*
X0174135D01*
X0173938Y-005593D01*
X0173918Y-0054316D01*
X017569D01*
Y-0052544D01*
X0173958D01*
X0173938Y-0050891D01*
X0174135Y-0050694D01*
X0178663D01*
X0178859Y-0050891D01*
D02*
G37*
G36*
X0170395D02*
X0170395Y-0052544D01*
X0168643D01*
Y-0054316D01*
X0170375D01*
X0170395Y-005593D01*
X0170198Y-0056127D01*
X016567D01*
X0165473Y-005593D01*
Y-0050891D01*
X016567Y-0050694D01*
X0170198D01*
X0170395Y-0050891D01*
D02*
G37*
G36*
X0139772Y-0054829D02*
Y-0057979D01*
X0139575Y-0058176D01*
X0138622D01*
Y-0056719D01*
X0137323D01*
Y-0058176D01*
X0136425D01*
X0136228Y-0057979D01*
Y-0054829D01*
X0136425Y-0054632D01*
X0139575D01*
X0139772Y-0054829D01*
D02*
G37*
G36*
X0115172Y-0056329D02*
Y-005944D01*
X0114975Y-0059636D01*
X0114077D01*
Y-005814D01*
X0112778D01*
Y-0059636D01*
X0111825D01*
X0111628Y-005944D01*
Y-0056329D01*
X0111825Y-0056133D01*
X0114975D01*
X0115172Y-0056329D01*
D02*
G37*
G36*
X0094371Y-0058942D02*
Y-0062092D01*
X0094174Y-0062289D01*
X0093221D01*
Y-0060832D01*
X0091922D01*
Y-0062289D01*
X0091025D01*
X0090828Y-0062092D01*
Y-0058942D01*
X0091025Y-0058745D01*
X0094174D01*
X0094371Y-0058942D01*
D02*
G37*
G36*
X0139772Y-0061128D02*
Y-0064239D01*
X0139575Y-0064435D01*
X0136425D01*
X0136228Y-0064239D01*
Y-0061128D01*
X0136425Y-0060932D01*
X0137323D01*
Y-0062428D01*
X0138622D01*
Y-0060932D01*
X0139575D01*
X0139772Y-0061128D01*
D02*
G37*
G36*
X0115172Y-0062589D02*
Y-0065739D01*
X0114975Y-0065936D01*
X0111825D01*
X0111628Y-0065739D01*
Y-0062589D01*
X0111825Y-0062392D01*
X0112778D01*
Y-0063849D01*
X0114077D01*
Y-0062392D01*
X0114975D01*
X0115172Y-0062589D01*
D02*
G37*
G36*
X0094371Y-0065241D02*
Y-0068352D01*
X0094174Y-0068548D01*
X0091025D01*
X0090828Y-0068352D01*
Y-0065241D01*
X0091025Y-0065044D01*
X0091922D01*
Y-006654D01*
X0093221D01*
Y-0065044D01*
X0094174D01*
X0094371Y-0065241D01*
D02*
G37*
D19*
X01034Y-0069224D02*
D03*
X009966Y-0059776D02*
D03*
X010714D02*
D03*
X022576Y0125776D02*
D03*
X023324D02*
D03*
X02295Y0135224D02*
D03*
X011474Y-0042276D02*
D03*
X010726D02*
D03*
X0111Y-0051724D02*
D03*
X019324Y-0041276D02*
D03*
X018576D02*
D03*
X01895Y-0050724D02*
D03*
D20*
X0149553Y0170364D02*
D03*
D21*
X0160369Y0162864D02*
D03*
Y0167865D02*
D03*
Y0172864D02*
D03*
Y0177865D02*
D03*
X0138737D02*
D03*
Y0172864D02*
D03*
Y0167865D02*
D03*
Y0162864D02*
D03*
D22*
X0101579Y018374D02*
D03*
Y017626D02*
D03*
X0111421Y018D02*
D03*
X0101079Y014874D02*
D03*
Y014126D02*
D03*
X0110921Y0145D02*
D03*
D23*
X01205Y0196012D02*
D03*
Y01905D02*
D03*
X0141719Y-0041277D02*
D03*
Y-0046789D02*
D03*
X0133719Y-0041277D02*
D03*
Y-0046789D02*
D03*
X01585Y-00585D02*
D03*
Y-0064012D02*
D03*
D24*
X0145924Y0189914D02*
D03*
Y0187355D02*
D03*
Y0184796D02*
D03*
X0153404Y0189914D02*
D03*
Y0187355D02*
D03*
D25*
Y0184796D02*
D03*
D26*
X0125211Y0181781D02*
D03*
X0130723D02*
D03*
X0130789Y0157719D02*
D03*
X0125277D02*
D03*
X0151789Y0154719D02*
D03*
X0146277D02*
D03*
X0174789Y0163719D02*
D03*
X0169277D02*
D03*
X0169338Y0155281D02*
D03*
X017485D02*
D03*
X0169488Y01475D02*
D03*
X0175D02*
D03*
X0169211Y0139781D02*
D03*
X0174723D02*
D03*
X0094188Y-00396D02*
D03*
X00997D02*
D03*
X0150723Y-0062719D02*
D03*
X0145211D02*
D03*
X0206789Y-0033797D02*
D03*
X0212301D02*
D03*
D27*
X0166342Y013D02*
D03*
X0176657D02*
D03*
D28*
X0209259Y0125831D02*
D03*
Y0116599D02*
D03*
D29*
X0131724Y-006324D02*
D03*
Y-005576D02*
D03*
X0122276Y-00595D02*
D03*
D30*
X0159497Y-0047825D02*
D03*
X0149657Y-0051565D02*
D03*
Y-0044085D02*
D03*
D31*
X02267Y-00527D02*
D03*
X02026D02*
D03*
X01644Y-00223D02*
D03*
X01403D02*
D03*
M02*
