G04*
G04 #@! TF.GenerationSoftware,Altium Limited,Altium Designer,22.0.2 (36)*
G04*
G04 Layer_Color=255*
%FSTAX25Y25*%
%MOIN*%
G70*
G04*
G04 #@! TF.SameCoordinates,0D831988-8BE3-4B2D-80CC-02C8544F8A67*
G04*
G04*
G04 #@! TF.FilePolarity,Positive*
G04*
G01*
G75*
%ADD19R,0.03200X0.03200*%
%ADD22R,0.04921X0.02756*%
%ADD23R,0.03543X0.03150*%
%ADD26R,0.03150X0.03543*%
%ADD31R,0.11811X0.05906*%
%ADD61R,0.03402X0.03175*%
%ADD62R,0.03175X0.03402*%
%ADD63R,0.04459X0.05421*%
%ADD70R,0.06000X0.06000*%
%ADD71C,0.06000*%
%ADD72R,0.08590X0.04770*%
%ADD73R,0.06000X0.06000*%
%ADD74R,0.07087X0.06299*%
%ADD75O,0.07087X0.06299*%
%ADD76R,0.05400X0.05400*%
%ADD77C,0.05400*%
%ADD78C,0.09843*%
%ADD79O,0.03937X0.06299*%
%ADD80C,0.07874*%
%ADD81C,0.06299*%
%ADD82P,0.08485X4X255.0*%
%ADD86R,0.05906X0.11811*%
%ADD87R,0.03937X0.07874*%
%ADD88R,0.03150X0.03937*%
%ADD89O,0.01102X0.05906*%
%ADD90O,0.05906X0.01102*%
%ADD91R,0.01575X0.04331*%
%ADD92R,0.03937X0.01654*%
%ADD93R,0.12598X0.12598*%
%ADD94O,0.03937X0.00984*%
%ADD95O,0.00984X0.03937*%
%ADD96O,0.07874X0.03150*%
%ADD97R,0.04331X0.02362*%
%ADD98R,0.03937X0.03937*%
%ADD99O,0.09843X0.02756*%
%ADD100O,0.02756X0.09843*%
%ADD101R,0.06693X0.04134*%
%ADD102R,0.02756X0.04921*%
%ADD103O,0.08661X0.02756*%
D19*
X018056Y-0048176D02*
D03*
X018804D02*
D03*
X01843Y-0057624D02*
D03*
D22*
X0089579Y01265D02*
D03*
X0099421Y012276D02*
D03*
Y013024D02*
D03*
D23*
X0095219Y-0060311D02*
D03*
Y-0065823D02*
D03*
X0068781Y-0045777D02*
D03*
Y-0051289D02*
D03*
X0075281Y-0045777D02*
D03*
Y-0051289D02*
D03*
X0095281Y-0017277D02*
D03*
Y-0022789D02*
D03*
X00475Y-00455D02*
D03*
Y-0039988D02*
D03*
X0077781Y0167711D02*
D03*
Y0173223D02*
D03*
X0157281Y0096723D02*
D03*
Y0091211D02*
D03*
X01905Y0053488D02*
D03*
Y0059D02*
D03*
X0190719Y0067277D02*
D03*
Y0072789D02*
D03*
D26*
X0183023Y-0064681D02*
D03*
X0177511D02*
D03*
X0092223Y-0037781D02*
D03*
X0086711D02*
D03*
X0062321Y-0059336D02*
D03*
X0067833D02*
D03*
X00365Y-00445D02*
D03*
X0030988D02*
D03*
X0097777Y0016781D02*
D03*
X0103289D02*
D03*
X0084Y00125D02*
D03*
X0078488D02*
D03*
X0036223Y-0000781D02*
D03*
X0030711D02*
D03*
X0051Y0179D02*
D03*
X0045488D02*
D03*
X0185223Y0042219D02*
D03*
X0179711D02*
D03*
X0177677Y0081281D02*
D03*
X0183189D02*
D03*
X0232789Y0083281D02*
D03*
X0227277D02*
D03*
X0179711Y0026219D02*
D03*
X0185223D02*
D03*
D31*
X01071Y-00168D02*
D03*
X01312D02*
D03*
D61*
X0199801Y-0039913D02*
D03*
Y-0033981D02*
D03*
X0221301Y-0039913D02*
D03*
Y-0033981D02*
D03*
X0174699Y-0041487D02*
D03*
Y-0047419D02*
D03*
X0061801Y-0051913D02*
D03*
Y-0045981D02*
D03*
X0082301Y-0051913D02*
D03*
Y-0045981D02*
D03*
X0045199Y-0025587D02*
D03*
Y-0031519D02*
D03*
X0055199Y-0032587D02*
D03*
Y-0038519D02*
D03*
X0082199Y0128913D02*
D03*
Y0122981D02*
D03*
X0077801Y0160519D02*
D03*
Y0154587D02*
D03*
X0147199Y0097413D02*
D03*
Y0091481D02*
D03*
X02085Y0074932D02*
D03*
Y0069D02*
D03*
X0243819Y-0002957D02*
D03*
Y0002975D02*
D03*
X0251319Y-0002957D02*
D03*
Y0002975D02*
D03*
X0213801Y-0033981D02*
D03*
Y-0039913D02*
D03*
X0206801D02*
D03*
Y-0033981D02*
D03*
D62*
X0181487Y-0042001D02*
D03*
X0187419D02*
D03*
X0081857Y-005892D02*
D03*
X0075925D02*
D03*
X0045068Y-0019D02*
D03*
X0051D02*
D03*
X00525Y-0001D02*
D03*
X0046568D02*
D03*
X0018087Y0024199D02*
D03*
X0024019D02*
D03*
X00365Y0024D02*
D03*
X0042432D02*
D03*
X0019087Y0079199D02*
D03*
X0025019D02*
D03*
X0035087Y0078699D02*
D03*
X0041019D02*
D03*
X00975Y01385D02*
D03*
X0091568D02*
D03*
X0063068Y01545D02*
D03*
X0069D02*
D03*
X0063068Y0179416D02*
D03*
X0069D02*
D03*
X0045068Y0171D02*
D03*
X0051D02*
D03*
X0160981Y0123301D02*
D03*
X0166913D02*
D03*
X0245068Y0011D02*
D03*
X0251D02*
D03*
X0226019Y0050699D02*
D03*
X0220087D02*
D03*
X0235Y00505D02*
D03*
X0240932D02*
D03*
X0179481Y0033801D02*
D03*
X0185413D02*
D03*
D63*
X0229521Y-005151D02*
D03*
X0221648D02*
D03*
X0135897Y-0045911D02*
D03*
X0143771D02*
D03*
X0135897Y-0035411D02*
D03*
X0143771D02*
D03*
D70*
X00822Y-0076D02*
D03*
X01035Y0195D02*
D03*
X01215Y-0076D02*
D03*
X01545D02*
D03*
X011D02*
D03*
X0179D02*
D03*
D71*
X00722D02*
D03*
X00622D02*
D03*
X00522D02*
D03*
X-0003Y0028D02*
D03*
Y0038D02*
D03*
Y0048D02*
D03*
X0139795Y0126075D02*
D03*
X0149637D02*
D03*
X0124047D02*
D03*
X0114204D02*
D03*
X005484Y0186D02*
D03*
X00935Y0195D02*
D03*
X00835D02*
D03*
X00735D02*
D03*
X01315Y-0076D02*
D03*
X01415D02*
D03*
X01645D02*
D03*
X01D02*
D03*
X0209D02*
D03*
X0199D02*
D03*
X0189D02*
D03*
D72*
X0033Y-003184D02*
D03*
Y-001216D02*
D03*
Y-0022D02*
D03*
D73*
X-0003Y0058D02*
D03*
D74*
X0263Y00565D02*
D03*
D75*
X0262975Y0046476D02*
D03*
X026295Y0036451D02*
D03*
X0262924Y0026427D02*
D03*
D76*
X02665Y-0001126D02*
D03*
D77*
Y-0009D02*
D03*
D78*
X0044719Y014985D02*
D03*
Y012544D02*
D03*
D79*
X0151637Y0002582D02*
D03*
X0143763D02*
D03*
X0135889D02*
D03*
X0128015D02*
D03*
X0120141D02*
D03*
X0112267D02*
D03*
X0096519D02*
D03*
X0076834Y01077D02*
D03*
X0084708D02*
D03*
X0092582D02*
D03*
X0100456D02*
D03*
X010833D02*
D03*
X0116204D02*
D03*
X0124078D02*
D03*
X0131952D02*
D03*
X0139826D02*
D03*
X01477D02*
D03*
X0155574D02*
D03*
X0163448D02*
D03*
X0171322D02*
D03*
X0179196D02*
D03*
X018707D02*
D03*
X0194944D02*
D03*
X006896D02*
D03*
X0104393Y0002582D02*
D03*
X0159511D02*
D03*
X0167385D02*
D03*
D80*
X0210665Y016144D02*
D03*
D81*
X02455Y-00153D02*
D03*
X02355D02*
D03*
D82*
X00635Y0191D02*
D03*
D86*
X01142Y-00622D02*
D03*
Y-00381D02*
D03*
D87*
X0204695Y0147D02*
D03*
X0216506D02*
D03*
D88*
X02106Y0153102D02*
D03*
D89*
X0153874Y0025169D02*
D03*
X0116472D02*
D03*
Y00795D02*
D03*
X0153874D02*
D03*
X0151906Y0025169D02*
D03*
X0149937D02*
D03*
X0147968D02*
D03*
X0146D02*
D03*
X0144032D02*
D03*
X0142063D02*
D03*
X0140094D02*
D03*
X0138126D02*
D03*
X0136158D02*
D03*
X0134189D02*
D03*
X013222D02*
D03*
X0130252D02*
D03*
X0128284D02*
D03*
X0126315D02*
D03*
X0124346D02*
D03*
X0122378D02*
D03*
X0120409D02*
D03*
X0118441D02*
D03*
Y00795D02*
D03*
X0120409D02*
D03*
X0122378D02*
D03*
X0124346D02*
D03*
X0126315D02*
D03*
X0128284D02*
D03*
X0130252D02*
D03*
X013222D02*
D03*
X0134189D02*
D03*
X0136158D02*
D03*
X0138126D02*
D03*
X0140094D02*
D03*
X0142063D02*
D03*
X0144032D02*
D03*
X0146D02*
D03*
X0147968D02*
D03*
X0149937D02*
D03*
X0151906D02*
D03*
D90*
X0162339Y0033634D02*
D03*
X0108008D02*
D03*
Y0071035D02*
D03*
X0162339D02*
D03*
Y0069067D02*
D03*
Y0067098D02*
D03*
Y006513D02*
D03*
Y0063161D02*
D03*
Y0061193D02*
D03*
Y0059224D02*
D03*
Y0057256D02*
D03*
Y0055287D02*
D03*
Y0053319D02*
D03*
Y005135D02*
D03*
Y0049382D02*
D03*
Y0047413D02*
D03*
Y0045445D02*
D03*
Y0043476D02*
D03*
Y0041508D02*
D03*
Y0039539D02*
D03*
Y0037571D02*
D03*
Y0035602D02*
D03*
X0108008D02*
D03*
Y0037571D02*
D03*
Y0039539D02*
D03*
Y0041508D02*
D03*
Y0043476D02*
D03*
Y0045445D02*
D03*
Y0047413D02*
D03*
Y0049382D02*
D03*
Y005135D02*
D03*
Y0053319D02*
D03*
Y0055287D02*
D03*
Y0057256D02*
D03*
Y0059224D02*
D03*
Y0061193D02*
D03*
Y0063161D02*
D03*
Y006513D02*
D03*
Y0067098D02*
D03*
Y0069067D02*
D03*
D91*
X0212258Y-0048488D02*
D03*
X0208518D02*
D03*
X0204778D02*
D03*
Y-0059512D02*
D03*
X0208518D02*
D03*
X0212258D02*
D03*
D92*
X0162961Y-00618D02*
D03*
Y-0059241D02*
D03*
Y-0064359D02*
D03*
X0170639D02*
D03*
Y-00618D02*
D03*
Y-0059241D02*
D03*
D93*
X0072516Y-001387D02*
D03*
D94*
X0061886Y-002076D02*
D03*
Y-0018791D02*
D03*
Y-0016823D02*
D03*
Y-0014854D02*
D03*
Y-0012886D02*
D03*
Y-0010917D02*
D03*
Y-0008949D02*
D03*
Y-000698D02*
D03*
X0083146Y-000698D02*
D03*
Y-0008949D02*
D03*
Y-0010917D02*
D03*
Y-0012886D02*
D03*
Y-0014854D02*
D03*
Y-0016823D02*
D03*
Y-0018791D02*
D03*
Y-002076D02*
D03*
D95*
X0065626Y-000324D02*
D03*
X0067594D02*
D03*
X0069563D02*
D03*
X0071531D02*
D03*
X00735D02*
D03*
X0075468D02*
D03*
X0077437D02*
D03*
X0079405D02*
D03*
Y-00245D02*
D03*
X0077437D02*
D03*
X0075468D02*
D03*
X00735D02*
D03*
X0071531D02*
D03*
X0069563D02*
D03*
X0067594D02*
D03*
X0065626D02*
D03*
D96*
X0041311Y00345D02*
D03*
Y00445D02*
D03*
X0017689D02*
D03*
Y00345D02*
D03*
X0041311Y00585D02*
D03*
Y00685D02*
D03*
X0017689D02*
D03*
Y00585D02*
D03*
D97*
X005868Y0171022D02*
D03*
Y0167282D02*
D03*
Y0163542D02*
D03*
X006931D02*
D03*
Y0167282D02*
D03*
Y0171022D02*
D03*
D98*
X0159687Y0158187D02*
D03*
Y0165273D02*
D03*
Y017236D02*
D03*
X01526Y0179446D02*
D03*
X0145513D02*
D03*
X0138427D02*
D03*
X013134D02*
D03*
X0124254Y017236D02*
D03*
Y0165273D02*
D03*
Y0158187D02*
D03*
X013134Y01511D02*
D03*
X0138427D02*
D03*
X0145513D02*
D03*
X01526D02*
D03*
D99*
X0175828Y014795D02*
D03*
Y0152281D02*
D03*
Y0156612D02*
D03*
Y0160942D02*
D03*
Y0165273D02*
D03*
Y0169604D02*
D03*
Y0173935D02*
D03*
Y0178265D02*
D03*
Y0182596D02*
D03*
X0108112D02*
D03*
Y0178265D02*
D03*
Y0173935D02*
D03*
Y0169604D02*
D03*
Y0165273D02*
D03*
Y0160942D02*
D03*
Y0156612D02*
D03*
Y0152281D02*
D03*
Y014795D02*
D03*
D100*
X0167954Y0195391D02*
D03*
X0163624D02*
D03*
X0159293D02*
D03*
X0154962D02*
D03*
X0150631D02*
D03*
X0146301D02*
D03*
X014197D02*
D03*
X0137639D02*
D03*
X0133309D02*
D03*
X0128978D02*
D03*
X0124647D02*
D03*
X0120317D02*
D03*
X0115986D02*
D03*
Y0135155D02*
D03*
X0120317D02*
D03*
X0124647D02*
D03*
X0128978D02*
D03*
X0133309D02*
D03*
X0137639D02*
D03*
X014197D02*
D03*
X0146301D02*
D03*
X0150631D02*
D03*
X0154962D02*
D03*
X0159293D02*
D03*
X0163624D02*
D03*
X0167954D02*
D03*
D101*
X0180808Y0068011D02*
D03*
Y0057972D02*
D03*
D102*
X0231819Y0007465D02*
D03*
X0228079Y-0002378D02*
D03*
X0235559D02*
D03*
D103*
X0220163Y0059674D02*
D03*
Y0064674D02*
D03*
Y0069674D02*
D03*
Y0074674D02*
D03*
X0239061Y0059674D02*
D03*
Y0064674D02*
D03*
Y0069674D02*
D03*
Y0074674D02*
D03*
M02*
