G04*
G04 #@! TF.GenerationSoftware,Altium Limited,Altium Designer,22.0.2 (36)*
G04*
G04 Layer_Color=128*
%FSTAX25Y25*%
%MOIN*%
G70*
G04*
G04 #@! TF.SameCoordinates,0D831988-8BE3-4B2D-80CC-02C8544F8A67*
G04*
G04*
G04 #@! TF.FilePolarity,Positive*
G04*
G01*
G75*
%ADD129C,0.00200*%
D129*
X0183351Y-0076D02*
X0179808D01*
X0181579Y-0077772D02*
Y-0074228D01*
X0193351Y-0076D02*
X0189808D01*
X0191579Y-0077772D02*
Y-0074228D01*
X0203351Y-0076D02*
X0199808D01*
X0201579Y-0077772D02*
Y-0074228D01*
X0213351Y-0076D02*
X0209808D01*
X0211579Y-0077772D02*
Y-0074228D01*
X023238Y-003184D02*
X022918D01*
X023078Y-003344D02*
Y-003024D01*
X023238Y-001216D02*
X022918D01*
X023078Y-001376D02*
Y-001056D01*
X023238Y-0022D02*
X022918D01*
X023078Y-00236D02*
Y-00204D01*
X0268551Y0028D02*
X0265008D01*
X0266779Y0026228D02*
Y0029772D01*
X0268551Y0038D02*
X0265008D01*
X0266779Y0036228D02*
Y0039772D01*
X0268551Y0048D02*
X0265008D01*
X0266779Y0046228D02*
Y0049772D01*
X0268551Y0058D02*
X0265008D01*
X0266779Y0056228D02*
Y0059772D01*
X0002354Y00565D02*
X-0000795D01*
X0000779Y0054925D02*
Y0058075D01*
X0002379Y0046476D02*
X-000077D01*
X0000805Y0044901D02*
Y004805D01*
X0002405Y0036451D02*
X-0000745D01*
X000083Y0034876D02*
Y0038026D01*
X000243Y0026427D02*
X-000072D01*
X0000855Y0024852D02*
Y0028002D01*
X-0001146Y-0001126D02*
X-0004295D01*
X-000272Y-0002701D02*
Y0000449D01*
X-0001146Y-0009D02*
X-0004295D01*
X-000272Y-0010575D02*
Y-0007425D01*
X0125585Y0126075D02*
X0122385D01*
X0123985Y0124475D02*
Y0127675D01*
X0115742Y0126075D02*
X0112542D01*
X0114142Y0124475D02*
Y0127675D01*
X0141333Y0126075D02*
X0138133D01*
X0139733Y0124475D02*
Y0127675D01*
X0151175Y0126075D02*
X0147975D01*
X0149575Y0124475D02*
Y0127675D01*
X0221423Y014985D02*
X0216698D01*
X0219061Y0147487D02*
Y0152212D01*
X0221423Y012544D02*
X0216698D01*
X0219061Y0123078D02*
Y0127802D01*
X0113717Y0002582D02*
X0110568D01*
X0112143Y0001007D02*
Y0004157D01*
X0121591Y0002582D02*
X0118442D01*
X0120017Y0001007D02*
Y0004157D01*
X0129465Y0002582D02*
X0126316D01*
X0127891Y0001007D02*
Y0004157D01*
X0137339Y0002582D02*
X013419D01*
X0135765Y0001007D02*
Y0004157D01*
X0145213Y0002582D02*
X0142064D01*
X0143639Y0001007D02*
Y0004157D01*
X0153087Y0002582D02*
X0149938D01*
X0151513Y0001007D02*
Y0004157D01*
X0168835Y0002582D02*
X0165686D01*
X0167261Y0001007D02*
Y0004157D01*
X0188521Y01077D02*
X0185371D01*
X0186946Y0106125D02*
Y0109275D01*
X0180647Y01077D02*
X0177497D01*
X0179072Y0106125D02*
Y0109275D01*
X0172773Y01077D02*
X0169623D01*
X0171198Y0106125D02*
Y0109275D01*
X0164898Y01077D02*
X0161749D01*
X0163324Y0106125D02*
Y0109275D01*
X0157024Y01077D02*
X0153875D01*
X015545Y0106125D02*
Y0109275D01*
X014915Y01077D02*
X0146001D01*
X0147576Y0106125D02*
Y0109275D01*
X0141276Y01077D02*
X0138127D01*
X0139702Y0106125D02*
Y0109275D01*
X0133402Y01077D02*
X0130253D01*
X0131828Y0106125D02*
Y0109275D01*
X0125528Y01077D02*
X0122379D01*
X0123954Y0106125D02*
Y0109275D01*
X0117654Y01077D02*
X0114505D01*
X0116079Y0106125D02*
Y0109275D01*
X010978Y01077D02*
X0106631D01*
X0108205Y0106125D02*
Y0109275D01*
X0101906Y01077D02*
X0098757D01*
X0100331Y0106125D02*
Y0109275D01*
X0094032Y01077D02*
X0090883D01*
X0092457Y0106125D02*
Y0109275D01*
X0086158Y01077D02*
X0083009D01*
X0084583Y0106125D02*
Y0109275D01*
X0078284Y01077D02*
X0075135D01*
X007671Y0106125D02*
Y0109275D01*
X007041Y01077D02*
X0067261D01*
X0068836Y0106125D02*
Y0109275D01*
X0196395Y01077D02*
X0193245D01*
X019482Y0106125D02*
Y0109275D01*
X0160961Y0002582D02*
X0157812D01*
X0159387Y0001007D02*
Y0004157D01*
X0105843Y0002582D02*
X0102694D01*
X0104269Y0001007D02*
Y0004157D01*
X0097969Y0002582D02*
X009482D01*
X0096394Y0001007D02*
Y0004157D01*
X0055476Y016144D02*
X0050752D01*
X0053114Y0159078D02*
Y0163802D01*
X0019854Y-00153D02*
X0016705D01*
X001828Y-0016875D02*
Y-0013725D01*
X0029854Y-00153D02*
X0026705D01*
X002828Y-0016875D02*
Y-0013725D01*
X0210711Y0186D02*
X0207168D01*
X020894Y0184228D02*
Y0187772D01*
X0202051Y0191D02*
X0198508D01*
X0200279Y0189228D02*
Y0192772D01*
X0162051Y0195D02*
X0158508D01*
X016028Y0193228D02*
Y0196772D01*
X0172051Y0195D02*
X0168508D01*
X017028Y0193228D02*
Y0196772D01*
X0182051Y0195D02*
X0178508D01*
X018028Y0193228D02*
Y0196772D01*
X0192051Y0195D02*
X0188508D01*
X0190279Y0193228D02*
Y0196772D01*
X0144051Y-0076D02*
X0140508D01*
X014228Y-0077772D02*
Y-0074228D01*
X0134051Y-0076D02*
X0130508D01*
X013228Y-0077772D02*
Y-0074228D01*
X0124051Y-0076D02*
X0120508D01*
X012228Y-0077772D02*
Y-0074228D01*
X0111051Y-0076D02*
X0107508D01*
X010928Y-0077772D02*
Y-0074228D01*
X0101051Y-0076D02*
X0097508D01*
X0099279Y-0077772D02*
Y-0074228D01*
X0165551Y-0076D02*
X0162008D01*
X0163779Y-0077772D02*
Y-0074228D01*
X0155551Y-0076D02*
X0152008D01*
X0153779Y-0077772D02*
Y-0074228D01*
X0056551Y-0076D02*
X0053008D01*
X0054779Y-0077772D02*
Y-0074228D01*
X0066551Y-0076D02*
X0063008D01*
X006478Y-0077772D02*
Y-0074228D01*
X0076551Y-0076D02*
X0073008D01*
X0074779Y-0077772D02*
Y-0074228D01*
X0086551Y-0076D02*
X0083008D01*
X008478Y-0077772D02*
Y-0074228D01*
X014597Y-00578D02*
X0144789D01*
X0145379Y-005839D02*
Y-0057209D01*
X016937Y-0071D02*
X0168189D01*
X016878Y-0071591D02*
Y-007041D01*
X017187Y-00781D02*
X0170689D01*
X017128Y-007869D02*
Y-0077509D01*
X017337Y-00734D02*
X0172189D01*
X017278Y-007399D02*
Y-0072809D01*
X017257Y-00431D02*
X0171389D01*
X0171979Y-0043691D02*
Y-0042509D01*
X014487Y-00497D02*
X0143689D01*
X014428Y-0050291D02*
Y-0049109D01*
X014177Y-00555D02*
X0140589D01*
X014118Y-005609D02*
Y-0054909D01*
X0169571Y-0054201D02*
X016839D01*
X016898Y-0054791D02*
Y-005361D01*
X013387Y-00676D02*
X0132689D01*
X013328Y-006819D02*
Y-006701D01*
X012557Y-00676D02*
X0124389D01*
X0124979Y-006819D02*
Y-006701D01*
X015327Y-0048D02*
X0152089D01*
X015268Y-0048591D02*
Y-0047409D01*
X014587Y-0063D02*
X0144689D01*
X014528Y-0063591D02*
Y-006241D01*
X002727Y01542D02*
X0026089D01*
X002668Y0153609D02*
Y0154791D01*
X021037Y-007D02*
X0209189D01*
X020978Y-0070591D02*
Y-006941D01*
X006887Y00645D02*
X0067689D01*
X0068279Y006391D02*
Y0065091D01*
X007637Y00815D02*
X0075189D01*
X0075779Y008091D02*
Y0082091D01*
X006837Y00705D02*
X0067189D01*
X0067779Y006991D02*
Y0071091D01*
X0094906Y0071035D02*
X0093724D01*
X0094315Y0070445D02*
Y0071626D01*
X008187Y0074D02*
X0080689D01*
X0081279Y0073409D02*
Y007459D01*
X007737Y-00375D02*
X0076189D01*
X007678Y-0038091D02*
Y-0036909D01*
X008337Y-0036D02*
X0082189D01*
X008278Y-0036591D02*
Y-0035409D01*
X022287Y00495D02*
X0221689D01*
X022228Y0048909D02*
Y0050091D01*
X023137Y00285D02*
X0230189D01*
X023078Y0027909D02*
Y0029091D01*
X016237Y00805D02*
X0161189D01*
X0161779Y0079909D02*
Y008109D01*
X015287Y008D02*
X0151689D01*
X0152279Y0079409D02*
Y008059D01*
X017537Y00545D02*
X0174189D01*
X0174779Y0053909D02*
Y005509D01*
X017937Y0058D02*
X0178189D01*
X0178779Y005741D02*
Y0058591D01*
X024687Y0089D02*
X0245689D01*
X024628Y008841D02*
Y0089591D01*
X023687Y0089D02*
X0235689D01*
X023628Y008841D02*
Y0089591D01*
X026687Y00675D02*
X0265689D01*
X026628Y0066909D02*
Y006809D01*
X026637Y00755D02*
X0265189D01*
X0265779Y007491D02*
Y0076091D01*
X026587Y00835D02*
X0264689D01*
X026528Y008291D02*
Y0084091D01*
X026987Y0102D02*
X0268689D01*
X026928Y0101409D02*
Y0102591D01*
X023887Y00975D02*
X0237689D01*
X023828Y0096909D02*
Y009809D01*
X023187Y01025D02*
X0230689D01*
X0231279Y0101909D02*
Y0103091D01*
X022937Y0109D02*
X0228189D01*
X022878Y0108409D02*
Y0109591D01*
X024887Y01275D02*
X0247689D01*
X024828Y0126909D02*
Y0128091D01*
X026387Y01105D02*
X0262689D01*
X026328Y0109909D02*
Y0111091D01*
X025637Y01305D02*
X0255189D01*
X025578Y0129909D02*
Y0131091D01*
X023587Y0115D02*
X0234689D01*
X0235279Y0114409D02*
Y0115591D01*
X026487Y0092D02*
X0263689D01*
X026428Y0091409D02*
Y009259D01*
X026687Y01295D02*
X0265689D01*
X026628Y0128909D02*
Y0130091D01*
X025437Y0111D02*
X0253189D01*
X025378Y0110409D02*
Y0111591D01*
X024437Y01215D02*
X0243189D01*
X0243779Y0120909D02*
Y0122091D01*
X022137Y0073D02*
X0220189D01*
X0220779Y0072409D02*
Y007359D01*
X022187Y00645D02*
X0220689D01*
X022128Y006391D02*
Y0065091D01*
X022287Y00075D02*
X0221689D01*
X022228Y0006909D02*
Y0008091D01*
X021087Y00055D02*
X0209689D01*
X0210279Y0004909D02*
Y0006091D01*
X022687Y-0006D02*
X0225689D01*
X0226279Y-0006591D02*
Y-0005409D01*
X021837Y-00055D02*
X0217189D01*
X0217779Y-0006091D02*
Y-0004909D01*
X024187Y-002D02*
X0240689D01*
X024128Y-0020591D02*
Y-001941D01*
X026487Y-00205D02*
X0263689D01*
X026428Y-0021091D02*
Y-0019909D01*
X025237Y-0021D02*
X0251189D01*
X025178Y-002159D02*
Y-002041D01*
X026937Y-00165D02*
X0268189D01*
X0268779Y-001709D02*
Y-001591D01*
X024787Y-0016D02*
X0246689D01*
X024728Y-001659D02*
Y-0015409D01*
X026837Y-00085D02*
X0267189D01*
X0267779Y-0009091D02*
Y-0007909D01*
X024887Y-00085D02*
X0247689D01*
X024828Y-0009091D02*
Y-0007909D01*
X024287Y-00115D02*
X0241689D01*
X024228Y-0012091D02*
Y-0010909D01*
X026837Y-00015D02*
X0267189D01*
X0267779Y-0002091D02*
Y-000091D01*
X024887Y-0001D02*
X0247689D01*
X024828Y-0001591D02*
Y-000041D01*
X024287Y-00045D02*
X0241689D01*
X024228Y-0005091D02*
Y-0003909D01*
X026437Y00025D02*
X0263189D01*
X0263779Y0001909D02*
Y0003091D01*
X025437Y00025D02*
X0253189D01*
X025378Y0001909D02*
Y0003091D01*
X0243307Y0002559D02*
X0242126D01*
X0242717Y0001969D02*
Y000315D01*
X026787Y00175D02*
X0266689D01*
X026728Y0016909D02*
Y001809D01*
X025187Y00155D02*
X0250689D01*
X0251279Y0014909D02*
Y0016091D01*
X021737Y0011D02*
X0216189D01*
X0216779Y0010409D02*
Y0011591D01*
X022837Y001D02*
X0227189D01*
X022778Y0009409D02*
Y0010591D01*
X023437Y00155D02*
X0233189D01*
X023378Y0014909D02*
Y0016091D01*
X022337Y00135D02*
X0222189D01*
X0222779Y001291D02*
Y001409D01*
X021437Y00175D02*
X0213189D01*
X0213779Y0016909D02*
Y001809D01*
X021437Y0029D02*
X0213189D01*
X0213779Y0028409D02*
Y0029591D01*
X021487Y00375D02*
X0213689D01*
X021428Y0036909D02*
Y0038091D01*
X021487Y0046D02*
X0213689D01*
X021428Y0045409D02*
Y0046591D01*
X021537Y00535D02*
X0214189D01*
X0214779Y0052909D02*
Y005409D01*
X020887Y001D02*
X0207689D01*
X0208279Y0009409D02*
Y0010591D01*
X020787Y00195D02*
X0206689D01*
X0207279Y001891D02*
Y002009D01*
X020787Y0028D02*
X0206689D01*
X0207279Y0027409D02*
Y0028591D01*
X020787Y00365D02*
X0206689D01*
X0207279Y0035909D02*
Y0037091D01*
X020787Y0043D02*
X0206689D01*
X0207279Y0042409D02*
Y0043591D01*
X020787Y00505D02*
X0206689D01*
X0207279Y0049909D02*
Y0051091D01*
X022837Y0004D02*
X0227189D01*
X022778Y0003409D02*
Y0004591D01*
X021787Y00045D02*
X0216689D01*
X021728Y0003909D02*
Y0005091D01*
X018687Y00305D02*
X0185689D01*
X0186279Y0029909D02*
Y0031091D01*
X017687Y0034D02*
X0175689D01*
X0176279Y0033409D02*
Y0034591D01*
X018437Y0035D02*
X0183189D01*
X018378Y0034409D02*
Y0035591D01*
X018787Y00395D02*
X0186689D01*
X0187279Y0038909D02*
Y0040091D01*
X018037Y00215D02*
X0179189D01*
X017978Y002091D02*
Y0022091D01*
X017987Y0018D02*
X0178689D01*
X0179279Y001741D02*
Y001859D01*
X017387Y00235D02*
X0172689D01*
X017328Y0022909D02*
Y0024091D01*
X017387Y00785D02*
X0172689D01*
X017328Y0077909D02*
Y007909D01*
X016787Y00795D02*
X0166689D01*
X016728Y0078909D02*
Y008009D01*
X012087Y01015D02*
X0119689D01*
X012028Y0100909D02*
Y0102091D01*
X011287Y01015D02*
X0111689D01*
X0112279Y0100909D02*
Y0102091D01*
X010437Y01015D02*
X0103189D01*
X0103779Y0100909D02*
Y0102091D01*
X016187Y00095D02*
X0160689D01*
X0161279Y0008909D02*
Y0010091D01*
X015487Y0014D02*
X0153689D01*
X0154279Y0013409D02*
Y0014591D01*
X015037Y00195D02*
X0149189D01*
X0149779Y001891D02*
Y002009D01*
X017487Y0004D02*
X0173689D01*
X0174279Y0003409D02*
Y0004591D01*
X017487Y0009D02*
X0173689D01*
X0174279Y0008409D02*
Y0009591D01*
X016787Y0012D02*
X0166689D01*
X016728Y0011409D02*
Y0012591D01*
X0191854Y-001387D02*
X0190673D01*
X0191264Y-0014461D02*
Y-001328D01*
X019637Y-00185D02*
X0195189D01*
X019578Y-0019091D02*
Y-001791D01*
X018787Y-0018D02*
X0186689D01*
X0187279Y-001859D02*
Y-001741D01*
X019637Y-00095D02*
X0195189D01*
X019578Y-0010091D02*
Y-0008909D01*
X018787Y-00095D02*
X0186689D01*
X0187279Y-0010091D02*
Y-0008909D01*
X017637Y-00135D02*
X0175189D01*
X0175779Y-001409D02*
Y-001291D01*
X017337Y-00115D02*
X0172189D01*
X017278Y-0012091D02*
Y-0010909D01*
X017587Y-00085D02*
X0174689D01*
X0175279Y-0009091D02*
Y-0007909D01*
X016187Y-0008D02*
X0160689D01*
X0161279Y-0008591D02*
Y-0007409D01*
X0155822Y-0010424D02*
X0154641D01*
X0155231Y-0011014D02*
Y-0009833D01*
X017387Y-00215D02*
X0172689D01*
X017328Y-0022091D02*
Y-002091D01*
X017687Y-0025D02*
X0175689D01*
X0176279Y-0025591D02*
Y-0024409D01*
X024887Y-0045D02*
X0247689D01*
X024828Y-0045591D02*
Y-0044409D01*
X025337Y-0042D02*
X0252189D01*
X025278Y-0042591D02*
Y-0041409D01*
X024237Y-00515D02*
X0241189D01*
X0241779Y-0052091D02*
Y-0050909D01*
X024237Y-00465D02*
X0241189D01*
X0241779Y-0047091D02*
Y-0045909D01*
X024137Y-0042D02*
X0240189D01*
X0240779Y-0042591D02*
Y-0041409D01*
X023487Y-00505D02*
X0233689D01*
X0234279Y-0051091D02*
Y-0049909D01*
X021787Y-00605D02*
X0216689D01*
X021728Y-006109D02*
Y-0059909D01*
X022237Y-00705D02*
X0221189D01*
X0221779Y-0071091D02*
Y-006991D01*
X021637Y-007D02*
X0215189D01*
X0215779Y-0070591D02*
Y-006941D01*
X021487Y-00655D02*
X0213689D01*
X021428Y-0066091D02*
Y-0064909D01*
X021487Y-00555D02*
X0213689D01*
X021428Y-005609D02*
Y-0054909D01*
X020937Y-0065D02*
X0208189D01*
X020878Y-0065591D02*
Y-006441D01*
X021037Y-00595D02*
X0209189D01*
X020978Y-0060091D02*
Y-0058909D01*
X021037Y-00505D02*
X0209189D01*
X020978Y-0051091D02*
Y-0049909D01*
X022737Y-00495D02*
X0226189D01*
X022678Y-0050091D02*
Y-0048909D01*
X021637Y-00505D02*
X0215189D01*
X0215779Y-0051091D02*
Y-0049909D01*
X017607Y-0068D02*
X0174889D01*
X0175479Y-006859D02*
Y-0067409D01*
X017617Y-00539D02*
X0174989D01*
X017558Y-0054491D02*
Y-005331D01*
X018537Y-00405D02*
X0184189D01*
X018478Y-0041091D02*
Y-0039909D01*
X019187Y-00405D02*
X0190689D01*
X0191279Y-0041091D02*
Y-0039909D01*
X019837Y-00405D02*
X0197189D01*
X019778Y-0041091D02*
Y-0039909D01*
X019937Y-00365D02*
X0198189D01*
X0198779Y-0037091D02*
Y-0035909D01*
X019187Y-0036D02*
X0190689D01*
X0191279Y-0036591D02*
Y-0035409D01*
X018487Y-00345D02*
X0183689D01*
X018428Y-0035091D02*
Y-0033909D01*
X018237Y-0038D02*
X0181189D01*
X018178Y-0038591D02*
Y-0037409D01*
X016387Y-0033D02*
X0162689D01*
X0163279Y-0033591D02*
Y-0032409D01*
X016787Y-003D02*
X0166689D01*
X016728Y-0030591D02*
Y-0029409D01*
X016437Y-00255D02*
X0163189D01*
X0163779Y-0026091D02*
Y-0024909D01*
X017427Y-00495D02*
X0173089D01*
X0173679Y-0050091D02*
Y-0048909D01*
X017637Y-00609D02*
X0175189D01*
X0175779Y-006149D02*
Y-0060309D01*
X014587Y-0067D02*
X0144689D01*
X014528Y-006759D02*
Y-0066409D01*
X013537Y-00405D02*
X0134189D01*
X013478Y-0041091D02*
Y-0039909D01*
X014577Y-00159D02*
X0144589D01*
X0145179Y-001649D02*
Y-001531D01*
X014327Y-00126D02*
X0142089D01*
X014268Y-0013191D02*
Y-0012009D01*
X0104272Y-0009D02*
X0103091D01*
X0103681Y-0009591D02*
Y-0008409D01*
X009587Y-00127D02*
X0094689D01*
X009528Y-0013291D02*
Y-0012109D01*
X011567Y-00204D02*
X0114489D01*
X0115079Y-002099D02*
Y-0019809D01*
X011457Y-00168D02*
X0113389D01*
X0113979Y-0017391D02*
Y-0016209D01*
X011937Y-00167D02*
X0118189D01*
X011878Y-001729D02*
Y-0016109D01*
X0124284Y-0016703D02*
X0123103D01*
X0123694Y-0017294D02*
Y-0016113D01*
X011467Y-00313D02*
X0113489D01*
X0114079Y-0031891D02*
Y-0030709D01*
X011237Y-00279D02*
X0111189D01*
X0111779Y-0028491D02*
Y-0027309D01*
X003887Y-00675D02*
X0037689D01*
X003828Y-006809D02*
Y-0066909D01*
X003747Y-00623D02*
X0036289D01*
X003688Y-006289D02*
Y-0061709D01*
X001797Y-00442D02*
X0016789D01*
X0017379Y-0044791D02*
Y-0043609D01*
X004697Y-00293D02*
X0045789D01*
X004638Y-0029891D02*
Y-0028709D01*
X005417Y-00271D02*
X0052989D01*
X0053579Y-0027691D02*
Y-0026509D01*
X005417Y-00217D02*
X0052989D01*
X0053579Y-002229D02*
Y-002111D01*
X004697Y-00236D02*
X0045789D01*
X004638Y-0024191D02*
Y-0023009D01*
X004707Y-00164D02*
X0045889D01*
X0046479Y-0016991D02*
Y-001581D01*
X003217Y-00241D02*
X0030989D01*
X003158Y-002469D02*
Y-0023509D01*
X003427Y-00121D02*
X0033089D01*
X003368Y-0012691D02*
Y-0011509D01*
X003467Y-00069D02*
X0033489D01*
X003408Y-0007491D02*
Y-0006309D01*
X000037Y-00186D02*
X-0000811D01*
X-0000221Y-0019191D02*
Y-001801D01*
X001247Y-00208D02*
X0011289D01*
X001188Y-0021391D02*
Y-002021D01*
X000687Y-00128D02*
X0005689D01*
X0006279Y-001339D02*
Y-0012209D01*
X000587Y-00063D02*
X0004689D01*
X000528Y-0006891D02*
Y-0005709D01*
X000557Y00055D02*
X0004389D01*
X000498Y0004909D02*
Y0006091D01*
X000537Y00145D02*
X0004189D01*
X000478Y0013909D02*
Y001509D01*
X006817Y00229D02*
X0066989D01*
X006758Y0022309D02*
Y0023491D01*
X007087Y00253D02*
X0069689D01*
X007028Y002471D02*
Y0025891D01*
X006037Y00248D02*
X0059189D01*
X005978Y0024209D02*
Y002539D01*
X006277Y00283D02*
X0061589D01*
X0062179Y0027709D02*
Y0028891D01*
X007667Y00379D02*
X0075489D01*
X0076079Y0037309D02*
Y0038491D01*
X006617Y00541D02*
X0064989D01*
X0065579Y0053509D02*
Y005469D01*
X006987Y00815D02*
X0068689D01*
X0069279Y008091D02*
Y0082091D01*
X005097Y00807D02*
X0049789D01*
X005038Y008011D02*
Y0081291D01*
X003927Y00972D02*
X0038089D01*
X003868Y0096609D02*
Y009779D01*
X005457Y00851D02*
X0053389D01*
X0053979Y0084509D02*
Y008569D01*
X004957Y00472D02*
X0048389D01*
X0048979Y0046609D02*
Y0047791D01*
X004857Y00298D02*
X0047389D01*
X004798Y0029209D02*
Y0030391D01*
X004137Y00306D02*
X0040189D01*
X004078Y0030009D02*
Y0031191D01*
X-000813Y0103D02*
X-0009311D01*
X-0008721Y0102409D02*
Y0103591D01*
X-000313Y0123D02*
X-0004311D01*
X-000372Y0122409D02*
Y0123591D01*
X000897Y00639D02*
X0007789D01*
X000838Y006331D02*
Y006449D01*
X000887Y00736D02*
X0007689D01*
X000828Y007301D02*
Y007419D01*
X-000313Y00925D02*
X-0004311D01*
X-000372Y0091909D02*
Y009309D01*
X001527Y00607D02*
X0014089D01*
X001468Y006011D02*
Y0061291D01*
X001567Y007D02*
X0014489D01*
X0015079Y006941D02*
Y0070591D01*
X001137Y0131D02*
X0010189D01*
X001078Y0130409D02*
Y0131591D01*
X001687Y0093D02*
X0015689D01*
X001628Y0092409D02*
Y009359D01*
X004677Y00851D02*
X0045589D01*
X004618Y0084509D02*
Y008569D01*
X004847Y00986D02*
X0047289D01*
X0047879Y009801D02*
Y009919D01*
X004097Y01022D02*
X0039789D01*
X004038Y010161D02*
Y0102791D01*
X001187Y0111D02*
X0010689D01*
X001128Y0110409D02*
Y0111591D01*
X-000013Y01308D02*
X-0001311D01*
X-0000721Y0130209D02*
Y0131391D01*
X001857Y01296D02*
X0017389D01*
X0017979Y0129009D02*
Y0130191D01*
X005097Y01105D02*
X0049789D01*
X005038Y0109909D02*
Y0111091D01*
X005457Y01077D02*
X0053389D01*
X0053979Y0107109D02*
Y0108291D01*
X005517Y01122D02*
X0053989D01*
X005458Y0111609D02*
Y0112791D01*
X010727Y01434D02*
X0106089D01*
X0106679Y0142809D02*
Y0143991D01*
X0104681Y0128032D02*
X01035D01*
X0104091Y0127441D02*
Y0128622D01*
X015727Y01221D02*
X0156089D01*
X0156679Y0121509D02*
Y0122691D01*
X016077Y01248D02*
X0159589D01*
X0160179Y0124209D02*
Y0125391D01*
X018257Y01514D02*
X0181389D01*
X018198Y0150809D02*
Y0151991D01*
X023317Y01634D02*
X0231989D01*
X0232579Y0162809D02*
Y0163991D01*
X025197Y01544D02*
X0250789D01*
X0251379Y0153809D02*
Y0154991D01*
X024017Y01583D02*
X0238989D01*
X023958Y0157709D02*
Y0158891D01*
X024197Y01631D02*
X0240789D01*
X0241379Y0162509D02*
Y0163691D01*
X023577Y01704D02*
X0234589D01*
X0235179Y0169809D02*
Y0170991D01*
X022657Y0165D02*
X0225389D01*
X0225979Y0164409D02*
Y0165591D01*
X022907Y01714D02*
X0227889D01*
X022848Y0170809D02*
Y0171991D01*
X022647Y01785D02*
X0225289D01*
X022588Y0177909D02*
Y0179091D01*
X022187Y01834D02*
X0220689D01*
X022128Y0182809D02*
Y0183991D01*
X021117Y01658D02*
X0209989D01*
X0210579Y0165209D02*
Y0166391D01*
X020137Y01739D02*
X0200189D01*
X020078Y0173309D02*
Y0174491D01*
X020567Y01772D02*
X0204489D01*
X020508Y0176609D02*
Y0177791D01*
X018967Y01762D02*
X0188489D01*
X0189079Y0175609D02*
Y0176791D01*
X012187Y01474D02*
X0120689D01*
X012128Y0146809D02*
Y0147991D01*
X012917Y01475D02*
X0127989D01*
X0128579Y0146909D02*
Y0148091D01*
X014067Y01481D02*
X0139489D01*
X0140079Y0147509D02*
Y0148691D01*
X015437Y01369D02*
X0153189D01*
X0153779Y0136309D02*
Y0137491D01*
X015827Y01343D02*
X0157089D01*
X0157679Y0133709D02*
Y0134891D01*
X017767Y01399D02*
X0176489D01*
X0177079Y0139309D02*
Y0140491D01*
X017767Y0135D02*
X0176489D01*
X0177079Y0134409D02*
Y0135591D01*
X015987Y01383D02*
X0158689D01*
X015928Y0137709D02*
Y0138891D01*
X017637Y01442D02*
X0175189D01*
X0175779Y0143609D02*
Y0144791D01*
X016627Y01733D02*
X0165089D01*
X016568Y0172709D02*
Y0173891D01*
X016567Y01787D02*
X0164489D01*
X0165079Y0178109D02*
Y0179291D01*
X015447Y01947D02*
X0153289D01*
X0153879Y0194109D02*
Y0195291D01*
X014347Y01786D02*
X0142289D01*
X0142879Y0178009D02*
Y0179191D01*
X0139142Y0184598D02*
X0137961D01*
X0138552Y0184008D02*
Y0185189D01*
X013247Y0188D02*
X0131289D01*
X0131879Y0187409D02*
Y0188591D01*
X013027Y01604D02*
X0129089D01*
X012968Y0159809D02*
Y0160991D01*
X010567Y01481D02*
X0104489D01*
X0105079Y0147509D02*
Y0148691D01*
X010257Y01432D02*
X0101389D01*
X0101979Y0142609D02*
Y0143791D01*
X009947Y01468D02*
X0098289D01*
X0098879Y0146209D02*
Y0147391D01*
X010067Y01504D02*
X0099489D01*
X010008Y0149809D02*
Y0150991D01*
X008067Y01701D02*
X0079489D01*
X008008Y0169509D02*
Y0170691D01*
X012027Y01596D02*
X0119089D01*
X0119679Y0159009D02*
Y0160191D01*
X010987Y01591D02*
X0108689D01*
X010928Y0158509D02*
Y0159691D01*
X010667Y01815D02*
X0105489D01*
X0106079Y0180909D02*
Y0182091D01*
X010197Y01868D02*
X0100789D01*
X010138Y0186209D02*
Y0187391D01*
X008167Y01629D02*
X0080489D01*
X008108Y0162309D02*
Y0163491D01*
X007077Y01551D02*
X0069589D01*
X0070179Y0154509D02*
Y0155691D01*
X001687Y01553D02*
X0015689D01*
X001628Y0154709D02*
Y0155891D01*
X003057Y01478D02*
X0029389D01*
X002998Y0147209D02*
Y0148391D01*
X004287Y016D02*
X0041689D01*
X0042279Y0159409D02*
Y0160591D01*
X007437Y01604D02*
X0073189D01*
X0073779Y0159809D02*
Y0160991D01*
X006387Y01565D02*
X0062689D01*
X0063279Y0155909D02*
Y0157091D01*
X006637Y01425D02*
X0065189D01*
X006578Y0141909D02*
Y0143091D01*
X005737Y01396D02*
X0056189D01*
X0056779Y0139009D02*
Y0140191D01*
X004847Y01398D02*
X0047289D01*
X0047879Y0139209D02*
Y0140391D01*
X006897Y01479D02*
X0067789D01*
X0068379Y0147309D02*
Y0148491D01*
X007667Y0165D02*
X0075489D01*
X0076079Y0164409D02*
Y0165591D01*
X006647Y01623D02*
X0065289D01*
X0065879Y0161709D02*
Y0162891D01*
X007287Y01691D02*
X0071689D01*
X007228Y0168509D02*
Y0169691D01*
X004127Y0165D02*
X0040089D01*
X0040679Y0164409D02*
Y0165591D01*
X004577Y01687D02*
X0044589D01*
X004518Y0168109D02*
Y0169291D01*
X004047Y01546D02*
X0039289D01*
X003988Y0154009D02*
Y0155191D01*
X003817Y01459D02*
X0036989D01*
X003758Y0145309D02*
Y0146491D01*
X003417Y01551D02*
X0032989D01*
X0033579Y0154509D02*
Y0155691D01*
X003257Y01631D02*
X0031389D01*
X003198Y0162509D02*
Y0163691D01*
X002307Y01564D02*
X0021889D01*
X0022479Y0155809D02*
Y0156991D01*
X002447Y01673D02*
X0023289D01*
X0023879Y0166709D02*
Y0167891D01*
X003157Y01685D02*
X0030389D01*
X0030979Y0167909D02*
Y0169091D01*
X003747Y01764D02*
X0036289D01*
X003688Y0175809D02*
Y0176991D01*
X003887Y01694D02*
X0037689D01*
X003828Y0168809D02*
Y0169991D01*
X004417Y01746D02*
X0042989D01*
X004358Y0174009D02*
Y0175191D01*
X004127Y01827D02*
X0040089D01*
X0040679Y0182109D02*
Y0183291D01*
X004817Y01812D02*
X0046989D01*
X004758Y0180609D02*
Y0181791D01*
X005027Y01864D02*
X0049089D01*
X0049679Y0185809D02*
Y0186991D01*
X005637Y01907D02*
X0055189D01*
X0055779Y0190109D02*
Y0191291D01*
X006247Y01963D02*
X0061289D01*
X0061879Y0195709D02*
Y0196891D01*
X007597Y01745D02*
X0074789D01*
X007538Y0173909D02*
Y0175091D01*
X007907Y01803D02*
X0077889D01*
X0078479Y0179709D02*
Y0180891D01*
X006477Y01701D02*
X0063589D01*
X0064179Y0169509D02*
Y0170691D01*
X006767Y0176D02*
X0066489D01*
X006708Y0175409D02*
Y0176591D01*
X007307Y01814D02*
X0071889D01*
X0072479Y0180809D02*
Y0181991D01*
X007817Y0185D02*
X0076989D01*
X0077579Y0184409D02*
Y0185591D01*
X008237Y01878D02*
X0081189D01*
X0081779Y0187209D02*
Y0188391D01*
X008837Y01897D02*
X0087189D01*
X0087779Y0189109D02*
Y0190291D01*
X009217Y01901D02*
X0090989D01*
X009158Y0189509D02*
Y0190691D01*
X005087Y01774D02*
X0049689D01*
X0050279Y0176809D02*
Y0177991D01*
X005497Y01829D02*
X0053789D01*
X0054379Y0182309D02*
Y0183491D01*
X006027Y01882D02*
X0059089D01*
X005968Y0187609D02*
Y0188791D01*
X006587Y01928D02*
X0064689D01*
X006528Y0192209D02*
Y0193391D01*
X007107Y01959D02*
X0069889D01*
X007048Y0195309D02*
Y0196491D01*
X007687Y01974D02*
X0075689D01*
X0076279Y0196809D02*
Y0197991D01*
X008287Y0155D02*
X0081689D01*
X0082279Y0154409D02*
Y0155591D01*
X008287Y01515D02*
X0081689D01*
X0082279Y0150909D02*
Y0152091D01*
X003237Y-00446D02*
X0031189D01*
X003178Y-0045191D02*
Y-0044009D01*
X003247Y-00335D02*
X0031289D01*
X0031879Y-0034091D02*
Y-0032909D01*
X002687Y-00578D02*
X0025689D01*
X002628Y-005839D02*
Y-0057209D01*
X002367Y-00523D02*
X0022489D01*
X0023079Y-005289D02*
Y-005171D01*
X002597Y-00442D02*
X0024789D01*
X0025379Y-0044791D02*
Y-0043609D01*
X0039015Y-0058297D02*
X0037834D01*
X0038424Y-0058887D02*
Y-0057706D01*
X003197Y-00621D02*
X0030789D01*
X003138Y-0062691D02*
Y-006151D01*
X003357Y-00578D02*
X0032389D01*
X003298Y-005839D02*
Y-0057209D01*
X002737Y-00489D02*
X0026189D01*
X0026779Y-0049491D02*
Y-0048309D01*
X003137Y-00412D02*
X0030189D01*
X0030779Y-0041791D02*
Y-0040609D01*
X011217Y-00704D02*
X0110989D01*
X011158Y-0070991D02*
Y-006981D01*
X010817Y-00681D02*
X0106989D01*
X010758Y-0068691D02*
Y-006751D01*
X008047Y-00527D02*
X0079289D01*
X0079879Y-005329D02*
Y-0052109D01*
X007647Y-00629D02*
X0075289D01*
X007588Y-006349D02*
Y-0062309D01*
X007477Y-00596D02*
X0073589D01*
X007418Y-006019D02*
Y-0059009D01*
X004577Y00013D02*
X0044589D01*
X004518Y0000709D02*
Y0001891D01*
X007087Y-00213D02*
X0069689D01*
X007028Y-0021891D02*
Y-0020709D01*
X006647Y-00197D02*
X0065289D01*
X0065879Y-002029D02*
Y-0019109D01*
X004067Y00012D02*
X0039489D01*
X004008Y000061D02*
Y0001791D01*
X006587Y-00239D02*
X0064689D01*
X006528Y-002449D02*
Y-002331D01*
X005727Y00127D02*
X0056089D01*
X0056679Y0012109D02*
Y0013291D01*
X009417Y00288D02*
X0092989D01*
X009358Y0028209D02*
Y0029391D01*
X005377Y00147D02*
X0052589D01*
X005318Y0014109D02*
Y0015291D01*
X005357Y00627D02*
X0052389D01*
X0052979Y006211D02*
Y0063291D01*
X005027Y00647D02*
X0049089D01*
X0049679Y0064109D02*
Y006529D01*
X005027Y0054D02*
X0049089D01*
X0049679Y0053409D02*
Y005459D01*
X006457Y00586D02*
X0063389D01*
X006398Y0058009D02*
Y005919D01*
X010677Y-00548D02*
X0105589D01*
X0106179Y-0055391D02*
Y-005421D01*
X010267Y-00546D02*
X0101489D01*
X0102079Y-005519D02*
Y-0054009D01*
X0120467Y-0056D02*
X0118892D01*
X0119679Y-0056787D02*
Y-0055213D01*
X016877Y00339D02*
X0167589D01*
X016818Y0033309D02*
Y0034491D01*
X017137Y00365D02*
X0170189D01*
X017078Y0035909D02*
Y0037091D01*
X016567Y00315D02*
X0164489D01*
X0165079Y0030909D02*
Y0032091D01*
X018717Y00063D02*
X0185989D01*
X018658Y0005709D02*
Y0006891D01*
X018237Y0007D02*
X0181189D01*
X018178Y0006409D02*
Y0007591D01*
X004717Y-00399D02*
X0045989D01*
X004658Y-0040491D02*
Y-0039309D01*
X008787Y-00051D02*
X0086689D01*
X0087279Y-0005691D02*
Y-0004509D01*
X009337Y-00079D02*
X0092189D01*
X0092779Y-0008491D02*
Y-0007309D01*
X008097Y-00117D02*
X0079789D01*
X0080379Y-0012291D02*
Y-0011109D01*
X007807Y-00083D02*
X0076889D01*
X0077479Y-0008891D02*
Y-0007709D01*
X008447Y-00024D02*
X0083289D01*
X008388Y-0002991D02*
Y-0001809D01*
X007567Y00149D02*
X0074489D01*
X007508Y001431D02*
Y0015491D01*
X007507Y-00025D02*
X0073889D01*
X007448Y-0003091D02*
Y-0001909D01*
X002137Y00239D02*
X0020189D01*
X0020779Y002331D02*
Y002449D01*
X001777Y00333D02*
X0016589D01*
X0017179Y0032709D02*
Y0033891D01*
X001787Y00381D02*
X0016689D01*
X0017279Y0037509D02*
Y0038691D01*
X001797Y00422D02*
X0016789D01*
X0017379Y0041609D02*
Y0042791D01*
X007147Y-00006D02*
X0070289D01*
X007088Y-0001191D02*
Y-0000009D01*
X006807Y00042D02*
X0066889D01*
X0067479Y0003609D02*
Y0004791D01*
X006757Y00079D02*
X0066389D01*
X0066979Y0007309D02*
Y0008491D01*
X013337Y-00266D02*
X0132189D01*
X013278Y-0027191D02*
Y-0026009D01*
X010107Y00109D02*
X0099889D01*
X0100479Y0010309D02*
Y0011491D01*
X010897Y00093D02*
X0107789D01*
X0108379Y0008709D02*
Y0009891D01*
X0125067Y-00563D02*
X0123492D01*
X0124279Y-0057087D02*
Y-0055513D01*
X0130967Y-0056D02*
X0129392D01*
X013018Y-0056787D02*
Y-0055213D01*
X006367Y00082D02*
X0062489D01*
X006308Y0007609D02*
Y0008791D01*
X006047Y00103D02*
X0059289D01*
X0059879Y0009709D02*
Y0010891D01*
X003257Y00121D02*
X0031389D01*
X003198Y0011509D02*
Y0012691D01*
X009077Y00251D02*
X0089589D01*
X009018Y0024509D02*
Y0025691D01*
X006387Y-00505D02*
X0062689D01*
X0063279Y-0051091D02*
Y-0049909D01*
X006387Y-00475D02*
X0062689D01*
X0063279Y-0048091D02*
Y-0046909D01*
X006737Y-00505D02*
X0066189D01*
X006678Y-0051091D02*
Y-0049909D01*
X006737Y-00475D02*
X0066189D01*
X006678Y-0048091D02*
Y-0046909D01*
X009437Y0121D02*
X0093189D01*
X0093779Y0120409D02*
Y0121591D01*
X005637Y0024D02*
X0055189D01*
X0055779Y002341D02*
Y002459D01*
X007087Y0039D02*
X0069689D01*
X007028Y0038409D02*
Y0039591D01*
X009537Y0042D02*
X0094189D01*
X0094779Y0041409D02*
Y0042591D01*
X0085067Y0015D02*
X0083492D01*
X008428Y0014213D02*
Y0015787D01*
X011887Y001D02*
X0117689D01*
X011828Y0009409D02*
Y0010591D01*
X013537Y00185D02*
X0134189D01*
X013478Y001791D02*
Y0019091D01*
X013887Y00155D02*
X0137689D01*
X0138279Y0014909D02*
Y0016091D01*
X012637Y00125D02*
X0125189D01*
X0125779Y0011909D02*
Y0013091D01*
X012187Y00125D02*
X0120689D01*
X012128Y0011909D02*
Y0013091D01*
X011387Y00095D02*
X0112689D01*
X0113279Y0008909D02*
Y0010091D01*
X008937Y00405D02*
X0088189D01*
X0088779Y0039909D02*
Y0041091D01*
X006587Y00385D02*
X0064689D01*
X006528Y0037909D02*
Y0039091D01*
X006537Y0042D02*
X0064189D01*
X006478Y0041409D02*
Y0042591D01*
X005637Y00585D02*
X0055189D01*
X0055779Y005791D02*
Y0059091D01*
X009637Y00675D02*
X0095189D01*
X009578Y0066909D02*
Y006809D01*
X012837Y00375D02*
X0127189D01*
X0127779Y0036909D02*
Y0038091D01*
X012937Y0034D02*
X0128189D01*
X0128779Y0033409D02*
Y0034591D01*
X0176567Y01695D02*
X0174992D01*
X0175779Y0168713D02*
Y0170287D01*
X0177067Y0162D02*
X0175492D01*
X0176279Y0161213D02*
Y0162787D01*
X0164364Y01667D02*
X0163183D01*
X0163773Y0166109D02*
Y0167291D01*
X016337Y0161D02*
X0162189D01*
X0162779Y0160409D02*
Y0161591D01*
X004587Y011D02*
X0044689D01*
X0045279Y0109409D02*
Y0110591D01*
X006837Y00975D02*
X0067189D01*
X0067779Y0096909D02*
Y009809D01*
X009487Y0062D02*
X0093689D01*
X0094279Y0061409D02*
Y006259D01*
X012237Y01415D02*
X0121189D01*
X012178Y0140909D02*
Y0142091D01*
X013987Y01445D02*
X0138689D01*
X0139279Y0143909D02*
Y0145091D01*
X014837Y018D02*
X0147189D01*
X014778Y0179409D02*
Y0180591D01*
X019237Y01455D02*
X0191189D01*
X0191779Y0144909D02*
Y0146091D01*
X019237Y01265D02*
X0191189D01*
X0191779Y0125909D02*
Y0127091D01*
X018937Y0142D02*
X0188189D01*
X0188779Y0141409D02*
Y0142591D01*
X018637Y01395D02*
X0185189D01*
X018578Y0138909D02*
Y0140091D01*
X018937Y0123D02*
X0188189D01*
X0188779Y0122409D02*
Y0123591D01*
X018637Y01195D02*
X0185189D01*
X018578Y0118909D02*
Y0120091D01*
X020387Y0159D02*
X0202689D01*
X0203279Y0158409D02*
Y0159591D01*
X0178283Y0128913D02*
X0177102D01*
X0177692Y0128322D02*
Y0129503D01*
X009587Y00335D02*
X0094689D01*
X009528Y0032909D02*
Y0034091D01*
X009037Y0032D02*
X0089189D01*
X008978Y0031409D02*
Y0032591D01*
X021937Y0093D02*
X0218189D01*
X0218779Y0092409D02*
Y009359D01*
X018537Y0045D02*
X0184189D01*
X018478Y0044409D02*
Y0045591D01*
X018237Y0041D02*
X0181189D01*
X018178Y0040409D02*
Y0041591D01*
X017887Y00395D02*
X0177689D01*
X0178279Y0038909D02*
Y0040091D01*
X017487Y0039D02*
X0173689D01*
X0174279Y0038409D02*
Y0039591D01*
X012837Y00705D02*
X0127189D01*
X0127779Y006991D02*
Y0071091D01*
X016237Y00745D02*
X0161189D01*
X0161779Y0073909D02*
Y007509D01*
X013587Y0068D02*
X0134689D01*
X013528Y0067409D02*
Y006859D01*
X015637Y00745D02*
X0155189D01*
X015578Y0073909D02*
Y007509D01*
X014537Y00725D02*
X0144189D01*
X014478Y0071909D02*
Y007309D01*
X014137Y00725D02*
X0140189D01*
X0140779Y0071909D02*
Y007309D01*
X013737Y00725D02*
X0136189D01*
X0136779Y0071909D02*
Y007309D01*
X013337Y0072D02*
X0132189D01*
X013278Y0071409D02*
Y0072591D01*
X016537Y00905D02*
X0164189D01*
X0164779Y0089909D02*
Y0091091D01*
X015487Y0088D02*
X0153689D01*
X0154279Y008741D02*
Y0088591D01*
X025987Y00465D02*
X0258689D01*
X0259279Y0045909D02*
Y0047091D01*
X025637Y0084D02*
X0255189D01*
X025578Y008341D02*
Y0084591D01*
X0247665Y0054839D02*
X0246484D01*
X0247075Y0054248D02*
Y0055429D01*
X011737Y0047D02*
X0116189D01*
X0116779Y0046409D02*
Y0047591D01*
X011587Y005D02*
X0114689D01*
X0115279Y0049409D02*
Y0050591D01*
X015987Y00225D02*
X0158689D01*
X015928Y002191D02*
Y002309D01*
X011837Y0031D02*
X0117189D01*
X011778Y0030409D02*
Y0031591D01*
X017937Y00935D02*
X0178189D01*
X0178779Y0092909D02*
Y009409D01*
X017387Y006D02*
X0172689D01*
X017328Y0059409D02*
Y006059D01*
X016587Y00545D02*
X0164689D01*
X0165279Y0053909D02*
Y005509D01*
X017037Y00575D02*
X0169189D01*
X016978Y005691D02*
Y0058091D01*
X017187Y0063D02*
X0170689D01*
X017128Y006241D02*
Y0063591D01*
X016137Y0088D02*
X0160189D01*
X016078Y008741D02*
Y0088591D01*
X018887Y00475D02*
X0187689D01*
X0188279Y0046909D02*
Y0048091D01*
X020287Y-0002D02*
X0201689D01*
X0202279Y-0002591D02*
Y-0001409D01*
X016087Y0093D02*
X0159689D01*
X016028Y0092409D02*
Y009359D01*
X016837Y00525D02*
X0167189D01*
X016778Y005191D02*
Y0053091D01*
X017337Y00665D02*
X0172189D01*
X017278Y0065909D02*
Y006709D01*
X017187Y007D02*
X0170689D01*
X017128Y006941D02*
Y0070591D01*
X017337Y0073D02*
X0172189D01*
X017278Y0072409D02*
Y007359D01*
X014437Y01655D02*
X0143189D01*
X014378Y0164909D02*
Y0166091D01*
X014437Y0173D02*
X0143189D01*
X014378Y0172409D02*
Y0173591D01*
X014937Y0148D02*
X0148189D01*
X0148779Y0147409D02*
Y0148591D01*
X014937Y0153D02*
X0148189D01*
X0148779Y0152409D02*
Y0153591D01*
X012587Y01575D02*
X0124689D01*
X0125279Y0156909D02*
Y0158091D01*
X009587Y0187D02*
X0094689D01*
X009528Y0186409D02*
Y0187591D01*
X014387Y0187D02*
X0142689D01*
X014328Y0186409D02*
Y0187591D01*
X012937Y0167865D02*
X0128189D01*
X0128779Y0167274D02*
Y0168455D01*
X0122166Y0184796D02*
X0120985D01*
X0121576Y0184206D02*
Y0185387D01*
X007987Y01515D02*
X0078689D01*
X007928Y0150909D02*
Y0152091D01*
X007837Y0154D02*
X0077189D01*
X007778Y0153409D02*
Y0154591D01*
X008037Y01565D02*
X0079189D01*
X0079779Y0155909D02*
Y0157091D01*
X008987Y0054D02*
X0088689D01*
X008928Y0053409D02*
Y005459D01*
X008437Y0052D02*
X0083189D01*
X008378Y005141D02*
Y0052591D01*
X007937Y0052D02*
X0078189D01*
X007878Y005141D02*
Y0052591D01*
X011387Y0086D02*
X0112689D01*
X0113279Y0085409D02*
Y008659D01*
X019587Y00855D02*
X0194689D01*
X019528Y0084909D02*
Y008609D01*
X017087Y005D02*
X0169689D01*
X017028Y0049409D02*
Y0050591D01*
X019587Y0082D02*
X0194689D01*
X019528Y008141D02*
Y0082591D01*
X019187Y0077D02*
X0190689D01*
X0191279Y007641D02*
Y0077591D01*
X018737Y0082D02*
X0186189D01*
X0186779Y008141D02*
Y0082591D01*
X019037Y0089D02*
X0189189D01*
X0189779Y008841D02*
Y0089591D01*
X018137Y0088D02*
X0180189D01*
X018078Y008741D02*
Y0088591D01*
X018387Y00905D02*
X0182689D01*
X018328Y0089909D02*
Y0091091D01*
X016887Y00855D02*
X0167689D01*
X016828Y0084909D02*
Y008609D01*
X015437Y0093D02*
X0153189D01*
X0153779Y0092409D02*
Y009359D01*
X020687Y-00275D02*
X0205689D01*
X0206279Y-0028091D02*
Y-0026909D01*
X022887Y0084D02*
X0227689D01*
X0228279Y008341D02*
Y0084591D01*
X025287Y00345D02*
X0251689D01*
X0252279Y0033909D02*
Y0035091D01*
X0121567Y-00515D02*
X0119992D01*
X012078Y-0052287D02*
Y-0050713D01*
X019287Y-0067D02*
X0191689D01*
X019228Y-006759D02*
Y-0066409D01*
X019737Y-00695D02*
X0196189D01*
X019678Y-0070091D02*
Y-006891D01*
X018887Y-0069D02*
X0187689D01*
X0188279Y-0069591D02*
Y-006841D01*
X019687Y-00645D02*
X0195689D01*
X019628Y-0065091D02*
Y-006391D01*
X018837Y-00645D02*
X0187189D01*
X0187779Y-0065091D02*
Y-006391D01*
X019187Y-003D02*
X0190689D01*
X0191279Y-0030591D02*
Y-0029409D01*
X0184965Y-0029906D02*
X0183783D01*
X0184374Y-0030496D02*
Y-0029315D01*
X017737Y-00455D02*
X0176189D01*
X0176779Y-0046091D02*
Y-0044909D01*
X020287Y-00415D02*
X0201689D01*
X0202279Y-0042091D02*
Y-0040909D01*
X021637Y-0011D02*
X0215189D01*
X0215779Y-0011591D02*
Y-0010409D01*
X021237Y-00135D02*
X0211189D01*
X0211779Y-001409D02*
Y-001291D01*
X020799Y-0015839D02*
X0206809D01*
X0207399Y-0016429D02*
Y-0015248D01*
X0174384Y-0016823D02*
X0173203D01*
X0173793Y-0017413D02*
Y-0016232D01*
M02*
