M48
;Layer_Color=9474304
;FILE_FORMAT=2:5
INCH,LZ
;TYPE=PLATED
T1F00S00C0.01181
T2F00S00C0.01575
T3F00S00C0.03150
T4F00S00C0.03200
T5F00S00C0.03543
T6F00S00C0.04724
%
T01
X01522Y-00704
X01562Y-00681
X01576Y-00548
X01617Y-00546
X01839Y-00527
X01896Y-00596
X01879Y-00629
X0197Y-00505
Y-00475
X02005
Y-00505
X0187Y-00375
X0181Y-0036
X01834Y-00117
X01863Y-00083
X01893Y-00025
X01929Y-00006
X01963Y00042
X01968Y00079
X02007Y00082
X02039Y00103
X02071Y00127
X02106Y00147
X0208Y0024
X0204Y00248
X02016Y00283
X01962Y00229
X01935Y00253
X01887Y00149
X01736Y00251
X01702Y00288
X01633Y00109
X01554Y00093
X01505Y00095
X01498Y-00168
X01487Y-00204
X0152Y-00279
X01497Y-00313
X0160098Y-0009
X0171Y-00079
X01685Y-00127
X01765Y-00051
X01799Y-00024
X01935Y-00213
X01979Y-00197
X01985Y-00239
X02102Y-00217
Y-00271
X02174Y-00293
Y-00236
X02173Y-00164
X02301Y-00121
X02297Y-00069
X02237Y00012
X02186Y00013
X02318Y00121
X0243Y00239
X0259Y00145
X02588Y00055
X02585Y-00063
X02575Y-00128
X0264Y-00186
X02519Y-00208
X02322Y-00241
X02319Y-00335
X0233Y-00412
X0232Y-00446
X02384Y-00442
X0237Y-00489
X02407Y-00523
X02375Y-00578
X02308
X02324Y-00621
X02269Y-00623
X0225355Y-0058297
X02255Y-00675
X02172Y-00399
X02464Y-00442
X0223Y00306
X02158Y00298
X01455Y001
X01425Y00125
X0138
X0129Y00185
X01255Y00155
X0114Y00195
X01095Y0014
X01025Y00095
X00965Y0012
X00895Y0009
Y0004
X0082Y0007
X00772Y00063
X00765Y-00095
X0072516Y-001387
X00765Y-0018
X0068Y-00185
Y-00095
X00615Y-0002
X00535Y00055
X00555Y001
X0047Y0011
X00465Y00045
X00415Y00075
X0041Y00135
X0036Y001
Y0004
X00375Y-0006
X0046Y-00055
X0048Y-0011
X0052Y-00135
X005638Y-0015839
X00575Y-00275
X0065Y-00365
X0066Y-00405
X00615Y-00415
X00725Y-00405
Y-0036
Y-003
X0079405Y-0029906
X00795Y-00345
X0082Y-0038
X0079Y-00405
X0087Y-00455
X00901Y-00495
X00882Y-00539
X0094799Y-0054201
X0088Y-00609
X00883Y-0068
X0091Y-00734
X00925Y-00781
X0095Y-0071
X00755Y-0069
X0076Y-00645
X00715Y-0067
X00675Y-00645
X0067Y-00695
X0054Y-007
X0048
X00495Y-00655
X0055Y-0065
X0054Y-00595
X00465Y-00605
X00495Y-00555
X0048Y-00505
X0054
X0037Y-00495
X00295Y-00505
X0022Y-00515
Y-00465
X0023Y-0042
X00155Y-0045
X0011Y-0042
X0012Y-0021
X00165Y-0016
X00155Y-00085
Y-0001
X001Y00025
X0
X-0004Y-00015
Y-00085
X-0005Y-00165
X-00005Y-00205
X00225Y-002
X00215Y-00115
Y-00045
X0021063Y0002559
X00125Y00155
X003
X0033Y00285
X005Y0029
X00565Y0028
Y00195
X005Y00175
X00845Y0018
X0084Y00215
X00905Y00235
X01045Y00225
X01025Y-0008
X0108548Y-0010424
X01211Y-00126
X01186Y-00159
X0140086Y-0016703
X0145Y-00167
X0131Y-00266
X0129Y-00405
X01195Y-00497
X01226Y-00555
X01184Y-00578
X01185Y-0063
Y-0067
X01305Y-00676
X01388
X01111Y-0048
X00918Y-00431
X00965Y-003
X01005Y-0033
X01Y-00255
X00875Y-0025
X00905Y-00215
X0089986Y-0016823
X0088Y-00135
X0091Y-00115
X00885Y-00085
X00775Y00305
X-00035Y00175
X0042Y-00705
X00495Y00375
X00565Y00365
Y0043
Y00505
X0049Y00535
X00495Y0046
X00415Y00495
X00425Y00645
X0043Y0073
X00355Y0084
X00275Y0089
X00175
X0008Y0084
X-00015Y00835
X-0002Y00755
X-00025Y00675
X-00005Y0092
X-00055Y0102
X00005Y01105
X001Y0111
X002Y01215
X00155Y01275
X0008Y01305
X-00025Y01295
X00124Y01544
X00242Y01583
X00224Y01631
X00312Y01634
X00378Y0165
X00353Y01714
X00286Y01704
X00379Y01785
X00425Y01834
X00587Y01772
X0063Y01739
X00747Y01762
X00981Y01733
X00987Y01787
X0100006Y01667
X0101Y0161
X0115Y0153
Y0148
X01237Y01481
X01245Y01445
X01352Y01475
X01425Y01474
X0142Y01415
X01385Y01575
X01341Y01604
X0135Y0167865
X01441Y01596
X0142204Y0184796
X0125228Y0184598
X01209Y01786
X0116Y018
X012Y0173
Y01655
X011Y01369
X01061Y01343
X01045Y01383
X01036Y01248
X01071Y01221
X0086087Y0128913
X00867Y0135
Y01399
X0088Y01442
X00818Y01514
X0072Y01455
X0075Y0142
X0078Y01395
X0072Y01265
X0075Y0123
X0078Y01195
X00805Y00905
X0083Y0088
X0085Y00935
X0074Y0089
X00685Y00855
Y0082
X0077
X00725Y0077
X00905Y00785
X0091Y0073
X00925Y007
X0091Y00665
X00925Y0063
X00905Y006
X0094Y00575
X0096Y00525
X00985Y00545
X0089
X0085Y0058
X00935Y005
X0093Y00365
X00956Y00339
X00987Y00315
X00875Y0034
X00895Y0039
X00855Y00395
X0082Y0041
X00765Y00395
X008Y0035
X0079Y0045
X00755Y00475
X00965Y00795
X0102Y00805
Y00745
X0108
X01115Y008
X01095Y0088
X011Y0093
X01035
X0103Y0088
X0099Y00905
X00955Y00855
X0119Y00725
X0123
X0127
X0131Y0072
X0136Y00705
X01285Y0068
X0136Y00375
X0135Y0034
X0146Y0031
X0147Y0047
X01435Y01015
X0045Y0093
X00325Y01025
X0035Y0109
X00285Y0115
X00255Y00975
X0016705Y0054839
X00045Y00465
X00115Y00345
X00532Y01658
X00605Y0159
X01545Y01591
X01587Y01481
X01571Y01434
X01618Y01432
X01649Y01468
X01637Y01504
X01815Y01515
X01845
X0186Y0154
X0184Y01565
X01815Y0155
X01827Y01629
X01877Y0165
X019Y01604
X01936Y01551
X02005Y01565
X01979Y01623
X01996Y01701
X01967Y0176
X01884Y01745
X01915Y01691
X01837Y01701
X01853Y01803
X01862Y0185
X01913Y01814
X02094Y01829
X02141Y01864
X02162Y01812
X02135Y01774
X02202Y01746
X02186Y01687
X02255Y01694
X02231Y0165
X02215Y016
X02239Y01546
X02302Y01551
X02371Y01542
X02413Y01564
X02475Y01553
X02399Y01673
X02328Y01685
X02318Y01631
X02338Y01478
X02262Y01459
X02159Y01398
X0207Y01396
X0198Y01425
X01954Y01479
X02092Y01122
X02098Y01077
X02134Y01105
X02185Y011
X02234Y01022
X02251Y00972
X02159Y00986
X02176Y00851
X02098
X02134Y00807
X02141Y00647
X02108Y00627
X0208Y00585
X01998Y00586
X01982Y00541
X0199Y0042
X01985Y00385
X01935Y0039
X01877Y00379
X0175Y00405
X0169Y0042
X01685Y00335
X0174Y0032
X01745Y0054
X018Y0052
X0185
X01955Y00645
X0196Y00705
X01945Y00815
X0188
X01825Y0074
X0169465Y0071035
X0168Y00675
X01695Y0062
X01485Y005
X01505Y0086
X01515Y01015
X016
X0159689Y0128032
X017Y0121
X0196Y00975
X02475Y0093
X02675Y00925
X02725Y0103
X02675Y0123
X02645Y01308
X0253Y0131
X02458Y01296
X02525Y0111
X02555Y00736
X02554Y00639
X02491Y00607
X02487Y007
X02464Y00422
X02465Y00381
X02466Y00333
X02148Y00472
X02141Y0054
X02269Y01764
X02231Y01827
X01624Y01868
X01577Y01815
X01685Y0187
X01722Y01901
X0176Y01897
X0182Y01878
X01875Y01974
X01933Y01959
X01985Y01928
X02019Y01963
X02041Y01882
X0208Y01907
X01319Y0188
X01205Y0187
X01099Y01947
T02
X01795Y0015
X0143Y-00515
X01441Y-0056
X01395Y-00563
X01336Y-0056
X00875Y0162
X0088Y01695
T03
X0151637Y0002582
X0159511
X0167385
X02355Y-00153
X02455
X02665Y-0009
Y-0001126
X0262924Y0026427
X0143763Y0002582
X0135889
X0128015
X0120141
X0112267
X0104393
X0096519
X0092582Y01077
X0100456
X010833
X0116204
X0124078
X0131952
X0139826
X0084708
X0076834
X006896
X01477
X0155574
X0163448
X0171322
X0179196
X018707
X0194944
X0263Y00565
X0262975Y0046476
X026295Y0036451
T04
X0033Y-003184
Y-0022
Y-001216
X0114204Y0126075
X0124047
X0139795
X0149637
T05
X01545Y-0076
X01645
X0179
X0189
X0199
X0209
X01415
X01315
X01215
X011
X01
X00822
X00722
X00622
X00522
X-0003Y0028
Y0038
Y0048
Y0058
X005484Y0186
X00635Y0191
X00735Y0195
X00835
X00935
X01035
T06
X0044719Y012544
Y014985
X0210665Y016144
M30
