G04*
G04 #@! TF.GenerationSoftware,Altium Limited,Altium Designer,22.0.2 (36)*
G04*
G04 Layer_Color=128*
%FSTAX25Y25*%
%MOIN*%
G70*
G04*
G04 #@! TF.SameCoordinates,0D831988-8BE3-4B2D-80CC-02C8544F8A67*
G04*
G04*
G04 #@! TF.FilePolarity,Positive*
G04*
G01*
G75*
%ADD19R,0.03200X0.03200*%
%ADD22R,0.04921X0.02756*%
%ADD23R,0.03543X0.03150*%
%ADD26R,0.03150X0.03543*%
%ADD31R,0.11811X0.05906*%
%ADD86R,0.05906X0.11811*%
%ADD87R,0.03937X0.07874*%
%ADD88R,0.03150X0.03937*%
%ADD89O,0.01102X0.05906*%
%ADD90O,0.05906X0.01102*%
%ADD91R,0.01575X0.04331*%
%ADD92R,0.03937X0.01654*%
%ADD93R,0.12598X0.12598*%
%ADD94O,0.03937X0.00984*%
%ADD95O,0.00984X0.03937*%
%ADD96O,0.07874X0.03150*%
%ADD97R,0.04331X0.02362*%
%ADD98R,0.03937X0.03937*%
%ADD99O,0.09843X0.02756*%
%ADD100O,0.02756X0.09843*%
%ADD101R,0.06693X0.04134*%
%ADD102R,0.02756X0.04921*%
%ADD103O,0.08661X0.02756*%
G36*
X0070935Y0180991D02*
Y0177841D01*
X0070739Y0177644D01*
X0067628D01*
X0067432Y0177841D01*
Y0178794D01*
X0068928D01*
Y0180093D01*
X0067432D01*
Y0180991D01*
X0067628Y0181187D01*
X0070739D01*
X0070935Y0180991D01*
D02*
G37*
G36*
X0064676D02*
Y0180093D01*
X0063219D01*
Y0178794D01*
X0064676D01*
Y0177841D01*
X0064479Y0177644D01*
X0061329D01*
X0061132Y0177841D01*
Y0180991D01*
X0061329Y0181187D01*
X0064479D01*
X0064676Y0180991D01*
D02*
G37*
G36*
X0052935Y0172575D02*
Y0169425D01*
X0052739Y0169228D01*
X0049628D01*
X0049432Y0169425D01*
Y0170378D01*
X0050928D01*
Y0171677D01*
X0049432D01*
Y0172575D01*
X0049628Y0172772D01*
X0052739D01*
X0052935Y0172575D01*
D02*
G37*
G36*
X0046676D02*
Y0171677D01*
X0045219D01*
Y0170378D01*
X0046676D01*
Y0169425D01*
X0046479Y0169228D01*
X0043329D01*
X0043132Y0169425D01*
Y0172575D01*
X0043329Y0172772D01*
X0046479D01*
X0046676Y0172575D01*
D02*
G37*
G36*
X0079572Y0162258D02*
Y0159108D01*
X0079375Y0158911D01*
X0078478D01*
Y0160368D01*
X0077179D01*
Y0158911D01*
X0076226D01*
X0076029Y0159108D01*
Y0162258D01*
X0076226Y0162455D01*
X0079375D01*
X0079572Y0162258D01*
D02*
G37*
G36*
Y0155959D02*
Y0152848D01*
X0079375Y0152652D01*
X0076226D01*
X0076029Y0152848D01*
Y0155959D01*
X0076226Y0156156D01*
X0077179D01*
Y0154659D01*
X0078478D01*
Y0156156D01*
X0079375D01*
X0079572Y0155959D01*
D02*
G37*
G36*
X0070935Y0156075D02*
Y0152925D01*
X0070739Y0152728D01*
X0067628D01*
X0067432Y0152925D01*
Y0153878D01*
X0068928D01*
Y0155177D01*
X0067432D01*
Y0156075D01*
X0067628Y0156272D01*
X0070739D01*
X0070935Y0156075D01*
D02*
G37*
G36*
X0064676D02*
Y0155177D01*
X0063219D01*
Y0153878D01*
X0064676D01*
Y0152925D01*
X0064479Y0152728D01*
X0061329D01*
X0061132Y0152925D01*
Y0156075D01*
X0061329Y0156272D01*
X0064479D01*
X0064676Y0156075D01*
D02*
G37*
G36*
X0099436Y0140075D02*
Y0136925D01*
X0099239Y0136728D01*
X0096089D01*
X0095892Y0136925D01*
Y0137823D01*
X0097349D01*
Y0139122D01*
X0095892D01*
Y0140075D01*
X0096089Y0140272D01*
X0099239D01*
X0099436Y0140075D01*
D02*
G37*
G36*
X0093136D02*
Y0139122D01*
X009164D01*
Y0137823D01*
X0093136D01*
Y0136925D01*
X009294Y0136728D01*
X0089829D01*
X0089632Y0136925D01*
Y0140075D01*
X0089829Y0140272D01*
X009294D01*
X0093136Y0140075D01*
D02*
G37*
G36*
X0083971Y0130651D02*
Y0127541D01*
X0083774Y0127345D01*
X0082821D01*
Y012884D01*
X0081522D01*
Y0127345D01*
X0080625D01*
X0080428Y0127541D01*
Y0130651D01*
X0080625Y0130848D01*
X0083774D01*
X0083971Y0130651D01*
D02*
G37*
G36*
Y0124392D02*
Y0121242D01*
X0083774Y0121045D01*
X0080625D01*
X0080428Y0121242D01*
Y0124392D01*
X0080625Y0124589D01*
X0081522D01*
Y0123132D01*
X0082821D01*
Y0124589D01*
X0083774D01*
X0083971Y0124392D01*
D02*
G37*
G36*
X0168848Y0124875D02*
Y0121726D01*
X0168651Y0121529D01*
X0165541D01*
X0165345Y0121726D01*
Y0122679D01*
X0166841D01*
Y0123978D01*
X0165345D01*
Y0124875D01*
X0165541Y0125072D01*
X0168651D01*
X0168848Y0124875D01*
D02*
G37*
G36*
X0162589D02*
Y0123978D01*
X0161132D01*
Y0122679D01*
X0162589D01*
Y0121726D01*
X0162392Y0121529D01*
X0159242D01*
X0159045Y0121726D01*
Y0124875D01*
X0159242Y0125072D01*
X0162392D01*
X0162589Y0124875D01*
D02*
G37*
G36*
X0148971Y0099151D02*
Y0096041D01*
X0148774Y0095845D01*
X0147821D01*
Y0097341D01*
X0146522D01*
Y0095845D01*
X0145624D01*
X0145428Y0096041D01*
Y0099151D01*
X0145624Y0099348D01*
X0148774D01*
X0148971Y0099151D01*
D02*
G37*
G36*
Y0092892D02*
Y0089742D01*
X0148774Y0089545D01*
X0145624D01*
X0145428Y0089742D01*
Y0092892D01*
X0145624Y0093089D01*
X0146522D01*
Y0091632D01*
X0147821D01*
Y0093089D01*
X0148774D01*
X0148971Y0092892D01*
D02*
G37*
G36*
X0026955Y0080774D02*
Y0077624D01*
X0026758Y0077428D01*
X0023608D01*
X0023411Y0077624D01*
Y0078522D01*
X0024868D01*
Y0079821D01*
X0023411D01*
Y0080774D01*
X0023608Y0080971D01*
X0026758D01*
X0026955Y0080774D01*
D02*
G37*
G36*
X0020655D02*
Y0079821D01*
X001916D01*
Y0078522D01*
X0020655D01*
Y0077624D01*
X0020459Y0077428D01*
X0017348D01*
X0017152Y0077624D01*
Y0080774D01*
X0017348Y0080971D01*
X0020459D01*
X0020655Y0080774D01*
D02*
G37*
G36*
X0042955Y0080274D02*
Y0077125D01*
X0042758Y0076928D01*
X0039608D01*
X0039411Y0077125D01*
Y0078022D01*
X0040868D01*
Y0079321D01*
X0039411D01*
Y0080274D01*
X0039608Y0080471D01*
X0042758D01*
X0042955Y0080274D01*
D02*
G37*
G36*
X0036656D02*
Y0079321D01*
X003516D01*
Y0078022D01*
X0036656D01*
Y0077125D01*
X0036459Y0076928D01*
X0033349D01*
X0033152Y0077125D01*
Y0080274D01*
X0033349Y0080471D01*
X0036459D01*
X0036656Y0080274D01*
D02*
G37*
G36*
X0210272Y0076671D02*
Y007356D01*
X0210075Y0073364D01*
X0209122D01*
Y007486D01*
X0207823D01*
Y0073364D01*
X0206925D01*
X0206728Y007356D01*
Y0076671D01*
X0206925Y0076868D01*
X0210075D01*
X0210272Y0076671D01*
D02*
G37*
G36*
Y0070411D02*
Y0067261D01*
X0210075Y0067064D01*
X0206925D01*
X0206728Y0067261D01*
Y0070411D01*
X0206925Y0070608D01*
X0207823D01*
Y0069151D01*
X0209122D01*
Y0070608D01*
X0210075D01*
X0210272Y0070411D01*
D02*
G37*
G36*
X0227955Y0052274D02*
Y0049125D01*
X0227758Y0048928D01*
X0224608D01*
X0224411Y0049125D01*
Y0050022D01*
X0225868D01*
Y0051321D01*
X0224411D01*
Y0052274D01*
X0224608Y0052471D01*
X0227758D01*
X0227955Y0052274D01*
D02*
G37*
G36*
X0221656D02*
Y0051321D01*
X022016D01*
Y0050022D01*
X0221656D01*
Y0049125D01*
X0221459Y0048928D01*
X0218349D01*
X0218152Y0049125D01*
Y0052274D01*
X0218349Y0052471D01*
X0221459D01*
X0221656Y0052274D01*
D02*
G37*
G36*
X0242867Y0052075D02*
Y0048925D01*
X0242671Y0048728D01*
X023956D01*
X0239364Y0048925D01*
Y0049878D01*
X024086D01*
Y0051177D01*
X0239364D01*
Y0052075D01*
X023956Y0052272D01*
X0242671D01*
X0242867Y0052075D01*
D02*
G37*
G36*
X0236608D02*
Y0051177D01*
X0235151D01*
Y0049878D01*
X0236608D01*
Y0048925D01*
X0236411Y0048728D01*
X0233261D01*
X0233064Y0048925D01*
Y0052075D01*
X0233261Y0052272D01*
X0236411D01*
X0236608Y0052075D01*
D02*
G37*
G36*
X0187348Y0035375D02*
Y0032226D01*
X0187152Y0032029D01*
X0184041D01*
X0183844Y0032226D01*
Y0033179D01*
X018534D01*
Y0034478D01*
X0183844D01*
Y0035375D01*
X0184041Y0035572D01*
X0187152D01*
X0187348Y0035375D01*
D02*
G37*
G36*
X0181089D02*
Y0034478D01*
X0179632D01*
Y0033179D01*
X0181089D01*
Y0032226D01*
X0180892Y0032029D01*
X0177742D01*
X0177545Y0032226D01*
Y0035375D01*
X0177742Y0035572D01*
X0180892D01*
X0181089Y0035375D01*
D02*
G37*
G36*
X0025955Y0025774D02*
Y0022625D01*
X0025758Y0022428D01*
X0022608D01*
X0022411Y0022625D01*
Y0023522D01*
X0023868D01*
Y0024821D01*
X0022411D01*
Y0025774D01*
X0022608Y0025971D01*
X0025758D01*
X0025955Y0025774D01*
D02*
G37*
G36*
X0019656D02*
Y0024821D01*
X0018159D01*
Y0023522D01*
X0019656D01*
Y0022625D01*
X0019459Y0022428D01*
X0016349D01*
X0016152Y0022625D01*
Y0025774D01*
X0016349Y0025971D01*
X0019459D01*
X0019656Y0025774D01*
D02*
G37*
G36*
X0044368Y0025575D02*
Y0022425D01*
X0044171Y0022228D01*
X0041021D01*
X0040824Y0022425D01*
Y0023323D01*
X0042281D01*
Y0024622D01*
X0040824D01*
Y0025575D01*
X0041021Y0025772D01*
X0044171D01*
X0044368Y0025575D01*
D02*
G37*
G36*
X0038068D02*
Y0024622D01*
X0036572D01*
Y0023323D01*
X0038068D01*
Y0022425D01*
X0037872Y0022228D01*
X0034761D01*
X0034565Y0022425D01*
Y0025575D01*
X0034761Y0025772D01*
X0037872D01*
X0038068Y0025575D01*
D02*
G37*
G36*
X0252936Y0012575D02*
Y0009425D01*
X0252739Y0009228D01*
X0249589D01*
X0249392Y0009425D01*
Y0010323D01*
X0250849D01*
Y0011622D01*
X0249392D01*
Y0012575D01*
X0249589Y0012772D01*
X0252739D01*
X0252936Y0012575D01*
D02*
G37*
G36*
X0246636D02*
Y0011622D01*
X024514D01*
Y0010323D01*
X0246636D01*
Y0009425D01*
X024644Y0009228D01*
X0243329D01*
X0243132Y0009425D01*
Y0012575D01*
X0243329Y0012772D01*
X024644D01*
X0246636Y0012575D01*
D02*
G37*
G36*
X0253091Y0004714D02*
Y0001564D01*
X0252894Y0001368D01*
X0251996D01*
Y0002824D01*
X0250697D01*
Y0001368D01*
X0249744D01*
X0249547Y0001564D01*
Y0004714D01*
X0249744Y0004911D01*
X0252894D01*
X0253091Y0004714D01*
D02*
G37*
G36*
X024559D02*
Y0001564D01*
X0245394Y0001368D01*
X0244496D01*
Y0002824D01*
X0243197D01*
Y0001368D01*
X0242244D01*
X0242047Y0001564D01*
Y0004714D01*
X0242244Y0004911D01*
X0245394D01*
X024559Y0004714D01*
D02*
G37*
G36*
X0054435Y0000575D02*
Y-0002575D01*
X0054239Y-0002772D01*
X0051128D01*
X0050932Y-0002575D01*
Y-0001622D01*
X0052428D01*
Y-0000323D01*
X0050932D01*
Y0000575D01*
X0051128Y0000772D01*
X0054239D01*
X0054435Y0000575D01*
D02*
G37*
G36*
X0048176D02*
Y-0000323D01*
X0046719D01*
Y-0001622D01*
X0048176D01*
Y-0002575D01*
X0047979Y-0002772D01*
X0044829D01*
X0044632Y-0002575D01*
Y0000575D01*
X0044829Y0000772D01*
X0047979D01*
X0048176Y0000575D01*
D02*
G37*
G36*
X0253091Y-0001585D02*
Y-0004695D01*
X0252894Y-0004892D01*
X0249744D01*
X0249547Y-0004695D01*
Y-0001585D01*
X0249744Y-0001388D01*
X0250697D01*
Y-0002884D01*
X0251996D01*
Y-0001388D01*
X0252894D01*
X0253091Y-0001585D01*
D02*
G37*
G36*
X024559D02*
Y-0004695D01*
X0245394Y-0004892D01*
X0242244D01*
X0242047Y-0004695D01*
Y-0001585D01*
X0242244Y-0001388D01*
X0243197D01*
Y-0002884D01*
X0244496D01*
Y-0001388D01*
X0245394D01*
X024559Y-0001585D01*
D02*
G37*
G36*
X0052935Y-0017425D02*
Y-0020575D01*
X0052739Y-0020772D01*
X0049628D01*
X0049432Y-0020575D01*
Y-0019622D01*
X0050928D01*
Y-0018323D01*
X0049432D01*
Y-0017425D01*
X0049628Y-0017228D01*
X0052739D01*
X0052935Y-0017425D01*
D02*
G37*
G36*
X0046676D02*
Y-0018323D01*
X0045219D01*
Y-0019622D01*
X0046676D01*
Y-0020575D01*
X0046479Y-0020772D01*
X0043329D01*
X0043132Y-0020575D01*
Y-0017425D01*
X0043329Y-0017228D01*
X0046479D01*
X0046676Y-0017425D01*
D02*
G37*
G36*
X0046971Y-0023848D02*
Y-0026959D01*
X0046774Y-0027156D01*
X0045821D01*
Y-0025659D01*
X0044522D01*
Y-0027156D01*
X0043624D01*
X0043428Y-0026959D01*
Y-0023848D01*
X0043624Y-0023652D01*
X0046774D01*
X0046971Y-0023848D01*
D02*
G37*
G36*
Y-0030108D02*
Y-0033258D01*
X0046774Y-0033455D01*
X0043624D01*
X0043428Y-0033258D01*
Y-0030108D01*
X0043624Y-0029911D01*
X0044522D01*
Y-0031368D01*
X0045821D01*
Y-0029911D01*
X0046774D01*
X0046971Y-0030108D01*
D02*
G37*
G36*
X0056971Y-0030849D02*
Y-0033959D01*
X0056774Y-0034155D01*
X0055821D01*
Y-003266D01*
X0054522D01*
Y-0034155D01*
X0053624D01*
X0053428Y-0033959D01*
Y-0030849D01*
X0053624Y-0030652D01*
X0056774D01*
X0056971Y-0030849D01*
D02*
G37*
G36*
X0223072Y-0032242D02*
Y-0035392D01*
X0222875Y-0035589D01*
X0221978D01*
Y-0034132D01*
X0220679D01*
Y-0035589D01*
X0219726D01*
X0219529Y-0035392D01*
Y-0032242D01*
X0219726Y-0032045D01*
X0222875D01*
X0223072Y-0032242D01*
D02*
G37*
G36*
X0215572D02*
Y-0035392D01*
X0215375Y-0035589D01*
X0214478D01*
Y-0034132D01*
X0213179D01*
Y-0035589D01*
X0212226D01*
X0212029Y-0035392D01*
Y-0032242D01*
X0212226Y-0032045D01*
X0215375D01*
X0215572Y-0032242D01*
D02*
G37*
G36*
X0208572D02*
Y-0035392D01*
X0208376Y-0035589D01*
X0207478D01*
Y-0034132D01*
X0206179D01*
Y-0035589D01*
X0205226D01*
X0205029Y-0035392D01*
Y-0032242D01*
X0205226Y-0032045D01*
X0208376D01*
X0208572Y-0032242D01*
D02*
G37*
G36*
X0201572D02*
Y-0035392D01*
X0201376Y-0035589D01*
X0200478D01*
Y-0034132D01*
X0199179D01*
Y-0035589D01*
X0198226D01*
X0198029Y-0035392D01*
Y-0032242D01*
X0198226Y-0032045D01*
X0201376D01*
X0201572Y-0032242D01*
D02*
G37*
G36*
X0146527Y-0032891D02*
Y-003793D01*
X014633Y-0038127D01*
X0141802D01*
X0141605Y-003793D01*
X0141625Y-0036316D01*
X0143357D01*
Y-0034544D01*
X0141605D01*
X0141605Y-0032891D01*
X0141802Y-0032694D01*
X014633D01*
X0146527Y-0032891D01*
D02*
G37*
G36*
X0138062D02*
X0138042Y-0034544D01*
X013631D01*
Y-0036316D01*
X0138082D01*
X0138062Y-003793D01*
X0137865Y-0038127D01*
X0133337D01*
X0133141Y-003793D01*
Y-0032891D01*
X0133337Y-0032694D01*
X0137865D01*
X0138062Y-0032891D01*
D02*
G37*
G36*
X0056971Y-0037108D02*
Y-0040258D01*
X0056774Y-0040455D01*
X0053624D01*
X0053428Y-0040258D01*
Y-0037108D01*
X0053624Y-0036911D01*
X0054522D01*
Y-0038368D01*
X0055821D01*
Y-0036911D01*
X0056774D01*
X0056971Y-0037108D01*
D02*
G37*
G36*
X0223072Y-0038541D02*
Y-0041651D01*
X0222875Y-0041848D01*
X0219726D01*
X0219529Y-0041651D01*
Y-0038541D01*
X0219726Y-0038344D01*
X0220679D01*
Y-003984D01*
X0221978D01*
Y-0038344D01*
X0222875D01*
X0223072Y-0038541D01*
D02*
G37*
G36*
X0215572D02*
Y-0041651D01*
X0215375Y-0041848D01*
X0212226D01*
X0212029Y-0041651D01*
Y-0038541D01*
X0212226Y-0038344D01*
X0213179D01*
Y-003984D01*
X0214478D01*
Y-0038344D01*
X0215375D01*
X0215572Y-0038541D01*
D02*
G37*
G36*
X0208572D02*
Y-0041651D01*
X0208376Y-0041848D01*
X0205226D01*
X0205029Y-0041651D01*
Y-0038541D01*
X0205226Y-0038344D01*
X0206179D01*
Y-003984D01*
X0207478D01*
Y-0038344D01*
X0208376D01*
X0208572Y-0038541D01*
D02*
G37*
G36*
X0201572D02*
Y-0041651D01*
X0201376Y-0041848D01*
X0198226D01*
X0198029Y-0041651D01*
Y-0038541D01*
X0198226Y-0038344D01*
X0199179D01*
Y-003984D01*
X0200478D01*
Y-0038344D01*
X0201376D01*
X0201572Y-0038541D01*
D02*
G37*
G36*
X0176471Y-0039748D02*
Y-0042859D01*
X0176274Y-0043055D01*
X0175321D01*
Y-0041559D01*
X0174022D01*
Y-0043055D01*
X0173125D01*
X0172928Y-0042859D01*
Y-0039748D01*
X0173125Y-0039552D01*
X0176274D01*
X0176471Y-0039748D01*
D02*
G37*
G36*
X0189355Y-0040426D02*
Y-0043576D01*
X0189158Y-0043772D01*
X0186008D01*
X0185811Y-0043576D01*
Y-0042678D01*
X0187268D01*
Y-0041379D01*
X0185811D01*
Y-0040426D01*
X0186008Y-0040229D01*
X0189158D01*
X0189355Y-0040426D01*
D02*
G37*
G36*
X0183055D02*
Y-0041379D01*
X018156D01*
Y-0042678D01*
X0183055D01*
Y-0043576D01*
X0182859Y-0043772D01*
X0179748D01*
X0179552Y-0043576D01*
Y-0040426D01*
X0179748Y-0040229D01*
X0182859D01*
X0183055Y-0040426D01*
D02*
G37*
G36*
X0176471Y-0046008D02*
Y-0049158D01*
X0176274Y-0049355D01*
X0173125D01*
X0172928Y-0049158D01*
Y-0046008D01*
X0173125Y-0045811D01*
X0174022D01*
Y-0047268D01*
X0175321D01*
Y-0045811D01*
X0176274D01*
X0176471Y-0046008D01*
D02*
G37*
G36*
X0084072Y-0044242D02*
Y-0047392D01*
X0083876Y-0047589D01*
X0082978D01*
Y-0046132D01*
X0081679D01*
Y-0047589D01*
X0080726D01*
X0080529Y-0047392D01*
Y-0044242D01*
X0080726Y-0044045D01*
X0083876D01*
X0084072Y-0044242D01*
D02*
G37*
G36*
X0063572D02*
Y-0047392D01*
X0063376Y-0047589D01*
X0062478D01*
Y-0046132D01*
X0061179D01*
Y-0047589D01*
X0060226D01*
X0060029Y-0047392D01*
Y-0044242D01*
X0060226Y-0044045D01*
X0063376D01*
X0063572Y-0044242D01*
D02*
G37*
G36*
X0146527Y-0043391D02*
Y-004843D01*
X014633Y-0048627D01*
X0141802D01*
X0141605Y-004843D01*
X0141625Y-0046816D01*
X0143357D01*
Y-0045044D01*
X0141605D01*
X0141605Y-0043391D01*
X0141802Y-0043194D01*
X014633D01*
X0146527Y-0043391D01*
D02*
G37*
G36*
X0138062D02*
X0138042Y-0045044D01*
X013631D01*
Y-0046816D01*
X0138082D01*
X0138062Y-004843D01*
X0137865Y-0048627D01*
X0133337D01*
X0133141Y-004843D01*
Y-0043391D01*
X0133337Y-0043194D01*
X0137865D01*
X0138062Y-0043391D01*
D02*
G37*
G36*
X0084072Y-0050541D02*
Y-0053651D01*
X0083876Y-0053848D01*
X0080726D01*
X0080529Y-0053651D01*
Y-0050541D01*
X0080726Y-0050345D01*
X0081679D01*
Y-0051841D01*
X0082978D01*
Y-0050345D01*
X0083876D01*
X0084072Y-0050541D01*
D02*
G37*
G36*
X0063572D02*
Y-0053651D01*
X0063376Y-0053848D01*
X0060226D01*
X0060029Y-0053651D01*
Y-0050541D01*
X0060226Y-0050345D01*
X0061179D01*
Y-0051841D01*
X0062478D01*
Y-0050345D01*
X0063376D01*
X0063572Y-0050541D01*
D02*
G37*
G36*
X0232277Y-004899D02*
Y-005403D01*
X0232081Y-0054226D01*
X0227553D01*
X0227356Y-005403D01*
X0227376Y-0052376D01*
X0229108D01*
Y-0050605D01*
X0227336D01*
X0227356Y-004899D01*
X0227553Y-0048793D01*
X0232081D01*
X0232277Y-004899D01*
D02*
G37*
G36*
X0223813D02*
X0223793Y-0050605D01*
X0222061D01*
Y-0052376D01*
X0223813D01*
X0223813Y-005403D01*
X0223616Y-0054226D01*
X0219089D01*
X0218892Y-005403D01*
Y-004899D01*
X0219089Y-0048793D01*
X0223616D01*
X0223813Y-004899D01*
D02*
G37*
G36*
X0083792Y-0057345D02*
Y-0060495D01*
X0083595Y-0060691D01*
X0080485D01*
X0080288Y-0060495D01*
Y-0059542D01*
X0081784D01*
Y-0058243D01*
X0080288D01*
Y-0057345D01*
X0080485Y-0057148D01*
X0083595D01*
X0083792Y-0057345D01*
D02*
G37*
G36*
X0077532D02*
Y-0058243D01*
X0076076D01*
Y-0059542D01*
X0077532D01*
Y-0060495D01*
X0077336Y-0060691D01*
X0074186D01*
X0073989Y-0060495D01*
Y-0057345D01*
X0074186Y-0057148D01*
X0077336D01*
X0077532Y-0057345D01*
D02*
G37*
D19*
X018056Y-0048176D02*
D03*
X018804D02*
D03*
X01843Y-0057624D02*
D03*
D22*
X0089579Y01265D02*
D03*
X0099421Y012276D02*
D03*
Y013024D02*
D03*
D23*
X0095219Y-0060311D02*
D03*
Y-0065823D02*
D03*
X0068781Y-0045777D02*
D03*
Y-0051289D02*
D03*
X0075281Y-0045777D02*
D03*
Y-0051289D02*
D03*
X0095281Y-0017277D02*
D03*
Y-0022789D02*
D03*
X00475Y-00455D02*
D03*
Y-0039988D02*
D03*
X0077781Y0167711D02*
D03*
Y0173223D02*
D03*
X0157281Y0096723D02*
D03*
Y0091211D02*
D03*
X01905Y0053488D02*
D03*
Y0059D02*
D03*
X0190719Y0067277D02*
D03*
Y0072789D02*
D03*
D26*
X0183023Y-0064681D02*
D03*
X0177511D02*
D03*
X0092223Y-0037781D02*
D03*
X0086711D02*
D03*
X0062321Y-0059336D02*
D03*
X0067833D02*
D03*
X00365Y-00445D02*
D03*
X0030988D02*
D03*
X0097777Y0016781D02*
D03*
X0103289D02*
D03*
X0084Y00125D02*
D03*
X0078488D02*
D03*
X0036223Y-0000781D02*
D03*
X0030711D02*
D03*
X0051Y0179D02*
D03*
X0045488D02*
D03*
X0185223Y0042219D02*
D03*
X0179711D02*
D03*
X0177677Y0081281D02*
D03*
X0183189D02*
D03*
X0232789Y0083281D02*
D03*
X0227277D02*
D03*
X0179711Y0026219D02*
D03*
X0185223D02*
D03*
D31*
X01071Y-00168D02*
D03*
X01312D02*
D03*
D86*
X01142Y-00622D02*
D03*
Y-00381D02*
D03*
D87*
X0204695Y0147D02*
D03*
X0216506D02*
D03*
D88*
X02106Y0153102D02*
D03*
D89*
X0153874Y0025169D02*
D03*
X0116472D02*
D03*
Y00795D02*
D03*
X0153874D02*
D03*
X0151906Y0025169D02*
D03*
X0149937D02*
D03*
X0147968D02*
D03*
X0146D02*
D03*
X0144032D02*
D03*
X0142063D02*
D03*
X0140094D02*
D03*
X0138126D02*
D03*
X0136158D02*
D03*
X0134189D02*
D03*
X013222D02*
D03*
X0130252D02*
D03*
X0128284D02*
D03*
X0126315D02*
D03*
X0124346D02*
D03*
X0122378D02*
D03*
X0120409D02*
D03*
X0118441D02*
D03*
Y00795D02*
D03*
X0120409D02*
D03*
X0122378D02*
D03*
X0124346D02*
D03*
X0126315D02*
D03*
X0128284D02*
D03*
X0130252D02*
D03*
X013222D02*
D03*
X0134189D02*
D03*
X0136158D02*
D03*
X0138126D02*
D03*
X0140094D02*
D03*
X0142063D02*
D03*
X0144032D02*
D03*
X0146D02*
D03*
X0147968D02*
D03*
X0149937D02*
D03*
X0151906D02*
D03*
D90*
X0162339Y0033634D02*
D03*
X0108008D02*
D03*
Y0071035D02*
D03*
X0162339D02*
D03*
Y0069067D02*
D03*
Y0067098D02*
D03*
Y006513D02*
D03*
Y0063161D02*
D03*
Y0061193D02*
D03*
Y0059224D02*
D03*
Y0057256D02*
D03*
Y0055287D02*
D03*
Y0053319D02*
D03*
Y005135D02*
D03*
Y0049382D02*
D03*
Y0047413D02*
D03*
Y0045445D02*
D03*
Y0043476D02*
D03*
Y0041508D02*
D03*
Y0039539D02*
D03*
Y0037571D02*
D03*
Y0035602D02*
D03*
X0108008D02*
D03*
Y0037571D02*
D03*
Y0039539D02*
D03*
Y0041508D02*
D03*
Y0043476D02*
D03*
Y0045445D02*
D03*
Y0047413D02*
D03*
Y0049382D02*
D03*
Y005135D02*
D03*
Y0053319D02*
D03*
Y0055287D02*
D03*
Y0057256D02*
D03*
Y0059224D02*
D03*
Y0061193D02*
D03*
Y0063161D02*
D03*
Y006513D02*
D03*
Y0067098D02*
D03*
Y0069067D02*
D03*
D91*
X0212258Y-0048488D02*
D03*
X0208518D02*
D03*
X0204778D02*
D03*
Y-0059512D02*
D03*
X0208518D02*
D03*
X0212258D02*
D03*
D92*
X0162961Y-00618D02*
D03*
Y-0059241D02*
D03*
Y-0064359D02*
D03*
X0170639D02*
D03*
Y-00618D02*
D03*
Y-0059241D02*
D03*
D93*
X0072516Y-001387D02*
D03*
D94*
X0061886Y-002076D02*
D03*
Y-0018791D02*
D03*
Y-0016823D02*
D03*
Y-0014854D02*
D03*
Y-0012886D02*
D03*
Y-0010917D02*
D03*
Y-0008949D02*
D03*
Y-000698D02*
D03*
X0083146Y-000698D02*
D03*
Y-0008949D02*
D03*
Y-0010917D02*
D03*
Y-0012886D02*
D03*
Y-0014854D02*
D03*
Y-0016823D02*
D03*
Y-0018791D02*
D03*
Y-002076D02*
D03*
D95*
X0065626Y-000324D02*
D03*
X0067594D02*
D03*
X0069563D02*
D03*
X0071531D02*
D03*
X00735D02*
D03*
X0075468D02*
D03*
X0077437D02*
D03*
X0079405D02*
D03*
Y-00245D02*
D03*
X0077437D02*
D03*
X0075468D02*
D03*
X00735D02*
D03*
X0071531D02*
D03*
X0069563D02*
D03*
X0067594D02*
D03*
X0065626D02*
D03*
D96*
X0041311Y00345D02*
D03*
Y00445D02*
D03*
X0017689D02*
D03*
Y00345D02*
D03*
X0041311Y00585D02*
D03*
Y00685D02*
D03*
X0017689D02*
D03*
Y00585D02*
D03*
D97*
X005868Y0171022D02*
D03*
Y0167282D02*
D03*
Y0163542D02*
D03*
X006931D02*
D03*
Y0167282D02*
D03*
Y0171022D02*
D03*
D98*
X0159687Y0158187D02*
D03*
Y0165273D02*
D03*
Y017236D02*
D03*
X01526Y0179446D02*
D03*
X0145513D02*
D03*
X0138427D02*
D03*
X013134D02*
D03*
X0124254Y017236D02*
D03*
Y0165273D02*
D03*
Y0158187D02*
D03*
X013134Y01511D02*
D03*
X0138427D02*
D03*
X0145513D02*
D03*
X01526D02*
D03*
D99*
X0175828Y014795D02*
D03*
Y0152281D02*
D03*
Y0156612D02*
D03*
Y0160942D02*
D03*
Y0165273D02*
D03*
Y0169604D02*
D03*
Y0173935D02*
D03*
Y0178265D02*
D03*
Y0182596D02*
D03*
X0108112D02*
D03*
Y0178265D02*
D03*
Y0173935D02*
D03*
Y0169604D02*
D03*
Y0165273D02*
D03*
Y0160942D02*
D03*
Y0156612D02*
D03*
Y0152281D02*
D03*
Y014795D02*
D03*
D100*
X0167954Y0195391D02*
D03*
X0163624D02*
D03*
X0159293D02*
D03*
X0154962D02*
D03*
X0150631D02*
D03*
X0146301D02*
D03*
X014197D02*
D03*
X0137639D02*
D03*
X0133309D02*
D03*
X0128978D02*
D03*
X0124647D02*
D03*
X0120317D02*
D03*
X0115986D02*
D03*
Y0135155D02*
D03*
X0120317D02*
D03*
X0124647D02*
D03*
X0128978D02*
D03*
X0133309D02*
D03*
X0137639D02*
D03*
X014197D02*
D03*
X0146301D02*
D03*
X0150631D02*
D03*
X0154962D02*
D03*
X0159293D02*
D03*
X0163624D02*
D03*
X0167954D02*
D03*
D101*
X0180808Y0068011D02*
D03*
Y0057972D02*
D03*
D102*
X0231819Y0007465D02*
D03*
X0228079Y-0002378D02*
D03*
X0235559D02*
D03*
D103*
X0220163Y0059674D02*
D03*
Y0064674D02*
D03*
Y0069674D02*
D03*
Y0074674D02*
D03*
X0239061Y0059674D02*
D03*
Y0064674D02*
D03*
Y0069674D02*
D03*
Y0074674D02*
D03*
M02*
