G04*
G04 #@! TF.GenerationSoftware,Altium Limited,Altium Designer,22.0.2 (36)*
G04*
G04 Layer_Color=32768*
%FSTAX25Y25*%
%MOIN*%
G70*
G04*
G04 #@! TF.SameCoordinates,0D831988-8BE3-4B2D-80CC-02C8544F8A67*
G04*
G04*
G04 #@! TF.FilePolarity,Positive*
G04*
G01*
G75*
%ADD129C,0.00200*%
%ADD130C,0.00800*%
G36*
X0119161Y0196504D02*
X0119161Y0196406D01*
X0122075D01*
Y0195224D01*
X0118925D01*
Y019617D01*
X0118925D01*
X0118827Y019617D01*
X0118689Y0196308D01*
X0118688Y0196504D01*
X0118827Y0196642D01*
X0118925Y0196642D01*
X0119023Y0196643D01*
X0119161Y0196504D01*
D02*
G37*
G36*
X0122075Y0190106D02*
X0118925D01*
Y0191288D01*
X0122075D01*
Y0190106D01*
D02*
G37*
G36*
X0076695Y018601D02*
X0076833Y0185872D01*
X0076833Y0185774D01*
X0076833Y0185676D01*
X0076695Y0185538D01*
X0076596Y0185538D01*
Y0182624D01*
X0075415D01*
Y0185774D01*
X0076361D01*
Y0185774D01*
X0076361Y0185872D01*
X0076499Y018601D01*
X0076695Y018601D01*
D02*
G37*
G36*
X0071478Y0182624D02*
X0070297D01*
Y0185774D01*
X0071478D01*
Y0182624D01*
D02*
G37*
G36*
X0089075Y0181934D02*
X0085925D01*
Y0183116D01*
X0089075D01*
Y0181934D01*
D02*
G37*
G36*
X0093226Y0183333D02*
X0093324Y0183333D01*
X0093462Y0183195D01*
X0093462Y0183097D01*
X0096376D01*
Y0181915D01*
X0093226D01*
Y0182861D01*
X0093226D01*
X0093128Y0182861D01*
X009299Y0182999D01*
X009299Y0183195D01*
X0093128Y0183333D01*
X0093226Y0183333D01*
D02*
G37*
G36*
X0170085Y0180726D02*
X0169139D01*
Y0180726D01*
X0169139Y0180628D01*
X0169001Y018049D01*
X0168805Y018049D01*
X0168667Y0180628D01*
X0168667Y0180726D01*
X0168667Y0180824D01*
X0168805Y0180962D01*
X0168904Y0180962D01*
Y0183876D01*
X0170085D01*
Y0180726D01*
D02*
G37*
G36*
X0175203D02*
X0174022D01*
Y0183876D01*
X0175203D01*
Y0180726D01*
D02*
G37*
G36*
X0131116Y0180207D02*
X0129935D01*
Y0183356D01*
X0131116D01*
Y0180207D01*
D02*
G37*
G36*
X0125998D02*
X0125053D01*
Y0180206D01*
X0125053Y0180108D01*
X0124915Y017997D01*
X0124719Y017997D01*
X012458Y0180108D01*
X012458Y0180206D01*
X012458Y0180304D01*
X0124718Y0180442D01*
X0124817Y0180443D01*
Y0183356D01*
X0125998D01*
Y0180207D01*
D02*
G37*
G36*
X0064065Y0177841D02*
X0062884D01*
Y0180991D01*
X0064065D01*
Y0177841D01*
D02*
G37*
G36*
X0069184Y0178077D02*
X0069282Y0178077D01*
X006942Y0177939D01*
X006942Y0177841D01*
X006942Y0177743D01*
X0069282Y0177605D01*
X0069086Y0177605D01*
X0068948Y0177743D01*
X0068948Y0177841D01*
Y0177841D01*
X0068002D01*
Y0180991D01*
X0069184D01*
Y0178077D01*
D02*
G37*
G36*
X0046275Y0177425D02*
X0045094D01*
Y0180575D01*
X0046275D01*
Y0177425D01*
D02*
G37*
G36*
X0051394Y0177661D02*
X0051492Y0177661D01*
X0051631Y0177523D01*
X0051631Y0177425D01*
X005163Y0177327D01*
X0051492Y0177188D01*
X0051296Y0177189D01*
X0051158Y0177327D01*
X0051158Y0177425D01*
Y0177425D01*
X0050213D01*
Y0180575D01*
X0051394D01*
Y0177661D01*
D02*
G37*
G36*
X0096376Y0176797D02*
X0093226D01*
Y0177978D01*
X0096376D01*
Y0176797D01*
D02*
G37*
G36*
X0089075Y0177052D02*
X0089075D01*
X0089173Y0177052D01*
X0089311Y0176914D01*
X0089311Y0176718D01*
X0089173Y017658D01*
X0089075Y017658D01*
X0088977Y017658D01*
X0088839Y0176718D01*
X0088839Y0176816D01*
X0085925D01*
Y0177998D01*
X0089075D01*
Y0177052D01*
D02*
G37*
G36*
X0131195Y017501D02*
X0131333Y0174872D01*
X0131333Y0174774D01*
X0131333Y0174676D01*
X0131195Y0174538D01*
X0131096Y0174538D01*
Y0171624D01*
X0129915D01*
Y0174774D01*
X0130861D01*
Y0174774D01*
X0130861Y0174872D01*
X0130999Y017501D01*
X0131195Y017501D01*
D02*
G37*
G36*
X0079356Y0172435D02*
X0076207D01*
Y0173616D01*
X0079356D01*
Y0172435D01*
D02*
G37*
G36*
X0125978Y0171624D02*
X0124797D01*
Y0174774D01*
X0125978D01*
Y0171624D01*
D02*
G37*
G36*
X0170085Y0171226D02*
X0169139D01*
Y0171226D01*
X0169139Y0171128D01*
X0169001Y017099D01*
X0168805Y017099D01*
X0168667Y0171128D01*
X0168667Y0171226D01*
X0168667Y0171324D01*
X0168805Y0171462D01*
X0168904Y0171462D01*
Y0174376D01*
X0170085D01*
Y0171226D01*
D02*
G37*
G36*
X0175203D02*
X0174022D01*
Y0174376D01*
X0175203D01*
Y0171226D01*
D02*
G37*
G36*
X0069507Y0170175D02*
X0067105D01*
Y0171868D01*
X0069507D01*
Y0170175D01*
D02*
G37*
G36*
X0060885Y0170176D02*
X0060353D01*
Y0170175D01*
X0058483D01*
Y0171868D01*
X0060314D01*
Y0171869D01*
X0060885D01*
Y0170176D01*
D02*
G37*
G36*
X0046066Y0169425D02*
X0044884D01*
Y0172575D01*
X0046066D01*
Y0169425D01*
D02*
G37*
G36*
X0051184Y0169661D02*
X0051282Y0169661D01*
X005142Y0169523D01*
X005142Y0169425D01*
X005142Y0169327D01*
X0051282Y0169189D01*
X0051086Y0169189D01*
X0050948Y0169327D01*
X0050948Y0169425D01*
Y0169425D01*
X0050002D01*
Y0172575D01*
X0051184D01*
Y0169661D01*
D02*
G37*
G36*
X0092585Y0167726D02*
X0091639D01*
Y0167726D01*
X0091639Y0167628D01*
X0091501Y016749D01*
X0091305Y016749D01*
X0091167Y0167628D01*
X0091167Y0167726D01*
X0091167Y0167824D01*
X0091305Y0167962D01*
X0091404Y0167962D01*
Y0170876D01*
X0092585D01*
Y0167726D01*
D02*
G37*
G36*
X0097703D02*
X0096522D01*
Y0170876D01*
X0097703D01*
Y0167726D01*
D02*
G37*
G36*
X0079356Y0167317D02*
X0076442D01*
X0076442Y0167218D01*
X0076304Y016708D01*
X0076206Y016708D01*
X0076108Y016708D01*
X007597Y0167219D01*
X007597Y0167415D01*
X0076108Y0167553D01*
X0076206Y0167553D01*
X0076207D01*
Y0168498D01*
X0079356D01*
Y0167317D01*
D02*
G37*
G36*
X0131195Y016751D02*
X0131333Y0167372D01*
X0131333Y0167274D01*
X0131333Y0167176D01*
X0131195Y0167038D01*
X0131096Y0167038D01*
Y0164124D01*
X0129915D01*
Y0167274D01*
X0130861D01*
Y0167274D01*
X0130861Y0167372D01*
X0130999Y016751D01*
X0131195Y016751D01*
D02*
G37*
G36*
X0067676Y0168128D02*
X0069507D01*
Y0166435D01*
X0067637D01*
Y0166435D01*
X0067105D01*
Y0168128D01*
X0067676D01*
Y0168128D01*
D02*
G37*
G36*
X0060885Y0166436D02*
X0060353D01*
Y0166435D01*
X0058483D01*
Y0168128D01*
X0060314D01*
Y0168129D01*
X0060885D01*
Y0166436D01*
D02*
G37*
G36*
X0125978Y0164124D02*
X0124797D01*
Y0167274D01*
X0125978D01*
Y0164124D01*
D02*
G37*
G36*
X0067676Y0164388D02*
X0069507D01*
Y0162695D01*
X0067637D01*
Y0162695D01*
X0067105D01*
Y0164388D01*
X0067676D01*
Y0164388D01*
D02*
G37*
G36*
X0060885Y0162696D02*
X0060353D01*
Y0162695D01*
X0058483D01*
Y0164388D01*
X0060314D01*
Y0164389D01*
X0060885D01*
Y0162696D01*
D02*
G37*
G36*
X017542Y0165392D02*
X017542Y0165294D01*
X017542Y0165196D01*
X0175282Y0165058D01*
X0175183Y0165058D01*
Y0162144D01*
X0174002D01*
Y0165293D01*
X0174947D01*
Y0165294D01*
X0174947Y0165392D01*
X0175085Y016553D01*
X0175281Y016553D01*
X017542Y0165392D01*
D02*
G37*
G36*
X0170065Y0162144D02*
X0168884D01*
Y0165293D01*
X0170065D01*
Y0162144D01*
D02*
G37*
G36*
X0058719Y0161671D02*
Y0161573D01*
Y0161475D01*
X0058581Y0161337D01*
X0058385D01*
X0058247Y0161475D01*
Y0161573D01*
Y0161671D01*
X0058385Y0161809D01*
X0058581D01*
X0058719Y0161671D01*
D02*
G37*
G36*
X0092585Y0160226D02*
X0091639D01*
Y0160226D01*
X0091639Y0160128D01*
X0091501Y015999D01*
X0091305Y015999D01*
X0091167Y0160128D01*
X0091167Y0160226D01*
X0091167Y0160324D01*
X0091305Y0160462D01*
X0091404Y0160462D01*
Y0163376D01*
X0092585D01*
Y0160226D01*
D02*
G37*
G36*
X0097703D02*
X0096522D01*
Y0163376D01*
X0097703D01*
Y0160226D01*
D02*
G37*
G36*
X0079376Y0159522D02*
X0076226D01*
Y0160703D01*
X0079376D01*
Y0159522D01*
D02*
G37*
G36*
X013142Y0159392D02*
X013142Y0159294D01*
X013142Y0159196D01*
X0131282Y0159058D01*
X0131183Y0159057D01*
Y0156144D01*
X0130002D01*
Y0159293D01*
X0130947D01*
Y0159294D01*
X0130947Y0159391D01*
X0131085Y015953D01*
X0131281Y015953D01*
X013142Y0159392D01*
D02*
G37*
G36*
X0126065Y0156144D02*
X0124884D01*
Y0159293D01*
X0126065D01*
Y0156144D01*
D02*
G37*
G36*
X0079376Y0154403D02*
X0076462D01*
X0076462Y0154305D01*
X0076324Y0154167D01*
X0076226Y0154167D01*
X0076128Y0154167D01*
X007599Y0154305D01*
X007599Y0154501D01*
X0076128Y0154639D01*
X0076226Y0154639D01*
X0076226D01*
Y0155585D01*
X0079376D01*
Y0154403D01*
D02*
G37*
G36*
X0175244Y0153707D02*
X0174063D01*
Y0156856D01*
X0175244D01*
Y0153707D01*
D02*
G37*
G36*
X0170126D02*
X016918D01*
Y0153706D01*
X0169181Y0153609D01*
X0169042Y015347D01*
X0168846Y015347D01*
X0168708Y0153608D01*
X0168708Y0153706D01*
X0168708Y0153804D01*
X0168846Y0153942D01*
X0168945Y0153943D01*
Y0156856D01*
X0170126D01*
Y0153707D01*
D02*
G37*
G36*
X0092085Y0153226D02*
X0091139D01*
Y0153226D01*
X0091139Y0153128D01*
X0091001Y015299D01*
X0090805Y015299D01*
X0090667Y0153128D01*
X0090667Y0153226D01*
X0090667Y0153324D01*
X0090805Y0153462D01*
X0090904Y0153462D01*
Y0156376D01*
X0092085D01*
Y0153226D01*
D02*
G37*
G36*
X0097203D02*
X0096022D01*
Y0156376D01*
X0097203D01*
Y0153226D01*
D02*
G37*
G36*
X015242Y0156392D02*
X015242Y0156294D01*
X015242Y0156196D01*
X0152282Y0156058D01*
X0152183Y0156058D01*
Y0153144D01*
X0151002D01*
Y0156293D01*
X0151947D01*
Y0156294D01*
X0151947Y0156392D01*
X0152085Y015653D01*
X0152281Y015653D01*
X015242Y0156392D01*
D02*
G37*
G36*
X0147065Y0153144D02*
X0145884D01*
Y0156293D01*
X0147065D01*
Y0153144D01*
D02*
G37*
G36*
X0064065Y0152925D02*
X0062884D01*
Y0156075D01*
X0064065D01*
Y0152925D01*
D02*
G37*
G36*
X0069184Y0153161D02*
X0069282Y0153161D01*
X006942Y0153023D01*
X006942Y0152925D01*
X006942Y0152827D01*
X0069282Y0152689D01*
X0069086Y0152689D01*
X0068948Y0152827D01*
X0068948Y0152925D01*
Y0152925D01*
X0068002D01*
Y0156075D01*
X0069184D01*
Y0153161D01*
D02*
G37*
G36*
X0092226Y0148333D02*
X0092324Y0148333D01*
X0092462Y0148195D01*
X0092462Y0148097D01*
X0095376D01*
Y0146915D01*
X0092226D01*
Y0147861D01*
X0092226D01*
X0092128Y0147861D01*
X009199Y0147999D01*
X009199Y0148195D01*
X0092128Y0148333D01*
X0092226Y0148333D01*
D02*
G37*
G36*
X0175394Y0145925D02*
X0174213D01*
Y0149075D01*
X0175394D01*
Y0145925D01*
D02*
G37*
G36*
X0170275D02*
X016933D01*
Y0145925D01*
X016933Y0145827D01*
X0169192Y0145689D01*
X0168996Y0145688D01*
X0168858Y0145827D01*
X0168858Y0145925D01*
X0168857Y0146022D01*
X0168996Y0146161D01*
X0169094Y0146161D01*
Y0149075D01*
X0170275D01*
Y0145925D01*
D02*
G37*
G36*
X0095376Y0141797D02*
X0092226D01*
Y0142978D01*
X0095376D01*
Y0141797D01*
D02*
G37*
G36*
X0175116Y0138207D02*
X0173935D01*
Y0141356D01*
X0175116D01*
Y0138207D01*
D02*
G37*
G36*
X0169998D02*
X0169053D01*
Y0138206D01*
X0169053Y0138109D01*
X0168915Y013797D01*
X0168719Y013797D01*
X016858Y0138108D01*
X016858Y0138206D01*
X016858Y0138304D01*
X0168718Y0138442D01*
X0168817Y0138443D01*
Y0141356D01*
X0169998D01*
Y0138207D01*
D02*
G37*
G36*
X0097684Y0136925D02*
X0096503D01*
Y0140075D01*
X0097684D01*
Y0136925D01*
D02*
G37*
G36*
X009162Y0140173D02*
X009162Y0140075D01*
Y0140075D01*
X0092566D01*
Y0136925D01*
X0091384D01*
Y0139839D01*
X0091286Y0139839D01*
X0091148Y0139977D01*
X0091148Y0140075D01*
X0091148Y0140173D01*
X0091286Y0140311D01*
X0091482Y0140311D01*
X009162Y0140173D01*
D02*
G37*
G36*
X008401Y0129195D02*
X008401Y0128999D01*
X0083872Y0128861D01*
X0083774Y0128861D01*
X0083774D01*
Y0127915D01*
X0080624D01*
Y0129096D01*
X0083538D01*
X0083538Y0129195D01*
X0083676Y0129333D01*
X0083774Y0129333D01*
X0083872Y0129333D01*
X008401Y0129195D01*
D02*
G37*
G36*
X0209535Y0123581D02*
X0208921D01*
Y0126038D01*
X0209535D01*
Y0123581D01*
D02*
G37*
G36*
X0083774Y0122797D02*
X0080624D01*
Y0123978D01*
X0083774D01*
Y0122797D01*
D02*
G37*
G36*
X0161978Y0121726D02*
X0160797D01*
Y0124876D01*
X0161978D01*
Y0121726D01*
D02*
G37*
G36*
X0232695Y012201D02*
X0232833Y0121872D01*
X0232833Y0121774D01*
X0232833Y0121676D01*
X0232695Y0121538D01*
X0232596Y0121538D01*
Y0118624D01*
X0231415D01*
Y0121774D01*
X0232361D01*
Y0121774D01*
X0232361Y0121872D01*
X0232499Y012201D01*
X0232695Y012201D01*
D02*
G37*
G36*
X0167096Y0121962D02*
X0167195Y0121962D01*
X0167333Y0121824D01*
X0167333Y0121726D01*
X0167333Y0121628D01*
X0167195Y012149D01*
X0166999Y012149D01*
X0166861Y0121628D01*
X0166861Y0121726D01*
Y0121726D01*
X0165915D01*
Y0124876D01*
X0167096D01*
Y0121962D01*
D02*
G37*
G36*
X0216726Y0120833D02*
X0216824Y0120833D01*
X0216962Y0120695D01*
X0216962Y0120597D01*
X0219876D01*
Y0119415D01*
X0216726D01*
Y0120361D01*
X0216726D01*
X0216628Y0120361D01*
X021649Y0120499D01*
X021649Y0120695D01*
X0216628Y0120833D01*
X0216726Y0120833D01*
D02*
G37*
G36*
X0227478Y0118624D02*
X0226297D01*
Y0121774D01*
X0227478D01*
Y0118624D01*
D02*
G37*
G36*
X0209613Y0117566D02*
X0211346D01*
Y0116951D01*
X0209613D01*
Y0116038D01*
X0208999D01*
Y0116951D01*
X0207251D01*
Y0117566D01*
X0208999D01*
Y0118495D01*
X0209613D01*
Y0117566D01*
D02*
G37*
G36*
X0219876Y0114297D02*
X0216726D01*
Y0115478D01*
X0219876D01*
Y0114297D01*
D02*
G37*
G36*
X0227566Y0111925D02*
X022662D01*
Y0111925D01*
X022662Y0111827D01*
X0226482Y0111689D01*
X0226286Y0111689D01*
X0226148Y0111827D01*
X0226148Y0111925D01*
X0226148Y0112023D01*
X0226286Y0112161D01*
X0226384Y0112161D01*
Y0115075D01*
X0227566D01*
Y0111925D01*
D02*
G37*
G36*
X0232684D02*
X0231503D01*
Y0115075D01*
X0232684D01*
Y0111925D01*
D02*
G37*
G36*
X014901Y0097695D02*
X014901Y0097499D01*
X0148872Y0097361D01*
X0148774Y0097361D01*
X0148774D01*
Y0096415D01*
X0145624D01*
Y0097597D01*
X0148538D01*
X0148538Y0097695D01*
X0148676Y0097833D01*
X0148774Y0097833D01*
X0148872Y0097833D01*
X014901Y0097695D01*
D02*
G37*
G36*
X0158856Y0095935D02*
X0155707D01*
Y0097116D01*
X0158856D01*
Y0095935D01*
D02*
G37*
G36*
X0148774Y0091297D02*
X0145624D01*
Y0092478D01*
X0148774D01*
Y0091297D01*
D02*
G37*
G36*
X0158856Y0090817D02*
X0155942D01*
X0155942Y0090718D01*
X0155804Y009058D01*
X0155706Y009058D01*
X0155608Y009058D01*
X015547Y0090719D01*
X015547Y0090914D01*
X0155608Y0091053D01*
X0155706Y0091053D01*
X0155707D01*
Y0091998D01*
X0158856D01*
Y0090817D01*
D02*
G37*
G36*
X0228065Y0081707D02*
X0226884D01*
Y0084856D01*
X0228065D01*
Y0081707D01*
D02*
G37*
G36*
X0233183Y0081942D02*
X0233282Y0081942D01*
X023342Y0081804D01*
X023342Y0081706D01*
X023342Y0081608D01*
X0233281Y008147D01*
X0233085Y008147D01*
X0232947Y0081608D01*
X0232947Y0081706D01*
Y0081707D01*
X0232002D01*
Y0084856D01*
X0233183D01*
Y0081942D01*
D02*
G37*
G36*
X0178465Y0079707D02*
X0177284D01*
Y0082856D01*
X0178465D01*
Y0079707D01*
D02*
G37*
G36*
X0183583Y0079943D02*
X0183682Y0079942D01*
X018382Y0079804D01*
X018382Y0079706D01*
X018382Y0079608D01*
X0183681Y007947D01*
X0183485Y007947D01*
X0183347Y0079609D01*
X0183347Y0079706D01*
Y0079707D01*
X0182402D01*
Y0082856D01*
X0183583D01*
Y0079943D01*
D02*
G37*
G36*
X0025203Y0077624D02*
X0024022D01*
Y0080774D01*
X0025203D01*
Y0077624D01*
D02*
G37*
G36*
X0019139Y0080872D02*
X0019139Y0080774D01*
Y0080774D01*
X0020085D01*
Y0077624D01*
X0018903D01*
Y0080538D01*
X0018805Y0080538D01*
X0018667Y0080676D01*
X0018667Y0080774D01*
X0018667Y0080872D01*
X0018805Y008101D01*
X0019001Y008101D01*
X0019139Y0080872D01*
D02*
G37*
G36*
X0041203Y0077124D02*
X0040022D01*
Y0080274D01*
X0041203D01*
Y0077124D01*
D02*
G37*
G36*
X0035139Y0080372D02*
X0035139Y0080274D01*
Y0080274D01*
X0036085D01*
Y0077124D01*
X0034903D01*
Y0080038D01*
X0034805Y0080038D01*
X0034667Y0080176D01*
X0034667Y0080274D01*
X0034667Y0080372D01*
X0034805Y008051D01*
X0035001Y008051D01*
X0035139Y0080372D01*
D02*
G37*
G36*
X0210311Y0075214D02*
X0210311Y0075018D01*
X0210173Y007488D01*
X0210075Y007488D01*
X0210075D01*
Y0073935D01*
X0206925D01*
Y0075116D01*
X0209839D01*
X0209839Y0075214D01*
X0209977Y0075352D01*
X0210075Y0075352D01*
X0210173Y0075352D01*
X0210311Y0075214D01*
D02*
G37*
G36*
X0192294Y007342D02*
X0192392Y007342D01*
X019253Y0073281D01*
X019253Y0073085D01*
X0192392Y0072947D01*
X0192294Y0072947D01*
X0192293D01*
Y0072002D01*
X0189144D01*
Y0073183D01*
X0192058D01*
X0192058Y0073282D01*
X0192196Y007342D01*
X0192294Y007342D01*
D02*
G37*
G36*
X0210075Y0068816D02*
X0206925D01*
Y0069998D01*
X0210075D01*
Y0068816D01*
D02*
G37*
G36*
X0192293Y0066884D02*
X0189144D01*
Y0068065D01*
X0192293D01*
Y0066884D01*
D02*
G37*
G36*
X0192075Y0059631D02*
X0192173Y005963D01*
X0192312Y0059492D01*
X0192311Y0059296D01*
X0192173Y0059158D01*
X0192075Y0059158D01*
X0192075D01*
Y0058213D01*
X0188925D01*
Y0059394D01*
X0191839D01*
X0191839Y0059492D01*
X0191978Y0059631D01*
X0192075Y0059631D01*
D02*
G37*
G36*
X0192075Y0053094D02*
X0188925D01*
Y0054276D01*
X0192075D01*
Y0053094D01*
D02*
G37*
G36*
X0226203Y0049124D02*
X0225022D01*
Y0052274D01*
X0226203D01*
Y0049124D01*
D02*
G37*
G36*
X0220139Y0052372D02*
X0220139Y0052274D01*
Y0052274D01*
X0221085D01*
Y0049124D01*
X0219903D01*
Y0052038D01*
X0219805Y0052038D01*
X0219667Y0052176D01*
X0219667Y0052274D01*
X0219667Y0052372D01*
X0219805Y005251D01*
X0220001Y005251D01*
X0220139Y0052372D01*
D02*
G37*
G36*
X0235998Y0048925D02*
X0234816D01*
Y0052075D01*
X0235998D01*
Y0048925D01*
D02*
G37*
G36*
X0241116Y0049161D02*
X0241214Y0049161D01*
X0241352Y0049023D01*
X0241352Y0048925D01*
X0241352Y0048827D01*
X0241214Y0048689D01*
X0241018Y0048689D01*
X024088Y0048827D01*
X024088Y0048925D01*
Y0048925D01*
X0239934D01*
Y0052075D01*
X0241116D01*
Y0049161D01*
D02*
G37*
G36*
X0185616Y0040644D02*
X0184435D01*
Y0043793D01*
X0185616D01*
Y0040644D01*
D02*
G37*
G36*
X0179415Y004403D02*
X0179553Y0043892D01*
X0179553Y0043794D01*
Y0043793D01*
X0180498D01*
Y0040644D01*
X0179317D01*
Y0043558D01*
X0179218Y0043558D01*
X017908Y0043696D01*
X017908Y0043794D01*
X017908Y0043892D01*
X0179219Y004403D01*
X0179415Y004403D01*
D02*
G37*
G36*
X0180478Y0032226D02*
X0179297D01*
Y0035376D01*
X0180478D01*
Y0032226D01*
D02*
G37*
G36*
X0185597Y0032462D02*
X0185695Y0032462D01*
X0185833Y0032324D01*
X0185833Y0032226D01*
X0185833Y0032128D01*
X0185695Y003199D01*
X0185499Y003199D01*
X0185361Y0032128D01*
X0185361Y0032226D01*
Y0032226D01*
X0184415D01*
Y0035376D01*
X0185597D01*
Y0032462D01*
D02*
G37*
G36*
X0185616Y0024644D02*
X0184435D01*
Y0027793D01*
X0185616D01*
Y0024644D01*
D02*
G37*
G36*
X0179415Y002803D02*
X0179553Y0027891D01*
X0179553Y0027794D01*
Y0027793D01*
X0180498D01*
Y0024644D01*
X0179317D01*
Y0027558D01*
X0179218Y0027558D01*
X017908Y0027696D01*
X017908Y0027794D01*
X017908Y0027892D01*
X0179219Y002803D01*
X0179415Y002803D01*
D02*
G37*
G36*
X0024203Y0022624D02*
X0023022D01*
Y0025774D01*
X0024203D01*
Y0022624D01*
D02*
G37*
G36*
X0018139Y0025872D02*
X0018139Y0025774D01*
Y0025774D01*
X0019085D01*
Y0022624D01*
X0017903D01*
Y0025538D01*
X0017805Y0025538D01*
X0017667Y0025676D01*
X0017667Y0025774D01*
X0017667Y0025872D01*
X0017805Y002601D01*
X0018001Y002601D01*
X0018139Y0025872D01*
D02*
G37*
G36*
X0042616Y0022425D02*
X0041434D01*
Y0025575D01*
X0042616D01*
Y0022425D01*
D02*
G37*
G36*
X0036552Y0025673D02*
X0036552Y0025575D01*
Y0025575D01*
X0037497D01*
Y0022425D01*
X0036316D01*
Y0025339D01*
X0036218Y0025339D01*
X003608Y0025477D01*
X003608Y0025575D01*
X003608Y0025673D01*
X0036218Y0025811D01*
X0036414Y0025811D01*
X0036552Y0025673D01*
D02*
G37*
G36*
X0098565Y0015207D02*
X0097384D01*
Y0018356D01*
X0098565D01*
Y0015207D01*
D02*
G37*
G36*
X0103683Y0015442D02*
X0103782Y0015442D01*
X010392Y0015304D01*
X010392Y0015206D01*
X010392Y0015108D01*
X0103781Y001497D01*
X0103585Y001497D01*
X0103447Y0015109D01*
X0103447Y0015206D01*
Y0015207D01*
X0102502D01*
Y0018356D01*
X0103683D01*
Y0015442D01*
D02*
G37*
G36*
X0084394Y0010925D02*
X0083213D01*
Y0014075D01*
X0084394D01*
Y0010925D01*
D02*
G37*
G36*
X0078192Y0014311D02*
X007833Y0014173D01*
X007833Y0014075D01*
Y0014075D01*
X0079276D01*
Y0010925D01*
X0078094D01*
Y0013839D01*
X0077996Y0013839D01*
X0077857Y0013977D01*
X0077858Y0014075D01*
X0077858Y0014173D01*
X0077996Y0014312D01*
X0078192Y0014311D01*
D02*
G37*
G36*
X0251184Y0009425D02*
X0250003D01*
Y0012575D01*
X0251184D01*
Y0009425D01*
D02*
G37*
G36*
X024512Y0012673D02*
X024512Y0012575D01*
Y0012575D01*
X0246065D01*
Y0009425D01*
X0244884D01*
Y0012339D01*
X0244786Y0012339D01*
X0244648Y0012477D01*
X0244648Y0012575D01*
X0244648Y0012673D01*
X0244786Y0012811D01*
X0244982Y0012811D01*
X024512Y0012673D01*
D02*
G37*
G36*
X0252894Y0001978D02*
X0249744D01*
Y0003159D01*
X0252894D01*
Y0001978D01*
D02*
G37*
G36*
X0245394D02*
X0242244D01*
Y0003159D01*
X0245394D01*
Y0001978D01*
D02*
G37*
G36*
X0036616Y-0002356D02*
X0035435D01*
Y0000793D01*
X0036616D01*
Y-0002356D01*
D02*
G37*
G36*
X0030415Y000103D02*
X0030553Y0000891D01*
X0030553Y0000794D01*
Y0000793D01*
X0031498D01*
Y-0002356D01*
X0030317D01*
Y0000557D01*
X0030218Y0000558D01*
X003008Y0000696D01*
X003008Y0000794D01*
X003008Y0000892D01*
X0030219Y000103D01*
X0030415Y000103D01*
D02*
G37*
G36*
X0047565Y-0002575D02*
X0046384D01*
Y0000575D01*
X0047565D01*
Y-0002575D01*
D02*
G37*
G36*
X0052684Y-0002339D02*
X0052782Y-0002339D01*
X005292Y-0002477D01*
X005292Y-0002575D01*
X005292Y-0002673D01*
X0052782Y-0002811D01*
X0052586Y-0002811D01*
X0052448Y-0002673D01*
X0052448Y-0002575D01*
Y-0002575D01*
X0051503D01*
Y0000575D01*
X0052684D01*
Y-0002339D01*
D02*
G37*
G36*
X0252894Y-000314D02*
X024998D01*
X024998Y-0003238D01*
X0249842Y-0003377D01*
X0249744Y-0003377D01*
X0249646Y-0003377D01*
X0249508Y-0003239D01*
X0249508Y-0003043D01*
X0249646Y-0002905D01*
X0249744Y-0002905D01*
X0249744D01*
Y-0001959D01*
X0252894D01*
Y-000314D01*
D02*
G37*
G36*
X0245394D02*
X024248D01*
X024248Y-0003238D01*
X0242342Y-0003377D01*
X0242244Y-0003377D01*
X0242146Y-0003377D01*
X0242008Y-0003239D01*
X0242008Y-0003043D01*
X0242146Y-0002905D01*
X0242244Y-0002905D01*
X0242244D01*
Y-0001959D01*
X0245394D01*
Y-000314D01*
D02*
G37*
G36*
X0033685Y-0011134D02*
X0034026Y-0011475D01*
X003421Y-0011919D01*
Y-0012401D01*
X0034026Y-0012845D01*
X0033685Y-0013186D01*
X0033241Y-001337D01*
X0032759D01*
X0032315Y-0013186D01*
X0031974Y-0012845D01*
X003179Y-0012401D01*
Y-0011919D01*
X0031974Y-0011475D01*
X0032315Y-0011134D01*
X0032759Y-001095D01*
X0033241D01*
X0033685Y-0011134D01*
D02*
G37*
G36*
X0113018Y-0018059D02*
X0102782D01*
Y-00155D01*
X0113018D01*
Y-0018059D01*
D02*
G37*
G36*
X0096856Y-0018065D02*
X0093707D01*
Y-0016884D01*
X0096856D01*
Y-0018065D01*
D02*
G37*
G36*
X0135536Y-0018079D02*
X01253D01*
Y-001552D01*
X0135536D01*
Y-0018079D01*
D02*
G37*
G36*
X0046066Y-0020575D02*
X0044884D01*
Y-0017425D01*
X0046066D01*
Y-0020575D01*
D02*
G37*
G36*
X0051184Y-0020339D02*
X0051282Y-0020339D01*
X005142Y-0020477D01*
X005142Y-0020575D01*
X005142Y-0020673D01*
X0051282Y-0020811D01*
X0051086Y-0020811D01*
X0050948Y-0020673D01*
X0050948Y-0020575D01*
Y-0020575D01*
X0050002D01*
Y-0017425D01*
X0051184D01*
Y-0020339D01*
D02*
G37*
G36*
X0096856Y-0023183D02*
X0093942D01*
X0093942Y-0023282D01*
X0093804Y-002342D01*
X0093706Y-002342D01*
X0093608Y-002342D01*
X009347Y-0023281D01*
X009347Y-0023086D01*
X0093608Y-0022947D01*
X0093706Y-0022947D01*
X0093707D01*
Y-0022002D01*
X0096856D01*
Y-0023183D01*
D02*
G37*
G36*
X0033685Y-0020974D02*
X0034026Y-0021315D01*
X003421Y-0021759D01*
Y-0022241D01*
X0034026Y-0022685D01*
X0033685Y-0023026D01*
X0033241Y-002321D01*
X0032759D01*
X0032315Y-0023026D01*
X0031974Y-0022685D01*
X003179Y-0022241D01*
Y-0021759D01*
X0031974Y-0021315D01*
X0032315Y-0020974D01*
X0032759Y-002079D01*
X0033241D01*
X0033685Y-0020974D01*
D02*
G37*
G36*
X0168718Y-0023559D02*
X0158482D01*
Y-0021D01*
X0168718D01*
Y-0023559D01*
D02*
G37*
G36*
X01462Y-002358D02*
X0135964D01*
Y-0021021D01*
X01462D01*
Y-002358D01*
D02*
G37*
G36*
X0192695Y-002549D02*
X0192833Y-0025628D01*
X0192833Y-0025726D01*
X0192833Y-0025824D01*
X0192695Y-0025962D01*
X0192596Y-0025962D01*
Y-0028876D01*
X0191415D01*
Y-0025726D01*
X0192361D01*
Y-0025726D01*
X0192361Y-0025628D01*
X0192499Y-002549D01*
X0192695Y-002549D01*
D02*
G37*
G36*
X004701Y-0025305D02*
X004701Y-0025501D01*
X0046872Y-0025639D01*
X0046774Y-0025639D01*
X0046774D01*
Y-0026585D01*
X0043624D01*
Y-0025403D01*
X0046538D01*
X0046538Y-0025305D01*
X0046676Y-0025167D01*
X0046774Y-0025167D01*
X0046872Y-0025167D01*
X004701Y-0025305D01*
D02*
G37*
G36*
X0187478Y-0028876D02*
X0186297D01*
Y-0025726D01*
X0187478D01*
Y-0028876D01*
D02*
G37*
G36*
X0200774Y-0028978D02*
X0197624D01*
Y-0027797D01*
X0200774D01*
Y-0028978D01*
D02*
G37*
G36*
X0116075Y-0030566D02*
X0112925D01*
Y-0029384D01*
X0116075D01*
Y-0030566D01*
D02*
G37*
G36*
X0109075D02*
X0105925D01*
Y-0029384D01*
X0109075D01*
Y-0030566D01*
D02*
G37*
G36*
X0046774Y-0031703D02*
X0043624D01*
Y-0030522D01*
X0046774D01*
Y-0031703D01*
D02*
G37*
G36*
X0127695Y-003199D02*
X0127833Y-0032128D01*
X0127833Y-0032226D01*
X0127833Y-0032324D01*
X0127695Y-0032462D01*
X0127596Y-0032462D01*
Y-0035376D01*
X0126415D01*
Y-0032226D01*
X0127361D01*
Y-0032226D01*
X0127361Y-0032128D01*
X0127499Y-003199D01*
X0127695Y-003199D01*
D02*
G37*
G36*
X0192782Y-0032189D02*
X019292Y-0032327D01*
X019292Y-0032425D01*
X019292Y-0032523D01*
X0192782Y-0032661D01*
X0192684Y-0032661D01*
Y-0035575D01*
X0191502D01*
Y-0032425D01*
X0192448D01*
Y-0032425D01*
X0192448Y-0032327D01*
X0192586Y-0032189D01*
X0192782Y-0032189D01*
D02*
G37*
G36*
X0033685Y-0030814D02*
X0034026Y-0031155D01*
X003421Y-0031599D01*
Y-0032081D01*
X0034026Y-0032525D01*
X0033685Y-0032866D01*
X0033241Y-003305D01*
X0032759D01*
X0032315Y-0032866D01*
X0031974Y-0032525D01*
X003179Y-0032081D01*
Y-0031599D01*
X0031974Y-0031155D01*
X0032315Y-0030814D01*
X0032759Y-003063D01*
X0033241D01*
X0033685Y-0030814D01*
D02*
G37*
G36*
X005701Y-0032305D02*
X005701Y-0032501D01*
X0056872Y-0032639D01*
X0056774Y-0032639D01*
X0056774D01*
Y-0033585D01*
X0053624D01*
Y-0032403D01*
X0056538D01*
X0056538Y-0032305D01*
X0056676Y-0032167D01*
X0056774Y-0032167D01*
X0056872Y-0032167D01*
X005701Y-0032305D01*
D02*
G37*
G36*
X0222876Y-0034978D02*
X0219726D01*
Y-0033797D01*
X0222876D01*
Y-0034978D01*
D02*
G37*
G36*
X0200774Y-0033797D02*
X0201376D01*
Y-0034978D01*
X0198226D01*
Y-0034097D01*
X0197624D01*
Y-0032915D01*
X0200774D01*
Y-0033797D01*
D02*
G37*
G36*
X0212694D02*
X0215376D01*
Y-0034978D01*
X0212694D01*
Y-0035372D01*
X0211513D01*
Y-0032223D01*
X0212694D01*
Y-0033797D01*
D02*
G37*
G36*
X0122478Y-0035376D02*
X0121297D01*
Y-0032226D01*
X0122478D01*
Y-0035376D01*
D02*
G37*
G36*
X0187566Y-0035575D02*
X0186384D01*
Y-0032425D01*
X0187566D01*
Y-0035575D01*
D02*
G37*
G36*
X0207576Y-0033797D02*
X0208376D01*
Y-0034978D01*
X0207576D01*
Y-0035372D01*
X0206631D01*
Y-0035372D01*
X0206631Y-003547D01*
X0206493Y-0035609D01*
X0206297Y-0035609D01*
X0206158Y-0035471D01*
X0206158Y-0035373D01*
X0206158Y-0035275D01*
X0206296Y-0035136D01*
X0206395Y-0035136D01*
Y-0034978D01*
X0205226D01*
Y-0033797D01*
X0206395D01*
Y-0032223D01*
X0207576D01*
Y-0033797D01*
D02*
G37*
G36*
X01155Y-0034503D02*
X0116075D01*
Y-0035448D01*
X0116075D01*
X0116173Y-0035448D01*
X0116311Y-0035586D01*
X0116311Y-0035782D01*
X0116173Y-003592D01*
X0116075Y-003592D01*
X0115977Y-003592D01*
X0115839Y-0035782D01*
X0115839Y-0035684D01*
X01155D01*
Y-0044018D01*
X0112941D01*
Y-0035684D01*
X0112925D01*
Y-0034503D01*
X0112941D01*
Y-0033782D01*
X01155D01*
Y-0034503D01*
D02*
G37*
G36*
X0109075Y-0035448D02*
X0109075D01*
X0109173Y-0035448D01*
X0109311Y-0035586D01*
X0109311Y-0035782D01*
X0109173Y-003592D01*
X0109075Y-003592D01*
X0108977Y-003592D01*
X0108839Y-0035782D01*
X0108839Y-0035684D01*
X0105925D01*
Y-0034503D01*
X0109075D01*
Y-0035448D01*
D02*
G37*
G36*
X0143771Y-003792D02*
X0142196D01*
Y-0032901D01*
X0143771D01*
Y-003792D01*
D02*
G37*
G36*
X0136128Y-0032806D02*
X0136133Y-0032901D01*
X0136133Y-0032901D01*
X0136133Y-0032901D01*
X0137471D01*
Y-003792D01*
X0135897D01*
Y-0033126D01*
X0135802Y-0033126D01*
X0135665Y-0032996D01*
X0135661Y-0032901D01*
X0135661Y-0032901D01*
X0135665Y-0032807D01*
X0135802Y-0032676D01*
X0135991Y-0032675D01*
X0136128Y-0032806D01*
D02*
G37*
G36*
X002683Y-0038151D02*
Y-0038349D01*
X0026689Y-003849D01*
X0026491D01*
X002635Y-0038349D01*
Y-0038151D01*
X0026491Y-003801D01*
X0026689D01*
X002683Y-0038151D01*
D02*
G37*
G36*
X0056774Y-0038703D02*
X0053624D01*
Y-0037522D01*
X0056774D01*
Y-0038703D01*
D02*
G37*
G36*
X0092616Y-0039356D02*
X0091435D01*
Y-0036207D01*
X0092616D01*
Y-0039356D01*
D02*
G37*
G36*
X0086414Y-003597D02*
X0086553Y-0036108D01*
X0086553Y-0036206D01*
Y-0036207D01*
X0087498D01*
Y-0039356D01*
X0086317D01*
Y-0036443D01*
X0086218Y-0036442D01*
X008608Y-0036304D01*
X008608Y-0036206D01*
X008608Y-0036108D01*
X0086219Y-003597D01*
X0086414Y-003597D01*
D02*
G37*
G36*
X0049075Y-0039358D02*
X0049173Y-0039358D01*
X0049312Y-0039496D01*
X0049311Y-0039692D01*
X0049173Y-003983D01*
X0049075Y-003983D01*
X0049075D01*
Y-0040775D01*
X0045925D01*
Y-0039594D01*
X0048839D01*
X0048839Y-0039496D01*
X0048978Y-0039357D01*
X0049075Y-0039358D01*
D02*
G37*
G36*
X0222876Y-0040097D02*
X0219962D01*
X0219962Y-0040195D01*
X0219824Y-0040333D01*
X0219726Y-0040333D01*
X0219628Y-0040333D01*
X021949Y-0040195D01*
X021949Y-0039999D01*
X0219628Y-0039861D01*
X0219726Y-0039861D01*
X0219726D01*
Y-0038915D01*
X0222876D01*
Y-0040097D01*
D02*
G37*
G36*
X0215376D02*
X0212462D01*
X0212462Y-0040195D01*
X0212324Y-0040333D01*
X0212226Y-0040333D01*
X0212128Y-0040333D01*
X021199Y-0040195D01*
X021199Y-0039999D01*
X0212128Y-0039861D01*
X0212226Y-0039861D01*
X0212226D01*
Y-0038915D01*
X0215376D01*
Y-0040097D01*
D02*
G37*
G36*
X0208376D02*
X0205462D01*
X0205462Y-0040195D01*
X0205324Y-0040333D01*
X0205226Y-0040333D01*
X0205128Y-0040333D01*
X020499Y-0040195D01*
X020499Y-0039999D01*
X0205128Y-0039861D01*
X0205226Y-0039861D01*
X0205226D01*
Y-0038915D01*
X0208376D01*
Y-0040097D01*
D02*
G37*
G36*
X0201376D02*
X0198462D01*
X0198462Y-0040195D01*
X0198324Y-0040333D01*
X0198226Y-0040333D01*
X0198128Y-0040333D01*
X019799Y-0040195D01*
X019799Y-0039999D01*
X0198128Y-0039861D01*
X0198226Y-0039861D01*
X0198226D01*
Y-0038915D01*
X0201376D01*
Y-0040097D01*
D02*
G37*
G36*
X010033Y-0037927D02*
X010033Y-0038025D01*
X0100331Y-0038122D01*
X0100192Y-0038261D01*
X0100094Y-0038261D01*
Y-0041175D01*
X0098913D01*
Y-0038025D01*
X0099858D01*
Y-0038025D01*
X0099858Y-0037927D01*
X0099996Y-0037789D01*
X0100192Y-0037788D01*
X010033Y-0037927D01*
D02*
G37*
G36*
X0094976Y-0041175D02*
X0093794D01*
Y-0038025D01*
X0094976D01*
Y-0041175D01*
D02*
G37*
G36*
X0125174Y-0041978D02*
X0122024D01*
Y-0040797D01*
X0125174D01*
Y-0041978D01*
D02*
G37*
G36*
X0143293Y-0042065D02*
X0140144D01*
Y-0040884D01*
X0143293D01*
Y-0042065D01*
D02*
G37*
G36*
X0135293D02*
X0132144D01*
Y-0040884D01*
X0135293D01*
Y-0042065D01*
D02*
G37*
G36*
X017651Y-0041205D02*
X017651Y-0041401D01*
X0176372Y-0041539D01*
X0176274Y-0041539D01*
X0176274D01*
Y-0042485D01*
X0173124D01*
Y-0041304D01*
X0176038D01*
X0176038Y-0041205D01*
X0176176Y-0041067D01*
X0176274Y-0041067D01*
X0176372Y-0041067D01*
X017651Y-0041205D01*
D02*
G37*
G36*
X0149457Y-0041954D02*
Y-0042115D01*
Y-0042277D01*
X0149229Y-0042505D01*
X0148906D01*
X0148677Y-0042277D01*
Y-0042115D01*
Y-0041954D01*
X0148906Y-0041725D01*
X0149229D01*
X0149457Y-0041954D01*
D02*
G37*
G36*
X0187603Y-0043576D02*
X0186422D01*
Y-0040426D01*
X0187603D01*
Y-0043576D01*
D02*
G37*
G36*
X0181539Y-0040328D02*
X0181539Y-0040426D01*
Y-0040426D01*
X0182485D01*
Y-0043576D01*
X0181304D01*
Y-0040662D01*
X0181205Y-0040662D01*
X0181067Y-0040524D01*
X0181067Y-0040426D01*
X0181067Y-0040328D01*
X0181205Y-004019D01*
X0181401Y-004019D01*
X0181539Y-0040328D01*
D02*
G37*
G36*
X0151467Y-0044875D02*
X0149067D01*
Y-0043295D01*
X0151467D01*
Y-0044875D01*
D02*
G37*
G36*
X0049075Y-0045894D02*
X0045925D01*
Y-0044712D01*
X0049075D01*
Y-0045894D01*
D02*
G37*
G36*
X0036894Y-0046075D02*
X0035713D01*
Y-0042925D01*
X0036894D01*
Y-0046075D01*
D02*
G37*
G36*
X0030692Y-0042689D02*
X003083Y-0042827D01*
X003083Y-0042925D01*
Y-0042925D01*
X0031776D01*
Y-0046075D01*
X0030594D01*
Y-0043161D01*
X0030496Y-0043161D01*
X0030357Y-0043023D01*
X0030358Y-0042925D01*
X0030358Y-0042827D01*
X0030496Y-0042688D01*
X0030692Y-0042689D01*
D02*
G37*
G36*
X0076856Y-0046565D02*
X0073707D01*
Y-0045384D01*
X0076856D01*
Y-0046565D01*
D02*
G37*
G36*
X0070356D02*
X0067207D01*
Y-0045384D01*
X0070356D01*
Y-0046565D01*
D02*
G37*
G36*
X0083876Y-0046978D02*
X0080726D01*
Y-0045797D01*
X0083876D01*
Y-0046978D01*
D02*
G37*
G36*
X0063376D02*
X0060226D01*
Y-0045797D01*
X0063376D01*
Y-0046978D01*
D02*
G37*
G36*
X0125174Y-0046861D02*
X0125174D01*
X0125272Y-0046861D01*
X012541Y-0046999D01*
X012541Y-0047195D01*
X0125272Y-0047333D01*
X0125174Y-0047333D01*
X0125076Y-0047333D01*
X0124938Y-0047195D01*
X0124938Y-0047096D01*
X0122024D01*
Y-0045915D01*
X0125174D01*
Y-0046861D01*
D02*
G37*
G36*
X0135293Y-0046947D02*
X0135294D01*
X0135391Y-0046947D01*
X013553Y-0047085D01*
X013553Y-0047281D01*
X0135392Y-004742D01*
X0135294Y-004742D01*
X0135196Y-004742D01*
X0135058Y-0047282D01*
X0135057Y-0047183D01*
X0132144D01*
Y-0046002D01*
X0135293D01*
Y-0046947D01*
D02*
G37*
G36*
X0176274Y-0047603D02*
X0173124D01*
Y-0046422D01*
X0176274D01*
Y-0047603D01*
D02*
G37*
G36*
X0143771Y-004842D02*
X0142196D01*
Y-0047183D01*
X0140144D01*
Y-0046002D01*
X0142196D01*
Y-0043401D01*
X0143771D01*
Y-004842D01*
D02*
G37*
G36*
X0136128Y-0043306D02*
X0136133Y-0043401D01*
X0136133Y-0043401D01*
X0136133Y-0043401D01*
X0137471D01*
Y-004842D01*
X0135897D01*
Y-0043626D01*
X0135802Y-0043626D01*
X0135665Y-0043496D01*
X0135661Y-0043401D01*
X0135661Y-0043401D01*
X0135665Y-0043306D01*
X0135802Y-0043176D01*
X0135991Y-0043176D01*
X0136128Y-0043306D01*
D02*
G37*
G36*
X0095085Y-0048774D02*
X0094139D01*
Y-0048774D01*
X0094139Y-0048872D01*
X0094001Y-004901D01*
X0093805Y-004901D01*
X0093667Y-0048872D01*
X0093667Y-0048774D01*
X0093667Y-0048676D01*
X0093805Y-0048538D01*
X0093903Y-0048538D01*
Y-0045624D01*
X0095085D01*
Y-0048774D01*
D02*
G37*
G36*
X0160087Y-0048615D02*
X0157687D01*
Y-0047035D01*
X0160087D01*
Y-0048615D01*
D02*
G37*
G36*
X0100203Y-0048774D02*
X0099022D01*
Y-0045624D01*
X0100203D01*
Y-0048774D01*
D02*
G37*
G36*
X0176198Y-0050676D02*
X0176335Y-0050806D01*
X0176339Y-0050901D01*
X0176335Y-0050995D01*
X0176198Y-0051126D01*
X0176103Y-0051126D01*
Y-005592D01*
X0174529D01*
Y-0050901D01*
X0175867D01*
X0175867Y-0050901D01*
X0175867Y-0050901D01*
X0175872Y-0050806D01*
X0176009Y-0050675D01*
X0176198Y-0050676D01*
D02*
G37*
G36*
X0229521Y-005142D02*
X0231036D01*
Y-0053979D01*
X0229755D01*
X0229757Y-0054019D01*
X0229753Y-0054114D01*
X0229616Y-0054245D01*
X0229427Y-0054245D01*
X022929Y-0054114D01*
X0229285Y-005402D01*
X0229285Y-005402D01*
X0229285Y-005402D01*
X0227947D01*
Y-0053979D01*
X0223222D01*
Y-005402D01*
X0221648D01*
Y-0053979D01*
X02208D01*
Y-005142D01*
X0221648D01*
Y-0049D01*
X0223222D01*
Y-005142D01*
X0227947D01*
Y-0049D01*
X0229521D01*
Y-005142D01*
D02*
G37*
G36*
X0076856Y-0051683D02*
X0073943D01*
X0073942Y-0051782D01*
X0073804Y-005192D01*
X0073706Y-005192D01*
X0073608Y-005192D01*
X007347Y-0051781D01*
X007347Y-0051586D01*
X0073608Y-0051447D01*
X0073706Y-0051447D01*
X0073707D01*
Y-0050502D01*
X0076856D01*
Y-0051683D01*
D02*
G37*
G36*
X0070356D02*
X0067443D01*
X0067442Y-0051782D01*
X0067304Y-005192D01*
X0067206Y-005192D01*
X0067108Y-005192D01*
X006697Y-0051781D01*
X006697Y-0051586D01*
X0067109Y-0051447D01*
X0067206Y-0051447D01*
X0067207D01*
Y-0050502D01*
X0070356D01*
Y-0051683D01*
D02*
G37*
G36*
X0083876Y-0052096D02*
X0080962D01*
X0080962Y-0052195D01*
X0080824Y-0052333D01*
X0080726Y-0052333D01*
X0080628Y-0052333D01*
X008049Y-0052195D01*
X008049Y-0051999D01*
X0080628Y-0051861D01*
X0080726Y-0051861D01*
X0080726D01*
Y-0050915D01*
X0083876D01*
Y-0052096D01*
D02*
G37*
G36*
X0063376D02*
X0060462D01*
X0060462Y-0052195D01*
X0060324Y-0052333D01*
X0060226Y-0052333D01*
X0060128Y-0052333D01*
X005999Y-0052195D01*
X005999Y-0051999D01*
X0060128Y-0051861D01*
X0060226Y-0051861D01*
X0060226D01*
Y-0050915D01*
X0063376D01*
Y-0052096D01*
D02*
G37*
G36*
X0151467Y-0052355D02*
X0149067D01*
Y-0050775D01*
X0151467D01*
Y-0052355D01*
D02*
G37*
G36*
X0105395Y-005239D02*
X0105533Y-0052528D01*
X0105533Y-0052626D01*
X0105533Y-0052724D01*
X0105395Y-0052862D01*
X0105297Y-0052862D01*
Y-0055776D01*
X0104115D01*
Y-0052626D01*
X0105061D01*
Y-0052626D01*
X0105061Y-0052528D01*
X0105199Y-005239D01*
X0105395Y-005239D01*
D02*
G37*
G36*
X0208518Y-0054D02*
X0198282D01*
Y-0051441D01*
X0208518D01*
Y-0054D01*
D02*
G37*
G36*
X0100178Y-0055776D02*
X0098997D01*
Y-0052626D01*
X0100178D01*
Y-0055776D01*
D02*
G37*
G36*
X0169804Y-005592D02*
X0168229D01*
Y-0050901D01*
X0169804D01*
Y-005592D01*
D02*
G37*
G36*
X0139575Y-0057565D02*
X0136425D01*
Y-0056384D01*
X0139575D01*
Y-0057565D01*
D02*
G37*
G36*
X011548Y-0066536D02*
X011292D01*
Y-0064184D01*
X0111825D01*
Y-0063003D01*
X011292D01*
Y-0059066D01*
X0111825D01*
Y-005812D01*
X0111825D01*
X0111727Y-005812D01*
X0111589Y-0057982D01*
X0111589Y-0057786D01*
X0111727Y-0057648D01*
X0111825Y-0057648D01*
X0111923Y-0057648D01*
X0112061Y-0057786D01*
X0112061Y-0057884D01*
X011292D01*
Y-00563D01*
X011548D01*
Y-0066536D01*
D02*
G37*
G36*
X0157161Y-0058008D02*
X0157161Y-0058106D01*
X0160075D01*
Y-0059288D01*
X0156925D01*
Y-0058342D01*
X0156925D01*
X0156827Y-0058342D01*
X0156689Y-0058204D01*
X0156688Y-0058008D01*
X0156827Y-005787D01*
X0156925Y-0057869D01*
X0157023Y-0057869D01*
X0157161Y-0058008D01*
D02*
G37*
G36*
X0096794Y-005968D02*
X0096892Y-005968D01*
X009703Y-0059819D01*
X009703Y-0060015D01*
X0096891Y-0060153D01*
X0096794Y-0060153D01*
X0096793D01*
Y-0061098D01*
X0094174D01*
Y-0061678D01*
X0091024D01*
Y-0060497D01*
X0093644D01*
Y-0059917D01*
X0096557D01*
X0096558Y-0059818D01*
X0096696Y-005968D01*
X0096794Y-005968D01*
D02*
G37*
G36*
X0076922Y-0060495D02*
X0075741D01*
Y-0057345D01*
X0076922D01*
Y-0060495D01*
D02*
G37*
G36*
X008204Y-0060259D02*
X0082138Y-0060259D01*
X0082277Y-0060397D01*
X0082277Y-0060495D01*
X0082277Y-0060592D01*
X0082139Y-0060731D01*
X0081943Y-0060731D01*
X0081805Y-0060593D01*
X0081805Y-0060495D01*
Y-0060495D01*
X0080859D01*
Y-0057345D01*
X008204D01*
Y-0060259D01*
D02*
G37*
G36*
X0063109Y-006091D02*
X0061927D01*
Y-0057761D01*
X0063109D01*
Y-006091D01*
D02*
G37*
G36*
X0068227Y-0060675D02*
X0068325Y-0060675D01*
X0068464Y-0060813D01*
X0068464Y-0060911D01*
X0068463Y-0061009D01*
X0068325Y-0061147D01*
X0068129Y-0061147D01*
X0067991Y-0061009D01*
X0067991Y-0060911D01*
Y-006091D01*
X0067046D01*
Y-0057761D01*
X0068227D01*
Y-0060675D01*
D02*
G37*
G36*
X0139575Y-0062448D02*
X0139575D01*
X0139673Y-0062448D01*
X0139811Y-0062586D01*
X0139811Y-0062782D01*
X0139673Y-006292D01*
X0139575Y-006292D01*
X0139477Y-006292D01*
X0139339Y-0062782D01*
X0139339Y-0062684D01*
X0136425D01*
Y-0061502D01*
X0139575D01*
Y-0062448D01*
D02*
G37*
G36*
X0151116Y-0064293D02*
X0149935D01*
Y-0061144D01*
X0151116D01*
Y-0064293D01*
D02*
G37*
G36*
X0160075Y-0064406D02*
X0156925D01*
Y-0063225D01*
X0160075D01*
Y-0064406D01*
D02*
G37*
G36*
X0145998Y-0064293D02*
X0145053D01*
Y-0064294D01*
X0145053Y-0064391D01*
X0144915Y-006453D01*
X0144719Y-006453D01*
X014458Y-0064392D01*
X014458Y-0064294D01*
X014458Y-0064196D01*
X0144718Y-0064058D01*
X0144817Y-0064057D01*
Y-0061144D01*
X0145998D01*
Y-0064293D01*
D02*
G37*
G36*
X0183416Y-0066256D02*
X0182235D01*
Y-0063107D01*
X0183416D01*
Y-0066256D01*
D02*
G37*
G36*
X0177215Y-006287D02*
X0177353Y-0063008D01*
X0177353Y-0063106D01*
Y-0063107D01*
X0178298D01*
Y-0066256D01*
X0177117D01*
Y-0063342D01*
X0177018Y-0063342D01*
X017688Y-0063204D01*
X017688Y-0063106D01*
X017688Y-0063008D01*
X0177019Y-006287D01*
X0177215Y-006287D01*
D02*
G37*
G36*
X0096793Y-0066216D02*
X0094174D01*
Y-0066561D01*
X0094174D01*
X0094272Y-0066561D01*
X009441Y-0066699D01*
X009441Y-0066895D01*
X0094272Y-0067033D01*
X0094174Y-0067033D01*
X0094076Y-0067033D01*
X0093938Y-0066895D01*
X0093938Y-0066796D01*
X0091024D01*
Y-0065615D01*
X0093644D01*
Y-0065035D01*
X0096793D01*
Y-0066216D01*
D02*
G37*
D129*
X0111825Y-0057884D02*
X0114975D01*
Y-0064184D02*
Y-0057884D01*
X0111825Y-0064184D02*
X0114975D01*
X0111825D02*
Y-0057884D01*
X0096793Y-0066216D02*
Y-0059917D01*
X0093644Y-0066216D02*
X0096793D01*
X0093644D02*
Y-0059917D01*
X0096793D01*
X0101218Y-0063194D02*
X0127202D01*
Y-0042406D01*
X0122005Y-003721D02*
X0127202Y-0042406D01*
X0106415Y-003721D02*
X0122005D01*
X0101218Y-0042406D02*
X0106415Y-003721D01*
X0101218Y-0063194D02*
Y-0042406D01*
X0093903Y-0048774D02*
Y-0045624D01*
X0100203D01*
Y-0048774D02*
Y-0045624D01*
X0093903Y-0048774D02*
X0100203D01*
X0198226Y-0040097D02*
Y-0033797D01*
X0201376D01*
Y-0040097D02*
Y-0033797D01*
X0198226Y-0040097D02*
X0201376D01*
X0221648Y-005402D02*
X0229521D01*
X0221648D02*
Y-0049D01*
X0229521D01*
Y-005402D02*
Y-0049D01*
X0219726Y-0040097D02*
Y-0033797D01*
X0222876D01*
Y-0040097D02*
Y-0033797D01*
X0219726Y-0040097D02*
X0222876D01*
X0176274Y-0047603D02*
Y-0041304D01*
X0173124Y-0047603D02*
X0176274D01*
X0173124D02*
Y-0041304D01*
X0176274D01*
X0181304Y-0040426D02*
X0187603D01*
Y-0043576D02*
Y-0040426D01*
X0181304Y-0043576D02*
X0187603D01*
X0181304D02*
Y-0040426D01*
X0177117Y-0066256D02*
Y-0063107D01*
Y-0066256D02*
X0183416D01*
Y-0063107D01*
X0177117D02*
X0183416D01*
X0135897Y-0043401D02*
X0143771D01*
Y-004842D02*
Y-0043401D01*
X0135897Y-004842D02*
X0143771D01*
X0135897D02*
Y-0043401D01*
Y-0032901D02*
X0143771D01*
Y-003792D02*
Y-0032901D01*
X0135897Y-003792D02*
X0143771D01*
X0135897D02*
Y-0032901D01*
X0111406Y-0029782D02*
X0132194D01*
X010621Y-0024585D02*
X0111406Y-0029782D01*
X010621Y-0024585D02*
Y-0008995D01*
X0111406Y-0003798D01*
X0132194D01*
Y-0029782D02*
Y-0003798D01*
X0060226Y-0052096D02*
Y-0045797D01*
X0063376D01*
Y-0052096D02*
Y-0045797D01*
X0060226Y-0052096D02*
X0063376D01*
X0067207Y-0051683D02*
X0070356D01*
Y-0045384D01*
X0067207D02*
X0070356D01*
X0067207Y-0051683D02*
Y-0045384D01*
X0073707Y-0051683D02*
X0076856D01*
Y-0045384D01*
X0073707D02*
X0076856D01*
X0073707Y-0051683D02*
Y-0045384D01*
X0080726Y-0052096D02*
Y-0045797D01*
X0083876D01*
Y-0052096D02*
Y-0045797D01*
X0080726Y-0052096D02*
X0083876D01*
X0093707Y-0023183D02*
X0096856D01*
Y-0016884D01*
X0093707D02*
X0096856D01*
X0093707Y-0023183D02*
Y-0016884D01*
X0086317Y-0039356D02*
Y-0036207D01*
Y-0039356D02*
X0092616D01*
Y-0036207D01*
X0086317D02*
X0092616D01*
X0068227Y-006091D02*
Y-0057761D01*
X0061927D02*
X0068227D01*
X0061927Y-006091D02*
Y-0057761D01*
Y-006091D02*
X0068227D01*
X0075741Y-0060495D02*
X008204D01*
X0075741D02*
Y-0057345D01*
X008204D01*
Y-0060495D02*
Y-0057345D01*
X0030594Y-0046075D02*
Y-0042925D01*
Y-0046075D02*
X0036894D01*
Y-0042925D01*
X0030594D02*
X0036894D01*
X0045925Y-0039594D02*
X0049075D01*
X0045925Y-0045894D02*
Y-0039594D01*
Y-0045894D02*
X0049075D01*
Y-0039594D01*
X0046774Y-0031703D02*
Y-0025403D01*
X0043624Y-0031703D02*
X0046774D01*
X0043624D02*
Y-0025403D01*
X0046774D01*
X0056774Y-0038703D02*
Y-0032403D01*
X0053624Y-0038703D02*
X0056774D01*
X0053624D02*
Y-0032403D01*
X0056774D01*
X0103683Y0015207D02*
Y0018356D01*
X0097384D02*
X0103683D01*
X0097384Y0015207D02*
Y0018356D01*
Y0015207D02*
X0103683D01*
X0078094Y0010925D02*
Y0014075D01*
Y0010925D02*
X0084394D01*
Y0014075D01*
X0078094D02*
X0084394D01*
X0051184Y-0020575D02*
Y-0017425D01*
X0044884D02*
X0051184D01*
X0044884Y-0020575D02*
Y-0017425D01*
Y-0020575D02*
X0051184D01*
X002659Y-003825D02*
X004254D01*
X002659D02*
Y-000575D01*
X004254D01*
Y-003825D02*
Y-000575D01*
X0030317Y-0002356D02*
Y0000793D01*
Y-0002356D02*
X0036616D01*
Y0000793D01*
X0030317D02*
X0036616D01*
X0046384Y-0002575D02*
X0052684D01*
X0046384D02*
Y0000575D01*
X0052684D01*
Y-0002575D02*
Y0000575D01*
X0017903Y0025774D02*
X0024203D01*
Y0022624D02*
Y0025774D01*
X0017903Y0022624D02*
X0024203D01*
X0017903D02*
Y0025774D01*
X0036316Y0025575D02*
X0042616D01*
Y0022425D02*
Y0025575D01*
X0036316Y0022425D02*
X0042616D01*
X0036316D02*
Y0025575D01*
X0018903Y0080774D02*
X0025203D01*
Y0077624D02*
Y0080774D01*
X0018903Y0077624D02*
X0025203D01*
X0018903D02*
Y0080774D01*
X0034903Y0080274D02*
X0041203D01*
Y0077124D02*
Y0080274D01*
X0034903Y0077124D02*
X0041203D01*
X0034903D02*
Y0080274D01*
X0083774Y0122797D02*
Y0129096D01*
X0080624Y0122797D02*
X0083774D01*
X0080624D02*
Y0129096D01*
X0083774D01*
X0091384Y0136925D02*
Y0140075D01*
Y0136925D02*
X0097684D01*
Y0140075D01*
X0091384D02*
X0097684D01*
X0069184Y0152925D02*
Y0156075D01*
X0062884D02*
X0069184D01*
X0062884Y0152925D02*
Y0156075D01*
Y0152925D02*
X0069184D01*
X0076226Y0154403D02*
X0079376D01*
Y0160703D01*
X0076226D02*
X0079376D01*
X0076226Y0154403D02*
Y0160703D01*
X0067145Y0161573D02*
Y0172991D01*
X0060846D02*
X0067145D01*
X0060846Y0161573D02*
Y0172991D01*
Y0161573D02*
X0067145D01*
X0069184Y0177841D02*
Y0180991D01*
X0062884D02*
X0069184D01*
X0062884Y0177841D02*
Y0180991D01*
Y0177841D02*
X0069184D01*
X0076207Y0167317D02*
Y0173616D01*
X0079356D01*
Y0167317D02*
Y0173616D01*
X0076207Y0167317D02*
X0079356D01*
X0051184Y0169425D02*
Y0172575D01*
X0044884D02*
X0051184D01*
X0044884Y0169425D02*
Y0172575D01*
Y0169425D02*
X0051184D01*
X0045094Y0177425D02*
X0051394D01*
X0045094D02*
Y0180575D01*
X0051394D01*
Y0177425D02*
Y0180575D01*
X0167096Y0121726D02*
Y0124876D01*
X0160797D02*
X0167096D01*
X0160797Y0121726D02*
Y0124876D01*
Y0121726D02*
X0167096D01*
X0148774Y0091297D02*
Y0097597D01*
X0145624Y0091297D02*
X0148774D01*
X0145624D02*
Y0097597D01*
X0148774D01*
X0155707Y0090817D02*
X0158856D01*
Y0097116D01*
X0155707D02*
X0158856D01*
X0155707Y0090817D02*
Y0097116D01*
X0179317Y0040644D02*
Y0043793D01*
Y0040644D02*
X0185616D01*
Y0043793D01*
X0179317D02*
X0185616D01*
X0183583Y0079707D02*
Y0082856D01*
X0177284D02*
X0183583D01*
X0177284Y0079707D02*
Y0082856D01*
Y0079707D02*
X0183583D01*
X0188925Y0059394D02*
X0192075D01*
X0188925Y0053094D02*
Y0059394D01*
Y0053094D02*
X0192075D01*
Y0059394D01*
X0189144Y0073183D02*
X0192293D01*
X0189144Y0066884D02*
Y0073183D01*
Y0066884D02*
X0192293D01*
Y0073183D01*
X0210075Y0068816D02*
Y0075116D01*
X0206925Y0068816D02*
X0210075D01*
X0206925D02*
Y0075116D01*
X0210075D01*
X0242244Y-000314D02*
Y0003159D01*
X0245394D01*
Y-000314D02*
Y0003159D01*
X0242244Y-000314D02*
X0245394D01*
X0249744D02*
Y0003159D01*
X0252894D01*
Y-000314D02*
Y0003159D01*
X0249744Y-000314D02*
X0252894D01*
X0244884Y0012575D02*
X0251184D01*
Y0009425D02*
Y0012575D01*
X0244884Y0009425D02*
X0251184D01*
X0244884D02*
Y0012575D01*
X0226884Y0081707D02*
X0233183D01*
X0226884D02*
Y0084856D01*
X0233183D01*
Y0081707D02*
Y0084856D01*
X0219903Y0049124D02*
Y0052274D01*
Y0049124D02*
X0226203D01*
Y0052274D01*
X0219903D02*
X0226203D01*
X0241116Y0048925D02*
Y0052075D01*
X0234816D02*
X0241116D01*
X0234816Y0048925D02*
Y0052075D01*
Y0048925D02*
X0241116D01*
X0093226Y0176797D02*
Y0183097D01*
Y0176797D02*
X0096376D01*
Y0183097D01*
X0093226D02*
X0096376D01*
X0089075Y0176816D02*
Y0183116D01*
X0085925D02*
X0089075D01*
X0085925Y0176816D02*
Y0183116D01*
Y0176816D02*
X0089075D01*
X0091404Y0167726D02*
Y0170876D01*
X0097703D01*
Y0167726D02*
Y0170876D01*
X0091404Y0167726D02*
X0097703D01*
X0090904Y0153226D02*
X0097203D01*
Y0156376D01*
X0090904D02*
X0097203D01*
X0090904Y0153226D02*
Y0156376D01*
X0091404Y0160226D02*
Y0163376D01*
X0097703D01*
Y0160226D02*
Y0163376D01*
X0091404Y0160226D02*
X0097703D01*
X0092226Y0141797D02*
Y0148097D01*
Y0141797D02*
X0095376D01*
Y0148097D01*
X0092226D02*
X0095376D01*
X0118925Y0190106D02*
Y0196406D01*
Y0190106D02*
X0122075D01*
Y0196406D01*
X0118925D02*
X0122075D01*
X0124817Y0180207D02*
X0131116D01*
Y0183356D01*
X0124817D02*
X0131116D01*
X0124817Y0180207D02*
Y0183356D01*
X0131096Y0171624D02*
Y0174774D01*
X0124797Y0171624D02*
X0131096D01*
X0124797D02*
Y0174774D01*
X0131096D01*
Y0164124D02*
Y0167274D01*
X0124797Y0164124D02*
X0131096D01*
X0124797D02*
Y0167274D01*
X0131096D01*
X0124884Y0159293D02*
X0131183D01*
X0124884Y0156144D02*
Y0159293D01*
Y0156144D02*
X0131183D01*
Y0159293D01*
X0145884Y0156293D02*
X0152183D01*
X0145884Y0153144D02*
Y0156293D01*
Y0153144D02*
X0152183D01*
Y0156293D01*
X0168904Y0171226D02*
Y0174376D01*
X0175203D01*
Y0171226D02*
Y0174376D01*
X0168904Y0171226D02*
X0175203D01*
X0168884Y0165293D02*
X0175183D01*
X0168884Y0162144D02*
Y0165293D01*
Y0162144D02*
X0175183D01*
Y0165293D01*
X0168945Y0153707D02*
X0175244D01*
Y0156856D01*
X0168945D02*
X0175244D01*
X0168945Y0153707D02*
Y0156856D01*
X0169094Y0145925D02*
X0175394D01*
Y0149075D01*
X0169094D02*
X0175394D01*
X0169094Y0145925D02*
Y0149075D01*
X0168817Y0138207D02*
X0175116D01*
Y0141356D01*
X0168817D02*
X0175116D01*
X0168817Y0138207D02*
Y0141356D01*
X0168904Y0180726D02*
Y0183876D01*
X0175203D01*
Y0180726D02*
Y0183876D01*
X0168904Y0180726D02*
X0175203D01*
X0226384Y0111925D02*
Y0115075D01*
X0232684D01*
Y0111925D02*
Y0115075D01*
X0226384Y0111925D02*
X0232684D01*
X0232596Y0118624D02*
Y0121774D01*
X0226297Y0118624D02*
X0232596D01*
X0226297D02*
Y0121774D01*
X0232596D01*
X0216726Y0120597D02*
X0219876D01*
Y0114297D02*
Y0120597D01*
X0216726Y0114297D02*
X0219876D01*
X0216726D02*
Y0120597D01*
X0076596Y0182624D02*
Y0185774D01*
X0070297Y0182624D02*
X0076596D01*
X0070297D02*
Y0185774D01*
X0076596D01*
X0139575Y-0062684D02*
Y-0056384D01*
X0136425D02*
X0139575D01*
X0136425Y-0062684D02*
Y-0056384D01*
Y-0062684D02*
X0139575D01*
X0100094Y-0041175D02*
Y-0038025D01*
X0093794Y-0041175D02*
X0100094D01*
X0093794D02*
Y-0038025D01*
X0100094D01*
X0094174Y-0066796D02*
Y-0060497D01*
X0091024D02*
X0094174D01*
X0091024Y-0066796D02*
Y-0060497D01*
Y-0066796D02*
X0094174D01*
X0140144Y-0047183D02*
X0143293D01*
X0140144D02*
Y-0040884D01*
X0143293D01*
Y-0047183D02*
Y-0040884D01*
X0132144Y-0047183D02*
X0135293D01*
X0132144D02*
Y-0040884D01*
X0135293D01*
Y-0047183D02*
Y-0040884D01*
X0125174Y-0047096D02*
Y-0040797D01*
X0122024D02*
X0125174D01*
X0122024Y-0047096D02*
Y-0040797D01*
Y-0047096D02*
X0125174D01*
X0121297Y-0032226D02*
X0127596D01*
X0121297Y-0035376D02*
Y-0032226D01*
Y-0035376D02*
X0127596D01*
Y-0032226D01*
X0098997Y-0052626D02*
X0105297D01*
X0098997Y-0055776D02*
Y-0052626D01*
Y-0055776D02*
X0105297D01*
Y-0052626D01*
X0116075Y-0035684D02*
Y-0029384D01*
X0112925D02*
X0116075D01*
X0112925Y-0035684D02*
Y-0029384D01*
Y-0035684D02*
X0116075D01*
X0109075D02*
Y-0029384D01*
X0105925D02*
X0109075D01*
X0105925Y-0035684D02*
Y-0029384D01*
Y-0035684D02*
X0109075D01*
X0144817Y-0064293D02*
Y-0061144D01*
X0151116D01*
Y-0064293D02*
Y-0061144D01*
X0144817Y-0064293D02*
X0151116D01*
X0156925Y-0064406D02*
Y-0058106D01*
Y-0064406D02*
X0160075D01*
Y-0058106D01*
X0156925D02*
X0160075D01*
X0151427Y-0053535D02*
Y-0042115D01*
X0157727D01*
Y-0053535D02*
Y-0042115D01*
X0151427Y-0053535D02*
X0157727D01*
X0227694Y-0065702D02*
Y-0039718D01*
X0206906Y-0065702D02*
X0227694D01*
X020171Y-0060505D02*
X0206906Y-0065702D01*
X020171Y-0060505D02*
Y-0044915D01*
X0206906Y-0039718D01*
X0227694D01*
X0168229Y-0050901D02*
X0176103D01*
X0168229Y-005592D02*
Y-0050901D01*
Y-005592D02*
X0176103D01*
Y-0050901D01*
X0206395Y-0035372D02*
X0212694D01*
Y-0032223D01*
X0206395D02*
X0212694D01*
X0206395Y-0035372D02*
Y-0032223D01*
X0192684Y-0035575D02*
Y-0032425D01*
X0186384Y-0035575D02*
X0192684D01*
X0186384D02*
Y-0032425D01*
X0192684D01*
X0197624Y-0034097D02*
X0200774D01*
X0197624D02*
Y-0027797D01*
X0200774D01*
Y-0034097D02*
Y-0027797D01*
X0192596Y-0028876D02*
Y-0025726D01*
X0186297Y-0028876D02*
X0192596D01*
X0186297D02*
Y-0025726D01*
X0192596D01*
X0139306Y-0035282D02*
X0160094D01*
X016529Y-0030085D01*
Y-0014495D01*
X0160094Y-0009298D02*
X016529Y-0014495D01*
X0139306Y-0009298D02*
X0160094D01*
X0139306Y-0035282D02*
Y-0009298D01*
X0212226Y-0040097D02*
X0215376D01*
Y-0033797D01*
X0212226D02*
X0215376D01*
X0212226Y-0040097D02*
Y-0033797D01*
X0205226Y-0040097D02*
Y-0033797D01*
X0208376D01*
Y-0040097D02*
Y-0033797D01*
X0205226Y-0040097D02*
X0208376D01*
X0179317Y0027793D02*
X0185616D01*
Y0024644D02*
Y0027793D01*
X0179317Y0024644D02*
X0185616D01*
X0179317D02*
Y0027793D01*
X0185597Y0032226D02*
Y0035376D01*
X0179297D02*
X0185597D01*
X0179297Y0032226D02*
Y0035376D01*
Y0032226D02*
X0185597D01*
D130*
X0159689Y0128032D02*
Y0131968D01*
X018528Y013D02*
X0189216D01*
X0187248Y0128032D02*
Y0131968D01*
M02*
