G04*
G04 #@! TF.GenerationSoftware,Altium Limited,Altium Designer,22.0.2 (36)*
G04*
G04 Layer_Color=8388736*
%FSTAX25Y25*%
%MOIN*%
G70*
G04*
G04 #@! TF.SameCoordinates,0D831988-8BE3-4B2D-80CC-02C8544F8A67*
G04*
G04*
G04 #@! TF.FilePolarity,Positive*
G04*
G01*
G75*
%ADD13C,0.00787*%
G36*
X011382Y-0062414D02*
X01146D01*
Y-0059296D01*
X011382D01*
Y-0062414D01*
D01*
D02*
G37*
G36*
X01146Y-0039139D02*
X0116808D01*
Y-0039918D01*
X01146D01*
Y-0041107D01*
X011382D01*
Y-0039918D01*
X0111612D01*
Y-0039139D01*
X011382D01*
Y-0037989D01*
X01146D01*
Y-0039139D01*
D02*
G37*
G36*
X0108918Y-00164D02*
X0110107D01*
Y-001718D01*
X0108918D01*
Y-0019388D01*
X0108139D01*
Y-001718D01*
X0106989D01*
Y-00164D01*
X0108139D01*
Y-0014192D01*
X0108918D01*
Y-00164D01*
D02*
G37*
G36*
X0131414Y-001718D02*
Y-00164D01*
X0128296D01*
Y-001718D01*
X0131414D01*
D01*
D02*
G37*
G36*
X0143204Y-002268D02*
X0140086D01*
Y-00219D01*
X0143204D01*
Y-002268D01*
D02*
G37*
G36*
X0163361Y-00219D02*
X0164511D01*
Y-002268D01*
X0163361D01*
Y-0024888D01*
X0162582D01*
Y-002268D01*
X0161393D01*
Y-00219D01*
X0162582D01*
Y-0019692D01*
X0163361D01*
Y-00219D01*
D02*
G37*
G36*
X0204418Y-005232D02*
X0205607D01*
Y-00531D01*
X0204418D01*
Y-0055308D01*
X0203639D01*
Y-00531D01*
X0202489D01*
Y-005232D01*
X0203639D01*
Y-0050112D01*
X0204418D01*
Y-005232D01*
D02*
G37*
G36*
X0226914D02*
Y-00531D01*
X0223796D01*
Y-005232D01*
X0226914D01*
D01*
D02*
G37*
D13*
X0058877Y0163542D02*
G03*
X0058877Y0163542I-0000394J0D01*
G01*
M02*
